<svg width="367" height="94" viewBox="0 0 367 94" fill="none" xmlns="http://www.w3.org/2000/svg">
<path d="M125.997 88.3946C125.989 87.8223 126.108 87.2553 126.346 86.7351C126.589 86.2233 126.905 85.7497 127.283 85.3291C127.688 84.8818 128.137 84.4774 128.623 84.1222C129.128 83.7199 129.645 83.3337 130.174 82.9636C129.608 82.4726 129.098 81.9201 128.654 81.3162C128.234 80.7582 127.885 80.1501 127.614 79.5058C127.309 78.7656 127.156 77.9714 127.163 77.1705C127.137 76.5424 127.251 75.9163 127.496 75.338C127.741 74.7596 128.112 74.2435 128.581 73.8274C129.671 72.9669 131.037 72.5375 132.421 72.6205C133.715 72.5368 134.991 72.956 135.985 73.7912C136.39 74.1616 136.712 74.615 136.929 75.1209C137.146 75.6268 137.252 76.1734 137.24 76.7239C137.251 77.3589 137.133 77.9893 136.892 78.5765C136.656 79.1236 136.34 79.6321 135.955 80.0851C135.545 80.5629 135.09 80.9994 134.596 81.3886C134.08 81.7989 133.539 82.2032 132.974 82.5955L138.833 88.98C139.233 88.5294 139.6 88.0889 139.933 87.6584C140.251 87.23 140.533 86.8377 140.762 86.4877C140.99 86.1377 141.249 85.6851 141.465 85.2808L142.066 85.7213C141.874 86.1354 141.659 86.5383 141.423 86.9282C141.206 87.3024 140.936 87.7187 140.606 88.1894C140.256 88.6847 139.875 89.1564 139.464 89.6015L142.066 92.4438H138.833L137.667 91.1825C136.93 91.7322 136.122 92.1769 135.263 92.5041C134.263 92.8694 133.204 93.0473 132.139 93.0291C131.23 93.0457 130.325 92.9236 129.453 92.667C128.76 92.4545 128.112 92.1149 127.542 91.6653C127.044 91.2729 126.649 90.7657 126.388 90.1869C126.136 89.623 126.003 89.0127 125.997 88.3946ZM132.686 92.0575C133.505 92.0693 134.32 91.9302 135.089 91.6472C135.793 91.386 136.453 91.0198 137.048 90.561L131.039 83.9653C130.411 84.4887 129.858 85.0981 129.399 85.7756C128.962 86.4634 128.739 87.2655 128.756 88.0808C128.764 90.732 130.074 92.0575 132.686 92.0575ZM129.939 77.1282C129.935 77.6901 130.039 78.2476 130.246 78.7696C130.43 79.2414 130.66 79.694 130.931 80.1213C131.136 80.4569 131.367 80.7757 131.622 81.0748C131.752 81.2279 131.894 81.3693 132.049 81.4972C132.759 80.9054 133.396 80.2308 133.948 79.4877C134.479 78.752 134.755 77.8618 134.735 76.9532C134.748 76.4175 134.673 75.8832 134.512 75.3722C134.394 74.9904 134.202 74.6357 133.948 74.3282C133.742 74.0719 133.481 73.8656 133.184 73.7248C132.936 73.6142 132.669 73.5547 132.397 73.5498C132.096 73.5525 131.799 73.6118 131.52 73.7248C131.209 73.8593 130.936 74.0662 130.721 74.3282C130.451 74.6512 130.246 75.0244 130.12 75.4265C129.972 75.9809 129.911 76.555 129.939 77.1282Z" fill="white"/>
<path d="M162.503 92.4981H159.865V74.3162H151.115V92.4981H148.483V76.6696C148.511 75.9442 148.388 75.2209 148.123 74.5455C147.877 74.0084 147.318 73.7369 146.44 73.7369H145.839V73.1334H162.485L162.503 92.4981Z" fill="white"/>
<path d="M182.309 92.4981C181.917 92.6043 181.512 92.6531 181.107 92.6429C180.722 92.6387 180.337 92.6003 179.959 92.5282C179.484 92.4375 179.028 92.2639 178.613 92.0153C178.104 91.7061 177.649 91.3146 177.267 90.8567C176.775 90.2535 176.394 89.5668 176.143 88.8291L175.446 86.9282H167.268L164.93 92.4981H163.614L171.793 73.1394H172.67L179.094 88.8291C179.328 89.3782 179.55 89.8429 179.755 90.2231C179.928 90.5682 180.16 90.8806 180.44 91.1463C180.676 91.374 180.953 91.5542 181.257 91.6774C181.595 91.803 181.949 91.8822 182.309 91.9127V92.4981ZM167.706 85.7515H174.887L171.354 77.2731L167.706 85.7515Z" fill="white"/>
<path d="M185.403 92.4981H182.777V76.6696C182.803 75.9437 182.678 75.2204 182.411 74.5455C182.164 74.0084 181.605 73.7369 180.728 73.7369H180.127V73.1334H187.723C188.455 73.1428 189.186 73.2013 189.91 73.3084C190.75 73.4273 191.563 73.6906 192.314 74.0869C193.093 74.5086 193.756 75.1182 194.243 75.861C194.675 76.6652 194.936 77.5513 195.009 78.4626C195.081 79.3738 194.964 80.2902 194.663 81.1532C194.445 81.7141 194.123 82.2282 193.714 82.6679C193.337 83.0676 192.899 83.4037 192.416 83.6636C191.964 83.9192 191.484 84.1217 190.986 84.267C190.543 84.3846 190.094 84.4733 189.64 84.5325C189.297 84.5759 188.952 84.6 188.606 84.605H185.403V92.4981ZM187.597 83.555C188.066 83.5448 188.532 83.4655 188.979 83.3196C189.517 83.151 190.019 82.8806 190.457 82.5231C190.953 82.1291 191.362 81.6359 191.659 81.0748C192.165 80.1055 192.322 78.99 192.103 77.9176C191.884 76.8452 191.303 75.882 190.457 75.1912C190.017 74.8376 189.516 74.5695 188.979 74.4006C188.532 74.2548 188.066 74.1755 187.597 74.1653C187.21 74.1664 186.825 74.1966 186.443 74.2558C186.093 74.3051 185.746 74.3736 185.403 74.461V83.2593C185.746 83.3467 186.093 83.4152 186.443 83.4644C186.825 83.5236 187.21 83.5539 187.597 83.555Z" fill="white"/>
<path d="M210.641 73.1394V74.3162H204.067V92.4981H201.435V74.3162H198.809C197.842 74.2535 196.884 74.538 196.105 75.1187C195.767 75.4486 195.507 75.8499 195.343 76.2935C195.178 76.7371 195.115 77.2119 195.156 77.6834H194.555V75.4627C194.556 75.1721 194.59 74.8825 194.657 74.5998C194.723 74.324 194.853 74.0677 195.036 73.8515C195.246 73.6177 195.507 73.4359 195.799 73.3205C196.194 73.1723 196.615 73.1026 197.037 73.1153L210.641 73.1394Z" fill="white"/>
<path d="M226.265 88.98C226.236 89.7061 226.361 90.4302 226.631 91.1041C226.872 91.6412 227.431 91.9127 228.308 91.9127H228.909V92.5162H226.265C225.836 92.5256 225.408 92.481 224.991 92.3834C224.668 92.3057 224.38 92.1208 224.174 91.8584C223.949 91.5398 223.805 91.1712 223.753 90.7843C223.662 90.1853 223.622 89.5797 223.633 88.9739V83.1084H214.872V92.492H212.246V76.6696C212.271 75.9437 212.147 75.2204 211.879 74.5455C211.639 74.0084 211.074 73.7369 210.203 73.7369H209.602V73.1334H212.234C212.66 73.1239 213.086 73.1685 213.502 73.2662C213.825 73.3447 214.112 73.5295 214.319 73.7912C214.547 74.1127 214.694 74.4857 214.746 74.8774C214.831 75.4647 214.869 76.058 214.86 76.6515V81.9317H223.621V73.1394H226.253L226.265 88.98Z" fill="white"/>
<path d="M240.458 73.1394C240.882 73.1274 241.305 73.197 241.702 73.3446C241.992 73.4616 242.25 73.6432 242.459 73.8757C242.646 74.0893 242.776 74.3466 242.838 74.6239C242.905 74.9066 242.939 75.1962 242.94 75.4869V77.6834H242.339C242.381 77.2119 242.317 76.7371 242.153 76.2935C241.988 75.8499 241.728 75.4486 241.39 75.1188C240.613 74.5361 239.654 74.2514 238.686 74.3162H233.278V81.9377H241.167V83.1446H233.272V91.3575H238.385C239.479 91.4132 240.566 91.1581 241.522 90.6213C242.375 90.0077 243.007 89.1334 243.325 88.1291L243.926 88.2739L242.898 91.0619C242.759 91.4912 242.487 91.8652 242.123 92.13C241.708 92.413 241.212 92.5528 240.711 92.5282H230.646V76.6696C230.674 75.9435 230.549 75.2196 230.279 74.5455C230.039 74.0084 229.474 73.7369 228.602 73.7369H228.002V73.1334L240.458 73.1394Z" fill="white"/>
<path d="M248.667 92.4981H246.035V76.6696C246.062 75.9442 245.939 75.2209 245.674 74.5455C245.428 74.0084 244.869 73.7369 243.992 73.7369H243.391V73.1334H250.986C251.718 73.143 252.449 73.2015 253.174 73.3084C254.013 73.4291 254.826 73.6924 255.577 74.0869C256.356 74.5071 257.017 75.1172 257.5 75.861C258.072 76.8036 258.348 77.8968 258.293 78.9989C258.314 79.7343 258.189 80.4664 257.927 81.1532C257.709 81.7141 257.387 82.2282 256.977 82.6679C256.601 83.0676 256.162 83.4037 255.679 83.6636C255.227 83.9181 254.747 84.1206 254.249 84.267C253.807 84.3846 253.357 84.4733 252.903 84.5325C252.558 84.5759 252.211 84.6001 251.864 84.605H248.655L248.667 92.4981ZM250.854 83.555C251.326 83.5446 251.793 83.4654 252.242 83.3196C252.781 83.151 253.283 82.8806 253.72 82.5231C254.527 81.8056 255.08 80.845 255.296 79.7853C255.513 78.7256 255.382 77.6239 254.922 76.6455C254.622 76.085 254.214 75.5905 253.72 75.1912C253.281 74.8376 252.78 74.5695 252.242 74.4006C251.793 74.2549 251.326 74.1756 250.854 74.1653C250.468 74.1668 250.082 74.197 249.7 74.2558C249.352 74.305 249.007 74.3735 248.667 74.461V83.2593C249.007 83.3468 249.352 83.4153 249.7 83.4644C250.082 83.5232 250.468 83.5535 250.854 83.555Z" fill="white"/>
<path d="M262.95 81.3524H266.159C266.953 81.3576 267.744 81.4262 268.527 81.5575C269.37 81.6853 270.184 81.9632 270.93 82.3782C271.656 82.796 272.273 83.3789 272.733 84.08C273.21 84.9518 273.46 85.9304 273.46 86.9252C273.46 87.92 273.21 88.8987 272.733 89.7705C272.273 90.4716 271.656 91.0544 270.93 91.4722C270.184 91.8872 269.37 92.1651 268.527 92.2929C267.744 92.4243 266.953 92.4929 266.159 92.4981H260.318V76.6696C260.347 75.9435 260.222 75.2196 259.952 74.5455C259.711 74.0084 259.153 73.7369 258.275 73.7369H257.674V73.1334H260.3C260.727 73.1235 261.153 73.1682 261.568 73.2662C261.893 73.3448 262.183 73.5294 262.392 73.7912C262.618 74.1133 262.762 74.4862 262.812 74.8774C262.9 75.4645 262.94 76.0578 262.932 76.6515L262.95 81.3524ZM270.54 86.9282C270.554 86.2409 270.432 85.5577 270.179 84.9187C269.957 84.3721 269.611 83.8846 269.17 83.4946C268.725 83.1143 268.208 82.8289 267.649 82.6558C267.024 82.4665 266.374 82.3729 265.721 82.3782C264.782 82.3798 263.849 82.518 262.95 82.7886V91.0619C263.402 91.202 263.864 91.3049 264.332 91.3696C264.792 91.4355 265.256 91.4697 265.721 91.4722C266.374 91.4804 267.025 91.3868 267.649 91.1946C268.208 91.0216 268.725 90.7362 269.17 90.3558C269.611 89.9659 269.957 89.4784 270.179 88.9317C270.431 88.2947 270.554 87.6135 270.54 86.9282ZM275.798 73.1394H278.43V88.98C278.402 89.7055 278.525 90.4288 278.79 91.1041C279.037 91.6412 279.596 91.9127 280.473 91.9127H281.074V92.5162H278.448C278.019 92.526 277.591 92.4814 277.174 92.3834C276.85 92.307 276.561 92.1218 276.357 91.8584C276.129 91.5413 275.984 91.172 275.936 90.7843C275.845 90.1853 275.805 89.5797 275.816 88.9739L275.798 73.1394Z" fill="white"/>
<path d="M131.932 57.385C130.86 57.6831 129.752 57.8253 128.641 57.8073C127.536 57.792 126.435 57.6776 125.35 57.4654C124.005 57.2034 122.716 56.7045 121.539 55.9909C120.094 55.099 118.805 53.9662 117.728 52.6398C116.341 50.9112 115.264 48.9462 114.549 46.8356L112.476 41.3531H89.2555L82.6277 57.385H78.8958L102.097 1.68898H104.584L122.816 46.8356C123.479 48.4129 124.099 49.7533 124.679 50.857C125.188 51.855 125.855 52.7608 126.653 53.5379C127.33 54.1834 128.118 54.6968 128.977 55.0526C129.934 55.4196 130.938 55.6453 131.958 55.7229L131.932 57.385ZM90.4995 37.9484H110.804L100.859 13.4984L90.4995 37.9484Z" fill="#038DFF"/>
<path d="M139.31 57.385H131.853V11.8094C131.931 9.71803 131.577 7.63323 130.813 5.69025C130.124 4.13085 128.536 3.35115 126.048 3.35115H124.422V1.68898H145.971C148.051 1.71352 150.126 1.88147 152.184 2.19165C154.56 2.53271 156.86 3.29008 158.983 4.43021C161.197 5.63995 163.077 7.39592 164.452 9.53736C165.94 11.7715 166.686 14.7808 166.69 18.5653C166.735 20.6944 166.371 22.812 165.617 24.7985C164.997 26.4081 164.084 27.8838 162.925 29.1483C161.856 30.3 160.612 31.2686 159.24 32.0168C157.951 32.7198 156.589 33.2729 155.179 33.6656C153.927 34.008 152.654 34.2611 151.368 34.423C150.392 34.5481 149.409 34.6174 148.426 34.6307H139.31V57.385ZM145.523 31.6415C146.864 31.6145 148.195 31.3887 149.472 30.9713C150.996 30.4863 152.416 29.7132 153.658 28.6925C155.044 27.5468 156.186 26.1261 157.015 24.517C157.984 22.541 158.454 20.3505 158.384 18.1431C158.454 15.9357 157.984 13.7452 157.015 11.7692C156.186 10.1601 155.044 8.73944 153.658 7.5937C152.402 6.57114 150.969 5.79812 149.433 5.31492C148.155 4.89753 146.825 4.67175 145.484 4.64469C144.382 4.64823 143.282 4.73335 142.193 4.89937C141.202 5.04051 140.22 5.23742 139.251 5.48918V30.8305C140.22 31.0823 141.202 31.2792 142.193 31.4203C143.296 31.5772 144.409 31.6512 145.523 31.6415Z" fill="#038DFF"/>
<path d="M169.303 29.537C169.274 25.6099 169.876 21.7043 171.087 17.9755C172.193 14.5407 173.938 11.355 176.227 8.59234C178.453 5.91339 181.224 3.75914 184.349 2.27878C187.705 0.776048 191.332 6.92083e-05 194.998 6.92083e-05C198.665 6.92083e-05 202.291 0.776048 205.648 2.27878C208.767 3.75327 211.535 5.89799 213.763 8.56553C216.05 11.3294 217.795 14.5148 218.903 17.9487C220.114 21.6775 220.716 25.583 220.687 29.5102C220.723 33.4509 220.12 37.3707 218.903 41.1119C217.794 44.545 216.049 47.7301 213.763 50.4951C211.532 53.1587 208.764 55.3028 205.648 56.7818C202.291 58.2845 198.665 59.0605 194.998 59.0605C191.332 59.0605 187.705 58.2845 184.349 56.7818C181.23 55.3047 178.46 53.1604 176.227 50.4951C173.939 47.7318 172.194 44.5463 171.087 41.1119C169.873 37.3792 169.27 33.4688 169.303 29.537ZM212.401 29.537C212.44 25.8855 212.035 22.243 211.196 18.6927C210.52 15.7574 209.358 12.9607 207.76 10.4221C206.38 8.25252 204.503 6.45634 202.291 5.18757C200.038 3.99831 197.537 3.37757 194.998 3.37757C192.46 3.37757 189.959 3.99831 187.706 5.18757C185.491 6.45263 183.613 8.24957 182.236 10.4221C180.634 12.9589 179.47 15.7561 178.794 18.6927C177.955 22.243 177.55 25.8855 177.59 29.537C177.551 33.1885 177.955 36.8309 178.794 40.3813C179.471 43.3175 180.635 46.1145 182.236 48.6519C183.612 50.8241 185.49 52.6192 187.706 53.8797C189.958 55.0733 192.459 55.6965 194.998 55.6965C197.537 55.6965 200.039 55.0733 202.291 53.8797C204.504 52.6154 206.381 50.8211 207.76 48.6519C209.357 46.1126 210.518 43.3161 211.196 40.3813C212.035 36.8309 212.439 33.1885 212.401 29.537Z" fill="#038DFF"/>
<path d="M265.851 47.2579C265.772 49.3487 266.124 51.4334 266.885 53.377C267.576 54.9253 269.168 55.696 271.65 55.696H273.308V57.385H265.851C264.638 57.4103 263.427 57.2819 262.244 57.003C261.323 56.7792 260.503 56.2426 259.921 55.4816C259.28 54.5719 258.868 53.5153 258.723 52.4052C258.473 50.7017 258.363 48.98 258.394 47.2579V30.3815H233.535V57.385H226.071V11.8094C226.151 9.71852 225.799 7.63377 225.038 5.69025C224.344 4.13085 222.756 3.35115 220.272 3.35115H218.614V1.68898H226.071C227.284 1.66565 228.495 1.79167 229.678 2.06431C230.597 2.28904 231.414 2.82557 231.995 3.58573C232.642 4.50789 233.055 5.57837 233.199 6.70229C233.449 8.39236 233.561 10.1005 233.535 11.8094V27.0035H258.394V1.68898H265.851V47.2579Z" fill="#038DFF"/>
<path d="M270.82 29.537C270.794 25.6101 271.397 21.7051 272.604 17.9755C273.712 14.5416 275.457 11.3562 277.745 8.59234C279.971 5.91339 282.742 3.75914 285.866 2.27878C289.222 0.77621 292.847 0.000304089 296.512 0.000304089C300.178 0.000304089 303.803 0.77621 307.158 2.27878C310.285 3.7497 313.061 5.89474 315.294 8.56553C317.581 11.3294 319.326 14.5148 320.434 17.9487C321.641 21.6783 322.244 25.5833 322.218 29.5102C322.25 33.4507 321.647 37.3699 320.434 41.1119C319.324 44.5451 317.579 47.7301 315.294 50.4951C313.061 53.1604 310.291 55.3047 307.172 56.7818C303.816 58.2844 300.191 59.0603 296.526 59.0603C292.86 59.0603 289.235 58.2844 285.88 56.7818C282.769 55.3061 280.005 53.1667 277.777 50.5085C275.491 47.7435 273.747 44.5585 272.637 41.1253C271.414 37.3895 270.8 33.4749 270.82 29.537ZM313.918 29.537C313.957 25.8855 313.553 22.243 312.713 18.6927C312.037 15.7574 310.875 12.9607 309.278 10.4221C307.896 8.25067 306.017 6.45416 303.802 5.18757C301.548 3.99831 299.047 3.37757 296.509 3.37757C293.971 3.37757 291.47 3.99831 289.217 5.18757C287.005 6.45482 285.13 8.25142 283.754 10.4221C282.151 12.9589 280.987 15.7561 280.311 18.6927C279.468 22.2425 279.059 25.8849 279.094 29.537C279.053 33.1882 279.455 36.8306 280.292 40.3813C280.969 43.3175 282.133 46.1145 283.734 48.6519C285.109 50.8224 286.984 52.6172 289.197 53.8797C291.449 55.0733 293.95 55.6965 296.489 55.6965C299.028 55.6965 301.53 55.0733 303.782 53.8797C305.999 52.6177 307.878 50.823 309.258 48.6519C310.854 46.1126 312.016 43.3161 312.694 40.3813C313.539 36.8317 313.95 33.1893 313.918 29.537Z" fill="#038DFF"/>
<path d="M341.68 1.68898C344.08 1.70382 346.478 1.85823 348.861 2.15144C351.38 2.42822 353.841 3.10673 356.153 4.16212C358.354 5.17702 360.286 6.71187 361.787 8.63925C363.305 10.5785 364.065 13.1789 364.065 16.4407C364.047 19.0227 363.138 21.5161 361.498 23.4848C359.786 25.6564 357.051 27.3878 353.29 28.6791C355.587 29.0117 357.83 29.6494 359.964 30.5759C361.535 31.2742 362.957 32.2782 364.15 33.5316C365.174 34.6441 365.925 35.9877 366.342 37.4524C366.778 38.9882 367 40.5788 367 42.1775C367 45.3321 366.296 47.9057 364.887 49.8986C363.498 51.8793 361.645 53.4757 359.497 54.5432C357.182 55.6876 354.702 56.4479 352.152 56.7952C349.516 57.1811 346.857 57.3782 344.194 57.385H327.588V11.8094C327.669 9.71852 327.316 7.63377 326.555 5.69025C325.864 4.14872 324.271 3.35115 321.79 3.35115H320.131V1.68898H341.68ZM342.937 27.4258C344.579 27.4272 346.213 27.1856 347.788 26.7086C349.312 26.2568 350.744 25.528 352.013 24.5572C353.253 23.6024 354.285 22.3949 355.041 21.0117C355.842 19.4813 356.242 17.7658 356.199 16.0319C356.251 14.1971 355.758 12.3891 354.784 10.8443C353.854 9.41965 352.638 8.2114 351.217 7.2988C349.738 6.35857 348.113 5.67883 346.412 5.28811C344.732 4.86437 343.009 4.63948 341.278 4.61788C340.177 4.62173 339.077 4.70685 337.988 4.87257C336.997 5.01371 336.015 5.21061 335.046 5.46237V27.4258H342.937ZM335.039 30.7769V53.2497C336.331 53.6492 337.651 53.945 338.988 54.1344C340.296 54.3301 341.615 54.4286 342.937 54.4293C347.965 54.4293 351.849 53.4173 354.587 51.3932C357.325 49.3691 358.692 46.4424 358.687 42.6132C358.687 38.7929 357.371 35.8684 354.738 33.8399C352.105 31.8113 348.172 30.8082 342.937 30.8305L335.039 30.7769Z" fill="#038DFF"/>
<path d="M74.4992 13.5319C73.3944 13.5469 72.2932 13.6612 71.2083 13.8737C69.8655 14.1358 68.5781 14.6348 67.404 15.3482C65.9572 16.2384 64.6687 17.3715 63.5932 18.6994C62.1998 20.4312 61.119 22.4009 60.401 24.517L58.3343 29.9995H42.3208L29.8352 0H27.3539L9.13551 45.1131C8.46856 46.6859 7.84767 48.0264 7.27287 49.1345C6.76609 50.134 6.0987 51.0401 5.29833 51.8154C4.62378 52.4607 3.83846 52.9741 2.98155 53.3301C2.02323 53.694 1.01967 53.9196 0 54.0004V55.629C1.07192 55.9271 2.17986 56.0693 3.29089 56.0513C4.39524 56.0355 5.49624 55.9234 6.58178 55.7161C7.93198 55.4687 9.23011 54.9857 10.419 54.2886C11.8645 53.3966 13.1527 52.2638 14.2298 50.9374C15.6195 49.2042 16.6979 47.2348 17.4154 45.1198L19.4821 39.6374H35.5153L48.0207 69.61H50.5086L68.7204 24.5036C69.3785 22.9285 70.0367 21.5948 70.5896 20.4822C71.0873 19.4857 71.7434 18.5799 72.5312 17.8013C73.2064 17.1536 73.9943 16.6399 74.8546 16.2866C75.8095 15.9188 76.8114 15.6931 77.8295 15.6163V13.9542C76.745 13.6519 75.6234 13.5097 74.4992 13.5319ZM31.0594 11.8027L38.7733 29.9793H35.1664L29.3811 15.9783L31.0594 11.8027ZM41.4257 36.2594H37.6412L36.4104 33.3506H40.1752L41.4257 36.2594ZM21.1407 36.2594L27.5447 20.4956L34.1265 36.2594H21.1407ZM46.757 57.8006L39.0694 39.6306H42.6697L48.4551 53.6183L46.757 57.8006ZM50.2848 49.0876L43.703 33.3305H56.6954L50.2848 49.0876Z" fill="#038DFF"/>
</svg>
