<svg width="252" height="65" viewBox="0 0 252 65" fill="none" xmlns="http://www.w3.org/2000/svg">
<g clip-path="url(#clip0_796_283)">
<path d="M50.9168 9.63106C50.1802 9.65599 49.4453 9.72139 48.7155 9.82699C47.812 10.0225 46.9414 10.3525 46.1314 10.8066C45.1566 11.4097 44.2839 12.1706 43.5473 13.0598C42.6013 14.2647 41.8575 15.622 41.346 17.0763L39.8147 20.8969H28.9039L20.3859 0.324463H18.6631L6.22104 31.2811C5.7425 32.3587 5.35967 33.2404 4.97683 34.0241C4.63311 34.7157 4.1804 35.3446 3.63692 35.8855C3.15603 36.3336 2.60633 36.6977 2.00987 36.9631C1.35756 37.1946 0.684247 37.3587 0 37.4529L0 38.5305C1.4731 38.9094 3.01078 38.9429 4.49829 38.6285C5.40182 38.433 6.27245 38.1029 7.08242 37.6488C8.0572 37.0458 8.92991 36.2848 9.66654 35.3956C10.6125 34.1908 11.3564 32.8335 11.8678 31.3791L13.3035 27.6565H24.2142L32.7322 48.2289H34.455L46.8971 17.2723C47.3756 16.1947 47.7585 15.313 48.1413 14.5293C48.485 13.8377 48.9377 13.2088 49.4812 12.6679C49.9621 12.2198 50.5118 11.8557 51.1082 11.5903C51.7606 11.3588 52.4339 11.1947 53.1181 11.1005V9.92495C52.4035 9.71152 51.661 9.61238 50.9168 9.63106ZM21.2472 8.45549L26.5112 20.8969H24.0228L20.0987 11.2965L21.2472 8.45549ZM28.3297 25.2074H25.7455L24.8842 23.2481H27.4683L28.3297 25.2074ZM14.452 25.2074L18.8545 14.4313L23.3528 25.2074H14.452ZM31.9666 40L26.7026 27.5585H29.191L33.1151 37.159L31.9666 40ZM34.3593 34.0241L29.861 23.2481H38.7619L34.3593 34.0241ZM84.319 37.8447C82.5963 36.8651 81.2564 34.9058 80.2036 32.0649L78.8637 28.4402H63.646L59.2435 39.0203H56.755L72.0684 2.28375H73.6954L85.659 32.0649C86.2061 33.7048 87.0869 35.2073 88.2431 36.4732C89.1997 37.3421 90.4123 37.8593 91.6886 37.9427V39.0203C90.4455 39.3353 89.1535 39.3936 87.8882 39.1918C86.6229 38.9899 85.4095 38.532 84.319 37.8447ZM64.5074 26.285H77.8109L71.3027 10.1209L64.5074 26.285ZM111.404 37.8447C109.441 36.0412 107.818 33.8826 106.619 31.4771L101.164 21.9745H97.3354V38.9223H92.4542V8.94531C92.5272 7.49899 92.2649 6.05552 91.6886 4.73285C91.21 3.85117 90.1572 3.36135 88.6259 3.36135H87.5731V2.28375H101.738C104.976 2.23421 108.183 2.93763 111.117 4.34099C113.893 5.71249 115.329 8.35752 115.329 12.2761C115.329 17.1743 112.457 20.4071 106.619 21.7786L112.362 31.575C113.3 33.3741 114.53 34.9972 115.998 36.3753C117.049 37.2887 118.356 37.8375 119.731 37.9427V39.0203C119.283 39.2471 118.795 39.3803 118.295 39.4122C117.105 39.6821 115.871 39.6817 114.68 39.4109C113.49 39.1401 112.371 38.6055 111.404 37.8447ZM105.088 19.3295C106.413 18.7661 107.569 17.8534 108.438 16.6845C110.352 14.4313 110.256 10.0229 108.438 7.76974C107.548 6.62223 106.398 5.71429 105.088 5.12471C102.312 3.85117 100.207 4.14507 97.3354 4.83081V19.6234C100.207 20.2112 102.312 20.5051 105.088 19.3295ZM126.048 37.6488C123.449 35.9294 121.389 33.4808 120.114 30.5954C118.742 27.4686 118.032 24.0798 118.032 20.652C118.032 17.2243 118.742 13.8354 120.114 10.7087C121.412 7.83815 123.467 5.3954 126.048 3.65524C130.929 0.226499 138.968 0.226499 143.85 3.65524C146.448 5.37464 148.508 7.82326 149.784 10.7087C151.156 13.8354 151.865 17.2243 151.865 20.652C151.865 24.0798 151.156 27.4686 149.784 30.5954C148.485 33.4659 146.43 35.9087 143.85 37.6488C138.873 41.0776 130.929 41.0776 126.048 37.6488ZM141.074 35.7875C142.916 34.2234 144.279 32.1485 144.998 29.8117C146.817 24.9135 146.817 16.3906 144.998 11.4924C144.279 9.15556 142.916 7.08068 141.074 5.51656C139.318 4.13432 137.164 3.38492 134.949 3.38492C132.733 3.38492 130.58 4.13432 128.823 5.51656C126.981 7.08068 125.619 9.15556 124.899 11.4924C123.081 16.3906 123.081 24.9135 124.899 29.8117C125.619 32.1485 126.981 34.2234 128.823 35.7875C130.58 37.1697 132.733 37.9191 134.949 37.9191C137.164 37.9191 139.318 37.1697 141.074 35.7875ZM158.493 9.82699V39.1183H156.292V8.94531C156.379 7.47979 155.974 6.02775 155.143 4.83081C154.378 3.85117 153.133 3.36135 151.315 3.36135H150.741V2.28375H154.282C155.733 2.24215 157.174 2.54386 158.493 3.16542C159.697 3.75326 160.747 4.62641 161.556 5.71249L180.602 29.9096V2.28375H182.803V39.6081H181.75L158.493 9.82699ZM194.575 37.6488C191.977 35.9294 189.917 33.4808 188.641 30.5954C187.269 27.4686 186.559 24.0798 186.559 20.652C186.559 17.2243 187.269 13.8354 188.641 10.7087C189.939 7.83815 191.994 5.3954 194.575 3.65524C199.456 0.226499 207.496 0.226499 212.377 3.65524C214.975 5.37464 217.035 7.82326 218.311 10.7087C219.683 13.8354 220.392 17.2243 220.392 20.652C220.392 24.0798 219.683 27.4686 218.311 30.5954C217.012 33.4659 214.957 35.9087 212.377 37.6488C207.496 41.0776 199.552 41.0776 194.575 37.6488ZM209.601 35.7875C211.444 34.2234 212.806 32.1485 213.525 29.8117C215.344 24.9135 215.344 16.3906 213.525 11.4924C212.806 9.15556 211.444 7.08068 209.601 5.51656C207.845 4.13432 205.691 3.38492 203.476 3.38492C201.26 3.38492 199.107 4.13432 197.351 5.51656C195.508 7.08068 194.146 9.15556 193.427 11.4924C191.608 16.3906 191.608 24.9135 193.427 29.8117C194.146 32.1485 195.508 34.2234 197.351 35.7875C199.107 37.1697 201.26 37.9191 203.476 37.9191C205.691 37.9191 207.845 37.1697 209.601 35.7875ZM222.809 8.84735C222.262 7.2074 221.381 5.70488 220.225 4.43896C219.268 3.57008 218.056 3.05293 216.779 2.9695V1.79393C217.038 1.80406 217.297 1.77097 217.545 1.69596C219.739 1.46457 221.949 1.94431 223.862 3.06746C225.489 4.0471 226.924 5.90842 228.073 8.74938L237.357 31.1832L240.611 23.542C242.142 19.9173 245.013 12.8639 249.416 2.18578H252L236.4 39.5101H235.442L222.809 8.84735Z" fill="#038DFF"/>
<path d="M205.582 58.2213C204.95 57.5791 204.242 57.0197 203.476 56.5559L200.796 54.9885C200.13 54.6206 199.518 54.1589 198.978 53.617C198.785 53.4005 198.636 53.1465 198.541 52.8701C198.446 52.5937 198.406 52.3005 198.424 52.008C198.442 51.7155 198.517 51.4297 198.645 51.1675C198.773 50.9054 198.951 50.6723 199.169 50.4821C200.413 49.3065 202.806 49.7964 203.763 50.776C204.524 51.6488 204.993 52.7467 205.103 53.9108H205.486V51.5597C205.486 51.2936 205.425 51.0311 205.309 50.793C205.193 50.555 205.024 50.3479 204.816 50.1882C204.27 49.7788 203.653 49.4796 202.997 49.3065C201.37 48.8167 199.073 48.8167 197.829 49.9923C197.192 50.5924 196.785 51.4049 196.68 52.2843C196.575 53.1638 196.778 54.0528 197.255 54.7925C197.762 55.4882 198.417 56.0575 199.169 56.4579L201.849 58.0253C202.522 58.4218 203.134 58.9169 203.667 59.4948C203.865 59.7221 204.015 59.9884 204.108 60.2774C204.201 60.5664 204.235 60.8719 204.208 61.1749C204.181 61.478 204.094 61.7721 203.952 62.0392C203.809 62.3063 203.615 62.5406 203.38 62.7276C202.623 63.1746 201.752 63.3765 200.88 63.3065C200.009 63.2366 199.179 62.8981 198.499 62.3358C197.669 61.5009 197.159 60.3883 197.063 59.2009H196.681V61.5521C196.7 61.8246 196.779 62.0893 196.912 62.3266C197.044 62.5639 197.227 62.7679 197.446 62.9236C197.95 63.4196 198.58 63.7592 199.265 63.9032C200.215 64.2391 201.23 64.3432 202.227 64.2071C203.224 64.0711 204.176 63.6986 205.007 63.1195C205.637 62.494 206.037 61.6661 206.142 60.7745C206.247 59.8828 206.049 58.9815 205.582 58.2213ZM136.576 61.1602L131.886 49.4045H131.216L125.187 63.9032H126.144L127.866 59.6907H133.896L134.47 61.1602C134.741 62.0818 135.316 62.8785 136.097 63.4134C136.972 63.9059 137.985 64.0787 138.969 63.9032V63.5113C138.474 63.4573 138.008 63.2525 137.629 62.9236C137.15 62.4261 136.79 61.8228 136.576 61.1602ZM128.249 58.8091L130.929 52.4414L133.513 58.8091H128.249ZM126.144 56.5559C127.579 55.0864 127.196 51.1678 125.378 50.3841C124.219 49.7939 122.94 49.4918 121.645 49.5025H116.094V49.8943H116.477C117.147 49.8943 117.53 49.9923 117.721 50.3841C117.944 50.9082 118.043 51.479 118.008 52.0495V64.0991H119.923V58.1233H122.315C123.025 58.1528 123.733 58.0284 124.393 57.7583C125.053 57.4882 125.649 57.0784 126.144 56.5559ZM124.325 55.6742C124.004 56.1949 123.537 56.6045 122.985 56.8498C122.012 57.274 120.919 57.3089 119.923 56.9477V50.3841C120.693 50.083 121.537 50.0443 122.33 50.2737C123.123 50.5032 123.823 50.9886 124.325 51.6577C124.7 52.2571 124.9 52.954 124.9 53.6659C124.9 54.3778 124.7 55.0748 124.325 55.6742ZM113.606 58.6131L113.223 58.3192C113.127 58.5152 112.936 58.8091 112.744 59.2009C112.266 59.8867 111.787 60.4744 111.309 61.0622L107.002 56.262C108.072 55.5893 108.986 54.6868 109.682 53.617C111.692 49.5025 106.523 47.4452 103.748 49.6984C103.213 50.2351 102.853 50.9273 102.716 51.681C102.579 52.4346 102.672 53.2132 102.982 53.9108C103.158 54.4396 103.417 54.9359 103.748 55.3803C104.077 55.8522 104.463 56.28 104.896 56.6538C104.131 57.2416 103.556 57.7315 103.174 58.0253C102.782 58.349 102.457 58.7485 102.217 59.2009C101.859 59.8715 101.741 60.6481 101.88 61.3984C102.02 62.1486 102.409 62.8261 102.982 63.3154C104.801 64.8828 108.533 64.5889 110.352 62.6297L111.213 63.6093H113.606L111.692 61.4541C112.274 60.8879 112.759 60.2256 113.127 59.4948C113.307 59.2129 113.467 58.9182 113.606 58.6131ZM105.279 50.2862C105.426 50.0911 105.614 49.933 105.83 49.8243C106.046 49.7156 106.283 49.659 106.523 49.659C106.764 49.659 107.001 49.7156 107.217 49.8243C107.433 49.933 107.621 50.0911 107.768 50.2862C108.096 50.8487 108.27 51.492 108.27 52.1475C108.27 52.803 108.096 53.4463 107.768 54.0088C107.341 54.5789 106.86 55.104 106.332 55.5762L105.758 54.9885C105.493 54.6229 105.268 54.2286 105.088 53.8129C104.831 53.255 104.714 52.6405 104.748 52.0247C104.781 51.409 104.964 50.8115 105.279 50.2862ZM104.322 59.005C104.651 58.4456 105.072 57.9485 105.566 57.5355L109.969 62.4337C106.906 64.7849 102.408 63.3154 104.322 59.005ZM171.509 60.2785L164.044 50.678C163.698 50.2694 163.275 49.9363 162.8 49.6984C162.285 49.4804 161.73 49.3801 161.173 49.4045H150.741C149.496 49.4045 148.922 49.9923 148.922 51.1679V52.8332H149.305C149.305 51.1678 150.166 50.2862 151.985 50.2862H153.995V63.9032H155.909V50.2862H160.694V49.8943C160.992 49.974 161.259 50.1449 161.46 50.3841C161.788 50.8734 161.955 51.4565 161.939 52.0495V63.9032H162.8V52.3434L171.988 64.0991H172.371V49.4045H171.509V60.2785Z" fill="white"/>
<path d="M194.192 60.9643L191.895 57.1437C194.192 56.6538 195.341 55.3803 195.341 53.421C195.419 52.7905 195.305 52.1505 195.014 51.5891C194.722 51.0278 194.268 50.5726 193.714 50.2862C192.533 49.773 191.264 49.5066 189.981 49.5025H184.43V49.8943H184.813C185.483 49.8943 185.866 49.9923 186.057 50.3841C186.28 50.9082 186.378 51.479 186.344 52.0495V63.9032H188.258V57.2416H189.79L191.895 60.9643C192.423 61.8651 193.067 62.6889 193.809 63.4134C194.192 63.6964 194.627 63.8949 195.089 63.9961C195.55 64.0973 196.027 64.099 196.489 64.0012C196.776 63.9032 196.968 63.9032 197.063 63.8052V63.4134C196.529 63.4109 196.016 63.2008 195.628 62.8256C195.04 62.302 194.553 61.6707 194.192 60.9643ZM188.354 56.164V50.2862C189.351 49.925 190.444 49.9599 191.417 50.3841C191.94 50.63 192.399 50.9993 192.757 51.4617C193.107 51.9797 193.295 52.5949 193.295 53.2251C193.295 53.8553 193.107 54.4705 192.757 54.9884C192.405 55.4568 191.944 55.8274 191.417 56.0661C190.443 56.4874 189.351 56.5224 188.354 56.164ZM183.186 62.4337C182.493 62.8574 181.694 63.0619 180.889 63.0215H177.156V56.9477H182.994V56.0661H177.156V50.3841H181.176C182.994 50.3841 183.856 51.2658 183.856 52.9312H184.239V51.2658C184.239 50.0902 183.664 49.5025 182.42 49.5025H173.232V49.8943H173.615C174.285 49.8943 174.668 49.9923 174.859 50.3841C175.082 50.9082 175.181 51.479 175.146 52.0495V63.8052H182.516C182.865 63.8345 183.214 63.7447 183.508 63.5497C183.803 63.3548 184.026 63.0658 184.143 62.7276L184.908 60.6704L184.526 60.5724C184.266 61.3136 183.801 61.9607 183.186 62.4337ZM147.199 60.9643L144.902 57.1437C147.199 56.6538 148.348 55.3803 148.348 53.421C148.426 52.7905 148.312 52.1505 148.021 51.5891C147.729 51.0278 147.275 50.5726 146.721 50.2862C145.54 49.773 144.271 49.5066 142.988 49.5025H137.437V49.8943H137.82C138.49 49.8943 138.873 49.9923 139.064 50.3841C139.287 50.9082 139.386 51.479 139.351 52.0495V63.8052H141.265V57.1437H142.797L144.902 60.9643C145.43 61.8651 146.074 62.6889 146.817 63.4134C147.194 63.7055 147.63 63.9096 148.093 64.0111C148.556 64.1126 149.035 64.1092 149.496 64.0012C149.784 63.9032 149.975 63.9032 150.071 63.8052V63.4134C149.537 63.4109 149.023 63.2008 148.635 62.8256C148.047 62.302 147.561 61.6707 147.199 60.9643ZM144.328 56.0661C143.355 56.4893 142.262 56.5243 141.265 56.164V50.2862C142.262 49.925 143.355 49.9599 144.328 50.3841C144.852 50.63 145.311 50.9993 145.668 51.4617C146.019 51.9797 146.207 52.5949 146.207 53.2251C146.207 53.8553 146.019 54.4705 145.668 54.9884C145.317 55.4568 144.856 55.8274 144.328 56.0661Z" fill="white"/>
</g>
<defs>
<clipPath id="clip0_796_283">
<rect width="252" height="64" fill="white" transform="translate(0 0.324463)"/>
</clipPath>
</defs>
</svg>
