<svg width="13" height="13" viewBox="0 0 13 13" fill="none" xmlns="http://www.w3.org/2000/svg">
<path d="M12.2417 13C10.6889 13 9.17535 12.6569 7.70106 11.9708C6.22628 11.2847 4.92026 10.3699 3.783 9.22639C2.64526 8.08287 1.73044 6.77372 1.03856 5.29894C0.346185 3.82465 0 2.31111 0 0.758333V0.379167C0 0.246759 0.012037 0.12037 0.0361111 0H4.26111L4.92917 3.62917L2.87083 5.70556C3.37639 6.57222 4.01146 7.38472 4.77606 8.14306C5.54017 8.90139 6.37963 9.55741 7.29444 10.1111L9.38889 8.01667L13 8.73889V12.9639C12.8796 12.9759 12.7532 12.9851 12.6208 12.9913C12.4884 12.9971 12.362 13 12.2417 13ZM2.18472 4.33333L3.37639 3.14167L3.06944 1.44444H1.4625C1.52269 1.93796 1.60694 2.42546 1.71528 2.90694C1.82361 3.38843 1.98009 3.86389 2.18472 4.33333ZM8.64861 10.7972C9.11806 11.0019 9.59665 11.1644 10.0844 11.2847C10.5716 11.4051 11.062 11.4833 11.5556 11.5194V9.93056L9.85833 9.5875L8.64861 10.7972Z" fill="white"/>
</svg>
