<svg width="106" height="29" viewBox="0 0 106 29" fill="none" xmlns="http://www.w3.org/2000/svg">
<g clip-path="url(#clip0_271_59)">
<path d="M10.1456 2.70213H12.4522C13.8568 2.48452 15.2913 2.67584 16.5999 3.25532C18.2415 4.29395 19.4323 5.96604 19.9181 7.91489C20.262 8.93617 20.262 8.93617 21.0916 8.57447H21.739V0.489362H0.0292166V1.91489H0.91946C1.30632 1.91208 1.68887 2.00044 2.03899 2.17349C2.38912 2.34654 2.69793 2.59988 2.94274 2.91489C3.77228 4.31915 3.91391 5.89362 3.91391 14.0851C3.91391 22.7872 3.73182 24.9149 2.94274 26C2.74794 26.279 2.49573 26.508 2.20494 26.6701C1.91416 26.8323 1.59231 26.9232 1.26342 26.9362C0.0292166 27.1702 0.0292166 27.1489 0.0292166 27.7234C-0.0390357 27.9155 -0.0390357 28.1271 0.0292166 28.3191H13.7268C13.8175 28.1312 13.8647 27.9235 13.8647 27.7128C13.8647 27.5021 13.8175 27.2943 13.7268 27.1064C13.3951 27.0093 13.0569 26.9382 12.7152 26.8936C12.3455 26.8474 11.98 26.7691 11.6226 26.6596C11.1108 26.2666 10.7053 25.74 10.4462 25.1318C10.1872 24.5235 10.0836 23.8547 10.1456 23.1915C9.94329 21.7872 9.84212 19.2128 9.84212 17.0851V15.4043H10.6514C11.6597 15.3718 12.6675 15.4864 13.6459 15.7447C14.1146 16.0493 14.5136 16.4589 14.8144 16.9444C15.1152 17.4299 15.3103 17.9792 15.3859 18.5532L15.568 19.2128H16.8022V9.78724H15.6692L15.4871 10.7021C15.4105 11.2891 15.204 11.8489 14.8842 12.3367C14.5644 12.8245 14.1403 13.2266 13.6459 13.5106C13.1671 13.6605 12.6627 13.6968 12.1689 13.617H9.84212V11.3191C9.84212 8.93617 9.96352 3.91489 10.0445 3.12766L10.1456 2.70213ZM104.835 19.5745C103.879 17.9558 102.387 16.766 100.647 16.234C99.3129 15.7955 98.0797 15.0711 97.0253 14.1064C96.788 13.865 96.6105 13.5663 96.5082 13.2362C96.4059 12.9062 96.382 12.5548 96.4385 12.2128C96.4401 11.5419 96.6948 10.8991 97.1467 10.4255C97.4529 10.0882 97.8406 9.84471 98.2682 9.72105C98.6958 9.59738 99.1474 9.5982 99.5746 9.7234C100.459 9.98849 101.259 10.5002 101.889 11.2044C102.52 11.9086 102.957 12.779 103.156 13.7234C103.48 14.6809 103.52 14.6809 104.107 14.4255L104.471 14.2766V8.97872L104.208 8.85106C102.216 8.11538 100.103 7.8114 97.9964 7.95745C96.1823 8.00578 94.4506 8.76453 93.1406 10.0851C92.5464 10.67 92.081 11.3843 91.777 12.1782C91.4729 12.9721 91.3375 13.8262 91.3803 14.6809C91.3917 15.9875 91.8849 17.2385 92.7561 18.1702C93.7189 19.166 94.9003 19.8967 96.1957 20.2979C99.3318 21.5957 100.242 22.4255 100.242 23.9362C100.256 24.5732 100.063 25.1961 99.6951 25.7026C99.3274 26.2091 98.8069 26.5691 98.219 26.7234C97.5125 26.8866 96.7808 26.8866 96.0743 26.7234C95.1493 26.3459 94.3235 25.7416 93.6654 24.9607C93.0073 24.1799 92.536 23.245 92.2908 22.234L92.0278 21.5532H91.6636C91.4895 21.5668 91.3187 21.6099 91.1577 21.6808H90.9554V27.7234H91.2994C92.6663 28.2016 94.0766 28.5296 95.5078 28.7021H97.5311C98.4085 28.7698 99.2906 28.6836 100.141 28.4468C101.221 28.2373 102.23 27.7343 103.067 26.9877C103.905 26.2412 104.542 25.2772 104.916 24.1915C105.157 23.5851 105.281 22.934 105.28 22.2766C105.36 21.3504 105.206 20.4185 104.835 19.5745ZM85.7758 8.57447C84.5634 8.03917 83.257 7.7795 81.9425 7.8125C80.6279 7.84551 79.3348 8.17043 78.1481 8.76596C77.0325 9.33975 76.0438 10.1531 75.2458 11.1536C74.4477 12.1541 73.858 13.3195 73.5147 14.5745C73.0771 15.9435 72.8917 17.3877 72.9685 18.8298C72.954 19.6144 73.015 20.3985 73.1506 21.1702C73.4773 23.0677 74.3484 24.8145 75.6468 26.1762C76.9453 27.5378 78.6088 28.4489 80.4141 28.7872C81.5897 28.943 82.7793 28.943 83.9549 28.7872C85.1748 28.5611 86.3423 28.0917 87.3944 27.4043C88.2648 26.8912 89.0014 26.1604 89.5391 25.2766C89.5046 25.1379 89.4438 25.008 89.3604 24.8947C89.2769 24.7813 89.1726 24.6869 89.0535 24.617C88.8226 24.705 88.6046 24.8267 88.4061 24.9787C87.3997 25.6762 86.2114 26.0258 85.007 25.9787C84.2076 26.0355 83.4061 25.9047 82.6608 25.5955C81.9154 25.2864 81.2447 24.8068 80.6974 24.1915C80.274 23.7779 79.9245 23.2879 79.6655 22.7447C79.0368 21.422 78.698 19.9679 78.6741 18.4894V17.6596H89.8831V17.234C89.9078 16.8089 89.9078 16.3826 89.8831 15.9574C89.8791 14.4551 89.4969 12.9807 88.7755 11.6839C88.0541 10.3872 87.0192 9.31437 85.7758 8.57447ZM80.1309 15.9362H78.7146V14.6809C79.1799 11.4681 80.3332 9.55319 81.7495 9.55319C83.1658 9.55319 83.7728 11.4468 84.0358 14.9149V15.8936H82.8218L80.1309 15.9362ZM51.0361 7.87234C50.337 7.84383 49.642 7.99731 49.0128 8.31915C47.6454 9.0175 46.5408 10.179 45.8767 11.617L45.6137 12.1277V7.87234H45.5126C45.2698 7.87234 37.7836 9.44681 37.5408 9.55319C37.298 9.65957 37.379 9.68085 37.379 10.0638C37.379 10.4468 37.379 10.5106 37.5408 10.5319L38.3299 10.7021C38.5509 10.7078 38.7678 10.7663 38.9641 10.8733C39.1604 10.9802 39.331 11.1326 39.4629 11.3191C39.9688 12.0213 40.0699 13.2553 40.0699 18.5106C40.1699 20.8765 40.0751 23.247 39.7867 25.5957C39.7188 25.9499 39.548 26.2731 39.2979 26.5209C39.0479 26.7686 38.7308 26.9286 38.3906 26.9787L37.7027 27.1277H37.4397V27.7234C37.3663 27.9218 37.3663 28.142 37.4397 28.3404H48.7498V27.7234C48.789 27.5198 48.789 27.31 48.7498 27.1064C48.0688 27.0785 47.3916 26.9859 46.7265 26.8298C46.3643 26.6306 46.068 26.3206 45.8766 25.9408C45.6852 25.561 45.6076 25.1292 45.6542 24.7021C45.4923 23.4681 45.4114 19.8511 45.4519 17.0851C45.4923 14.3191 45.4519 14.1489 45.6744 13.9574C46.3514 13.4116 47.1892 13.1329 48.0416 13.1702C48.8451 13.1886 49.634 13.3997 50.3482 13.7872C50.5958 13.9318 50.8614 14.0392 51.1373 14.1064C51.1373 14.1064 53.1605 8.95745 53.1605 8.7234C52.9016 8.40701 52.5718 8.1635 52.2008 8.0149C51.8299 7.8663 51.4296 7.8173 51.0361 7.87234ZM37.3992 16.8085C37.3286 15.2881 36.9135 13.8074 36.1885 12.4899C35.4635 11.1723 34.4496 10.0561 33.2312 9.23404C31.7834 8.41265 30.1725 7.95976 28.528 7.91172C26.8836 7.86368 25.2513 8.22185 23.7623 8.95745C21.657 10.1249 20.0675 12.1093 19.3313 14.4894C18.5709 17.1541 18.5709 19.9949 19.3313 22.6596C19.7299 24.1159 20.475 25.4413 21.4962 26.5106C22.768 27.8156 24.408 28.6518 26.17 28.8936C27.3011 28.9931 28.438 28.9931 29.5691 28.8936C29.9853 28.827 30.3974 28.7347 30.8033 28.617C32.4502 28.1326 33.9318 27.1649 35.0748 25.8273C36.2178 24.4897 36.9749 22.8374 37.2576 21.0638C37.4596 19.6558 37.5071 18.228 37.3992 16.8085ZM28.9824 27.4468C26.9591 28.0851 25.4416 26.0213 24.9358 21.6808C24.75 19.4084 24.75 17.1235 24.9358 14.8511C25.3404 11.3617 26.3723 9.59575 27.9707 9.59575C28.2932 9.57473 28.6158 9.63523 28.9115 9.77219C29.2071 9.90915 29.4673 10.1186 29.6703 10.383C31.0259 11.8085 31.6935 14.6383 31.6935 18.8936C31.8619 21.3019 31.5019 23.7186 30.6414 25.9574C30.2615 26.6104 29.6736 27.1004 28.9824 27.3404V27.4468ZM65.4014 8.29787C64.8305 8.22062 64.2525 8.22062 63.6816 8.29787C62.5857 8.29689 61.5024 8.5436 60.5051 9.02128L59.8778 9.29787V4.68085C59.9874 3.1227 59.9874 1.55815 59.8778 0C59.635 0 51.9061 1.55319 51.7847 1.61702C51.725 1.77411 51.725 1.9493 51.7847 2.10638C51.7847 2.55319 51.7847 2.53191 52.6952 2.74468C52.9508 2.80497 53.1964 2.90538 53.4236 3.04255C53.8185 3.4331 54.0814 3.94859 54.1722 4.51064C54.4026 6.12984 54.4771 7.76933 54.3948 9.40426V28.0851L54.941 28.2128C55.7503 28.4043 58.0367 28.8085 58.7853 28.8936C60.2801 29.0186 61.7821 29.0186 63.2769 28.8936C64.9362 28.7154 66.5177 28.0644 67.8512 27.0109C69.1846 25.9574 70.2194 24.5412 70.844 22.9149C71.2164 21.8711 71.4743 20.7861 71.6129 19.6809C71.7333 18.1837 71.6858 16.6769 71.4712 15.1915C71.2542 13.5264 70.5553 11.9719 69.4695 10.7387C68.3837 9.50548 66.9634 8.65335 65.4014 8.29787ZM60.1004 27.0851C60.1004 26.8085 59.8981 17.4894 59.9385 13.766V10.8511L60.5253 10.7021C60.9212 10.6425 61.3231 10.6425 61.719 10.7021C62.1568 10.6553 62.5972 10.7599 62.9735 11C63.729 11.5484 64.3565 12.2699 64.8086 13.1101C65.2607 13.9504 65.5256 14.8875 65.5835 15.8511C65.7309 17.4004 65.7309 18.9613 65.5835 20.5106C65.4624 22.7625 64.6373 24.9091 63.2365 26.617C62.8389 27.0142 62.3396 27.2804 61.8 27.383C61.3916 27.4577 60.9741 27.4577 60.5658 27.383C60.1813 27.383 60.1813 27.2553 60.1813 27.0851H60.1004Z" fill="white"/>
</g>
<defs>
<clipPath id="clip0_271_59">
<rect width="105.291" height="29" fill="white" transform="translate(0.0090332)"/>
</clipPath>
</defs>
</svg>
