<svg width="83" height="40" viewBox="0 0 83 40" fill="none" xmlns="http://www.w3.org/2000/svg">
<path d="M9.4786 37.5738H6.142L4.1002 34.2295L3.4362 34.918V37.5902H0.6474V29.1639H3.4362V31.8852L5.8266 29.1639H9.0968L6.0258 32.2951L9.4786 37.5738ZM13.2136 34.459C13.2136 34.082 13.114 33.7213 12.9314 33.4098C12.7488 33.0984 12.4666 32.9508 12.0848 32.9508C11.7362 32.9508 11.4872 33.0984 11.3046 33.4098C11.122 33.7213 11.039 34.0656 11.039 34.459C11.039 34.8689 11.1386 35.2623 11.3212 35.623C11.5038 35.9836 11.786 36.1639 12.1844 36.1639C12.5496 36.1639 12.8152 35.9836 12.9812 35.6393C13.1306 35.2787 13.2136 34.8852 13.2136 34.459ZM15.1558 36.3607C14.4918 37.3279 13.363 37.7705 12.201 37.7705C10.9892 37.7705 9.8272 37.3279 9.1632 36.3115C8.549 35.3934 8.466 33.8852 8.9806 32.9016C9.379 32.1475 10.1094 31.6066 10.956 31.377C11.8856 31.1311 12.8816 31.1803 13.778 31.541C14.608 31.8852 15.2222 32.5738 15.5044 33.3934C15.7866 34.3115 15.687 35.5738 15.1558 36.3607ZM36.7856 33.8361C36.7026 33.4426 36.5532 33.1639 36.354 33C36.1548 32.8361 35.9058 32.7705 35.5904 32.7705C35.2916 32.7705 35.0592 32.8525 34.8766 33C34.694 33.1475 34.5778 33.4262 34.4782 33.8361H36.7856ZM39.1594 35.0328H34.4948C34.4948 35.2295 34.528 35.3934 34.5944 35.541C34.7936 35.9836 35.1588 36.2787 35.6734 36.2787C36.0552 36.2787 36.4868 36.1311 36.5698 35.7213H38.9602C38.8772 36.2951 38.4954 36.8197 38.014 37.1475C37.5326 37.4918 36.935 37.6721 36.3374 37.7377C35.5738 37.8361 34.7106 37.8033 33.9968 37.5082C33.1834 37.1803 32.5692 36.5574 32.2372 35.7541C31.9384 34.9672 31.9218 34.1148 32.2206 33.3279C32.5194 32.5082 33.1668 31.8852 33.9802 31.541C34.9762 31.1311 36.3706 31.1639 37.3334 31.6393C38.18 32.0656 38.7776 32.7705 39.01 33.6721C39.1428 34.1311 39.1926 34.5574 39.1594 35.0328ZM45.8492 36.3607C45.3844 37.2295 44.5378 37.7705 43.5252 37.7705C42.7948 37.7705 42.3134 37.541 41.8154 37.0328V39.6721H39.3254V31.459H41.5332V32.377C42.0146 31.4426 43.1932 31.0984 44.1394 31.3279C45.1852 31.5902 45.8824 32.4426 46.1314 33.4098C46.3638 34.3279 46.2808 35.5574 45.8492 36.3607ZM43.824 34.377C43.824 34.1148 43.741 33.8361 43.5584 33.5246C43.3758 33.2131 43.1268 33.0656 42.7948 33.0656C42.4628 33.0656 42.2138 33.2131 42.0312 33.4918C41.8486 33.7705 41.7656 34.0656 41.7656 34.3607C41.7656 34.7213 41.832 35.0656 41.9814 35.3934C42.1142 35.7049 42.3964 35.8689 42.8114 35.8689C43.2098 35.8689 43.4754 35.7049 43.6248 35.377C43.741 35.0656 43.824 34.7213 43.824 34.377ZM51.6094 37.5082C50.6466 37.8361 49.3352 37.9016 48.3724 37.4918C47.7748 37.2459 47.227 36.8197 46.895 36.2623C46.563 35.7213 46.397 35.1148 46.397 34.4754C46.397 34.0492 46.48 33.6393 46.6294 33.2459C46.978 32.3607 47.5756 31.8689 48.4388 31.5082C49.4348 31.1148 50.9122 31.1148 51.8418 31.6229C52.7382 32.0984 53.203 32.7705 53.3358 33.7541H50.796C50.7462 33.459 50.6632 33.2623 50.547 33.1148C50.1984 32.6721 49.385 32.8852 49.1194 33.3279C48.7874 33.9016 48.7376 34.7377 48.9368 35.3607C49.0696 35.7705 49.5178 36.1148 49.966 36.1148C50.5802 36.1148 50.713 35.7049 50.879 35.1803H53.3358C53.3192 36.2459 52.6884 37.1311 51.6094 37.5082ZM57.8842 35.1803C57.8842 35.0656 57.8676 34.9672 57.851 34.9016C57.685 35 57.4194 35.082 57.0542 35.1475C56.772 35.1967 56.4898 35.2623 56.2408 35.3934C55.8922 35.5574 55.9088 36.0492 56.2076 36.2459C56.5562 36.459 57.1538 36.4426 57.4526 36.1475C57.7348 35.8689 57.8842 35.5574 57.8842 35.1803ZM60.6398 37.5738H58.1L58.0004 36.918C57.8178 37.1475 57.4028 37.3443 56.9878 37.5082C56.7886 37.5902 56.5728 37.6393 56.357 37.6885C56.1412 37.7213 55.9088 37.7377 55.6764 37.7377C55.2448 37.7377 54.8464 37.6557 54.4978 37.5082C54.1492 37.3607 53.867 37.1311 53.6844 36.8197C53.5184 36.4754 53.4354 36.1311 53.4354 35.7705C53.4354 35.3279 53.6512 34.9508 53.9334 34.6229C54.0994 34.4262 54.2654 34.3279 54.5642 34.2131C54.697 34.1639 54.8464 34.1148 54.9792 34.082C55.112 34.0492 55.2448 34 55.361 33.9836L56.4068 33.8361C56.855 33.7705 57.27 33.7213 57.4692 33.6557C57.5854 33.623 57.7182 33.4918 57.7846 33.4098C57.851 33.3279 57.8344 33.2459 57.8344 33.1639C57.8344 33.0492 57.7846 32.9508 57.6684 32.8689C57.5522 32.7869 57.3862 32.7541 57.187 32.7541C56.938 32.7541 56.6226 32.7869 56.4732 32.8689C56.3238 32.9508 56.2242 33.0984 56.1744 33.3115H53.8172C53.9002 32.918 53.8836 32.6721 53.9998 32.4262C54.116 32.1803 54.2986 31.9672 54.5476 31.8033C54.7966 31.6229 55.1286 31.4918 55.5768 31.4098C55.7926 31.3607 56.0416 31.3443 56.3238 31.3115C56.606 31.2951 56.9214 31.2787 57.2866 31.2787C58.1498 31.2787 58.7806 31.377 59.2122 31.5738C59.6438 31.7705 59.926 31.9344 60.0422 32.2295C60.175 32.5246 60.258 32.918 60.2912 33.3934V36.6229C60.2912 36.9508 60.424 37.1967 60.673 37.3607L60.6398 37.5738ZM67.562 37.5738H65.1052V35.2951H63.2792V37.5738H60.8556V31.459H63.2792V33.5082H65.072V31.4754H67.562V37.5738ZM72.2764 33.2623V37.5738H69.8196V33.2623H67.6948V31.459H74.4012V33.2623H72.2764ZM82.3526 35.623C82.3526 36.1639 82.087 36.6393 81.672 36.9672C81.1242 37.4098 80.3606 37.5738 79.68 37.5738H75.8786V33.2623H74.451V31.459H78.2358V33.6066H79.5306C80.2444 33.6066 81.0578 33.7541 81.6222 34.2131C82.0704 34.5738 82.3526 35.0656 82.3526 35.623ZM79.9124 35.6393C79.9124 35.2459 79.6966 35.0984 79.3314 35.0492C79.2484 35.0492 79.099 35.0492 78.8832 35.0328C78.6674 35.0164 78.3686 35.0164 78.2524 35.0164V36.1967L78.8666 36.2131C79.0326 36.2131 79.1654 36.2131 79.2816 36.1967C79.6634 36.1639 79.9124 36.0656 79.9124 35.6393ZM20.418 37.5738H19.2228L17.9114 33.4918L18.1106 35.0984V37.5738H15.936V31.4262H18.7248L19.8038 34.8197L20.8828 31.4262H23.6716V37.5738H21.497V35.0984L21.6962 33.4918L20.418 37.5738ZM28.5686 37.5738H27.3734L26.062 33.4918L26.2612 35.0984V37.5738H24.0866V31.4262H26.892L27.971 34.8197L29.05 31.4262H31.8388V37.5738H29.6642V35.0984L29.8634 33.4918L28.5686 37.5738Z" fill="white"/>
<path fill-rule="evenodd" clip-rule="evenodd" d="M41.5 1C34.0134 1 27.8548 7.08197 27.8548 14.4754C27.8548 21.8689 34.0134 27.9508 41.5 27.9508C48.9866 27.9508 55.1452 21.8689 55.1452 14.4754C55.1452 7.03279 49.0198 1 41.5 1ZM29.8302 14.4754C29.8302 8.14754 35.0924 2.95082 41.5 2.95082C43.2596 2.95082 44.9362 3.34426 46.4302 4.03279C46.1314 4.2623 45.6832 4.78689 45.3014 5.08197C44.1394 6 41.4502 7.88525 41.085 4.57377C40.8194 4.52459 39.5578 4.85246 39.3586 5.01639C39.2424 5.11475 38.595 6.36066 38.4788 6.54098C37.682 7.88525 34.8434 11.918 35.1588 13.0656C35.2086 13.2295 35.3248 13.1803 35.3248 13.1803L38.0804 12.0984C38.7942 11.8197 39.3254 6.85246 40.006 5.95082C40.2384 5.65574 40.2384 5.83607 40.3048 6.06557C40.5372 7.13115 41.3174 9.04918 42.7284 8.88525C43.4422 8.80328 44.4382 8.27869 44.6374 8.11475C44.7536 8.01639 44.8532 8.11475 44.82 8.19672C44.8034 8.2459 44.737 8.34426 44.737 8.34426C42.9774 10.8525 39.3586 11.7869 37.0512 14.9836C35.9058 16.5738 35.0924 18.4262 34.9264 20.3771C34.777 22.0984 35.2418 23.9016 36.5366 24.9016C32.6024 23.0492 29.8302 19.0492 29.8302 14.4754ZM41.5 26C40.587 26 39.6906 25.8852 38.8274 25.6885C44.1726 25.918 50.0324 17.4918 47.7748 12.8689C47.1108 11.5246 45.4342 11.5246 44.2556 12.1148C41.6494 13.4098 39.3752 17.6557 39.2922 20.459C39.2756 21.1311 39.3088 21.8033 39.4582 22.4426C39.923 24.2787 41.5332 23.6721 41.5996 22.6721C39.9562 22.0656 41.1846 13.6393 43.8074 13.1475C44.322 13.0492 44.7204 13.7213 44.9196 14.0984C46.3472 17 43.2762 26.8525 39.0764 24.5574C38.3626 24.1639 38.0306 23.2459 37.8646 22.5246C37.2836 19.6721 38.346 16.2951 40.255 14.1148C41.5 12.6885 42.994 11.5246 44.1726 10.0656C44.903 9.14754 45.5006 8.27869 46.1314 7.29508C46.3638 6.91803 46.7954 6.22951 47.0444 5.5082C47.2104 5.03279 47.2104 4.68852 47.1606 4.39344C50.7462 6.36066 53.1698 10.1311 53.1698 14.4754C53.1698 20.8033 47.9076 26 41.5 26Z" fill="white"/>
</svg>
