<svg width="341" height="85" viewBox="0 0 341 85" fill="none" xmlns="http://www.w3.org/2000/svg">
<g clip-path="url(#clip0_253_245)">
<path d="M68.8994 12.3603C67.9025 12.3934 66.9082 12.4803 65.9206 12.6205C64.698 12.8802 63.5199 13.3186 62.4239 13.9216C61.1048 14.7225 59.9239 15.7332 58.9271 16.9141C57.647 18.5143 56.6404 20.317 55.9484 22.2486L53.8762 27.3228H39.112L27.5856 0H25.2545L8.41815 41.1143C7.7706 42.5455 7.25256 43.7165 6.73452 44.7574C6.2694 45.6759 5.65682 46.5111 4.92138 47.2295C4.27066 47.8247 3.52682 48.3082 2.71971 48.6607C1.83702 48.9681 0.925906 49.1861 0 49.3112L0 50.7424C1.99337 51.2456 4.07411 51.2901 6.08697 50.8725C7.3096 50.6128 8.48773 50.1745 9.58375 49.5714C10.9028 48.7705 12.0837 47.7599 13.0805 46.5789C14.3605 44.9787 15.3672 43.176 16.0592 41.2445L18.0019 36.3003H32.766L44.2924 63.6231H46.6236L63.4599 22.5088C64.1075 21.0776 64.6255 19.9066 65.1436 18.8658C65.6087 17.9473 66.2213 17.1121 66.9567 16.3937C67.6074 15.7985 68.3513 15.3149 69.1584 14.9625C70.0411 14.655 70.9522 14.4371 71.8781 14.312V12.7507C70.9111 12.4672 69.9064 12.3355 68.8994 12.3603ZM28.7512 10.799L35.8743 27.3228H32.507L27.1971 14.5722L28.7512 10.799ZM38.335 33.0476H34.8382L33.6726 30.4454H37.1694L38.335 33.0476ZM19.556 33.0476L25.5135 18.7357L31.6005 33.0476H19.556ZM43.2564 52.694L36.1333 36.1702H39.5006L44.8105 48.9209L43.2564 52.694ZM46.4941 44.7574L40.4071 30.4454H52.4516L46.4941 44.7574ZM114.098 49.8316C111.767 48.5305 109.954 45.9284 108.529 42.1552L106.716 37.3412H86.1242L80.1667 51.3929H76.7995L97.5211 2.60217H99.7228L115.912 42.1552C116.652 44.3333 117.844 46.3288 119.408 48.0101C120.703 49.1641 122.344 49.8509 124.071 49.9617V51.3929C122.389 51.8113 120.64 51.8887 118.928 51.6207C117.216 51.3526 115.574 50.7444 114.098 49.8316ZM87.2898 34.4788H105.292L96.485 13.0109L87.2898 34.4788ZM150.75 49.8316C148.092 47.4363 145.897 44.5694 144.274 41.3746L136.892 28.754H131.712V51.2628H125.107V11.4496C125.206 9.52868 124.85 7.61156 124.071 5.85489C123.423 4.68391 121.998 4.03337 119.926 4.03337H118.502V2.60217H137.669C142.051 2.53639 146.391 3.47061 150.361 5.33446C154.117 7.15598 156.06 10.6689 156.06 15.8733C156.06 22.3787 152.174 26.6723 144.274 28.4938L152.045 41.5047C153.315 43.894 154.979 46.0497 156.966 47.88C158.388 49.0931 160.157 49.822 162.017 49.9617V51.3929C161.41 51.6941 160.75 51.871 160.074 51.9134C158.463 52.2719 156.793 52.2714 155.182 51.9117C153.571 51.552 152.058 50.842 150.75 49.8316ZM142.202 25.2411C143.995 24.4927 145.559 23.2807 146.735 21.7282C149.325 18.7357 149.196 12.8808 146.735 9.88826C145.531 8.36422 143.975 7.15836 142.202 6.37533C138.446 4.68391 135.597 5.07424 131.712 5.985V25.6314C135.597 26.4121 138.446 26.8024 142.202 25.2411ZM170.565 49.5714C167.049 47.2878 164.261 44.0358 162.535 40.2036C160.678 36.0509 159.718 31.55 159.718 26.9976C159.718 22.4451 160.678 17.9442 162.535 13.7915C164.292 9.97912 167.073 6.73485 170.565 4.4237C177.17 -0.130108 188.049 -0.130108 194.654 4.4237C198.17 6.70727 200.957 9.95934 202.683 13.7915C204.54 17.9442 205.5 22.4451 205.5 26.9976C205.5 31.55 204.54 36.0509 202.683 40.2036C200.927 44.016 198.146 47.2603 194.654 49.5714C187.919 54.1252 177.17 54.1252 170.565 49.5714ZM190.898 47.0993C193.391 45.022 195.235 42.2663 196.208 39.1627C198.668 32.6573 198.668 21.3378 196.208 14.8324C195.235 11.7288 193.391 8.97311 190.898 6.89576C188.521 5.05997 185.607 4.06468 182.609 4.06468C179.611 4.06468 176.697 5.05997 174.321 6.89576C171.828 8.97311 169.984 11.7288 169.011 14.8324C166.55 21.3378 166.55 32.6573 169.011 39.1627C169.984 42.2663 171.828 45.022 174.321 47.0993C176.697 48.9351 179.611 49.9304 182.609 49.9304C185.607 49.9304 188.521 48.9351 190.898 47.0993ZM214.469 12.6205V51.523H211.49V11.4496C211.609 9.50317 211.06 7.57468 209.936 5.985C208.9 4.68391 207.216 4.03337 204.755 4.03337H203.978V2.60217H208.77C210.734 2.54692 212.684 2.94764 214.469 3.77315C216.098 4.55387 217.519 5.71352 218.613 7.15598L244.386 39.2928V2.60217H247.364V52.1736H245.94L214.469 12.6205ZM263.294 49.5714C259.778 47.2878 256.99 44.0358 255.264 40.2036C253.407 36.0509 252.447 31.55 252.447 26.9976C252.447 22.4451 253.407 17.9442 255.264 13.7915C257.021 9.97912 259.802 6.73485 263.294 4.4237C269.899 -0.130108 280.778 -0.130108 287.383 4.4237C290.899 6.70727 293.686 9.95934 295.412 13.7915C297.269 17.9442 298.229 22.4451 298.229 26.9976C298.229 31.55 297.269 36.0509 295.412 40.2036C293.656 44.016 290.875 47.2603 287.383 49.5714C280.778 54.1252 270.029 54.1252 263.294 49.5714ZM283.627 47.0993C286.12 45.022 287.964 42.2663 288.937 39.1627C291.398 32.6573 291.398 21.3378 288.937 14.8324C287.964 11.7288 286.12 8.97311 283.627 6.89576C281.25 5.05997 278.336 4.06468 275.338 4.06468C272.34 4.06468 269.426 5.05997 267.05 6.89576C264.557 8.97311 262.713 11.7288 261.74 14.8324C259.279 21.3378 259.279 32.6573 261.74 39.1627C262.713 42.2663 264.557 45.022 267.05 47.0993C269.426 48.9351 272.34 49.9304 275.338 49.9304C278.336 49.9304 281.25 48.9351 283.627 47.0993ZM301.499 11.3195C300.759 9.14141 299.567 7.14587 298.003 5.46456C296.708 4.31059 295.067 3.62375 293.34 3.51293V1.95163C293.69 1.96509 294.04 1.92115 294.376 1.82152C297.345 1.51421 300.335 2.15136 302.924 3.64304C305.126 4.94413 307.068 7.4162 308.622 11.1893L321.185 40.9842L325.588 30.8358C327.66 26.0217 331.546 16.6539 337.503 2.47207H341L319.89 52.0435H318.595L301.499 11.3195Z" fill="#038DFF"/>
<path d="M278.188 76.8942C277.333 76.0413 276.376 75.2984 275.338 74.6824L271.712 72.6007C270.811 72.1121 269.983 71.499 269.251 70.7791C268.99 70.4916 268.789 70.1543 268.661 69.7872C268.532 69.4201 268.478 69.0307 268.502 68.6422C268.526 68.2537 268.628 67.8741 268.801 67.526C268.975 67.1778 269.216 66.8682 269.51 66.6157C271.194 65.0544 274.432 65.7049 275.727 67.006C276.756 68.1651 277.391 69.6234 277.54 71.1695H278.058V68.0469C278.058 67.6934 277.976 67.3447 277.819 67.0286C277.661 66.7124 277.433 66.4374 277.152 66.2253C276.413 65.6816 275.578 65.2842 274.691 65.0544C272.489 64.4038 269.381 64.4038 267.697 65.9651C266.836 66.7622 266.284 67.8412 266.142 69.0092C266 70.1772 266.276 71.358 266.92 72.3404C267.607 73.2644 268.492 74.0205 269.51 74.5523L273.137 76.634C274.047 77.1606 274.876 77.8181 275.597 78.5857C275.865 78.8875 276.068 79.2413 276.194 79.6251C276.32 80.0089 276.366 80.4146 276.33 80.8171C276.293 81.2195 276.175 81.6102 275.982 81.9649C275.789 82.3196 275.526 82.6308 275.209 82.8792C274.184 83.4729 273.005 83.741 271.826 83.6481C270.647 83.5552 269.524 83.1057 268.604 82.3588C267.48 81.25 266.791 79.7723 266.661 78.1953H266.143V81.3179C266.17 81.68 266.276 82.0315 266.456 82.3466C266.635 82.6618 266.882 82.9327 267.179 83.1395C267.861 83.7982 268.714 84.2494 269.64 84.4405C270.926 84.8867 272.299 85.0249 273.648 84.8442C274.997 84.6635 276.285 84.1689 277.411 83.3997C278.263 82.569 278.805 81.4695 278.946 80.2852C279.087 79.101 278.82 77.9039 278.188 76.8942ZM184.811 80.7975L178.465 65.1845H177.558L169.399 84.4405H170.694L173.025 78.8459H181.185L181.962 80.7975C182.327 82.0216 183.106 83.0796 184.163 83.79C185.347 84.4441 186.718 84.6736 188.049 84.4405V83.9201C187.38 83.8483 186.748 83.5764 186.235 83.1395C185.588 82.4788 185.101 81.6775 184.811 80.7975ZM173.543 77.6749L177.17 69.2178L180.667 77.6749H173.543ZM170.694 74.6824C172.637 72.7308 172.119 67.5264 169.658 66.4855C168.09 65.7016 166.359 65.3004 164.607 65.3146H157.096V65.835H157.614C158.52 65.835 159.038 65.9651 159.297 66.4855C159.599 67.1816 159.732 67.9396 159.686 68.6974V84.7008H162.276V76.7641H165.514C166.475 76.8033 167.433 76.6381 168.325 76.2794C169.218 75.9206 170.025 75.3764 170.694 74.6824ZM168.234 73.5114C167.799 74.2029 167.167 74.747 166.42 75.0727C165.104 75.6361 163.625 75.6825 162.276 75.2028V66.4855C163.318 66.0856 164.461 66.0342 165.534 66.3389C166.607 66.6436 167.554 67.2883 168.234 68.177C168.741 68.9731 169.011 69.8987 169.011 70.8442C169.011 71.7897 168.741 72.7153 168.234 73.5114ZM153.728 77.4147L153.21 77.0244C153.081 77.2846 152.822 77.6749 152.563 78.1953C151.915 79.1061 151.268 79.8867 150.62 80.6674L144.792 74.2921C146.24 73.3987 147.477 72.2001 148.419 70.7791C151.138 65.3146 144.145 62.5823 140.389 65.5748C139.665 66.2876 139.178 67.2069 138.992 68.2079C138.807 69.2089 138.933 70.2429 139.353 71.1695C139.591 71.8718 139.941 72.5308 140.389 73.1211C140.835 73.7478 141.357 74.316 141.943 74.8125C140.907 75.5932 140.13 76.2437 139.612 76.634C139.082 77.0639 138.642 77.5944 138.317 78.1953C137.834 79.086 137.673 80.1174 137.862 81.1138C138.051 82.1102 138.578 83.01 139.353 83.6599C141.814 85.7416 146.864 85.3513 149.325 82.7491L150.491 84.0502H153.728L151.138 81.1878C151.926 80.4359 152.583 79.5563 153.081 78.5857C153.324 78.2112 153.54 77.8199 153.728 77.4147ZM142.461 66.3554C142.659 66.0963 142.914 65.8864 143.206 65.742C143.498 65.5976 143.819 65.5225 144.145 65.5225C144.47 65.5225 144.791 65.5976 145.083 65.742C145.375 65.8864 145.63 66.0963 145.828 66.3554C146.273 67.1025 146.508 67.9569 146.508 68.8275C146.508 69.6981 146.273 70.5525 145.828 71.2996C145.251 72.0568 144.601 72.7541 143.886 73.3813L143.109 72.6007C142.751 72.1151 142.447 71.5915 142.202 71.0393C141.855 70.2984 141.696 69.4822 141.742 68.6645C141.787 67.8467 142.034 67.0531 142.461 66.3554ZM141.166 77.9351C141.611 77.1922 142.181 76.532 142.85 75.9835L148.807 82.4889C144.663 85.6115 138.576 83.6599 141.166 77.9351ZM232.082 79.6265L221.98 66.8759C221.512 66.3332 220.939 65.8907 220.297 65.5748C219.6 65.2852 218.848 65.152 218.095 65.1845H203.978C202.295 65.1845 201.518 65.9651 201.518 67.5264V69.7383H202.036C202.036 67.5264 203.201 66.3554 205.662 66.3554H208.382V84.4405H210.972V66.3554H217.447V65.835C217.851 65.9408 218.212 66.1678 218.483 66.4855C218.927 67.1354 219.154 67.9098 219.131 68.6974V84.4405H220.297V69.0877L232.73 84.7008H233.248V65.1845H232.082V79.6265Z" fill="white" fill-opacity="0.6"/>
<path d="M262.776 80.5373L259.668 75.4631C262.776 74.8125 264.33 73.1211 264.33 70.5189C264.436 69.6815 264.282 68.8315 263.887 68.0859C263.493 67.3404 262.879 66.7358 262.128 66.3554C260.531 65.6739 258.813 65.32 257.077 65.3146H249.566V65.835H250.084C250.991 65.835 251.509 65.9651 251.768 66.4856C252.069 67.1816 252.202 67.9396 252.156 68.6974V84.4406H254.746V75.5932H256.818L259.668 80.5373C260.381 81.7337 261.253 82.8278 262.258 83.79C262.775 84.166 263.365 84.4295 263.989 84.5639C264.614 84.6984 265.259 84.7006 265.884 84.5707C266.273 84.4406 266.532 84.4406 266.661 84.3104V83.79C265.939 83.7867 265.244 83.5077 264.719 83.0094C263.924 82.314 263.265 81.4756 262.776 80.5373ZM254.876 74.162V66.3554C256.225 65.8757 257.704 65.9222 259.02 66.4856C259.729 66.8121 260.35 67.3025 260.833 67.9167C261.308 68.6047 261.562 69.4217 261.562 70.2587C261.562 71.0957 261.308 71.9127 260.833 72.6007C260.358 73.2227 259.734 73.7148 259.02 74.0319C257.703 74.5915 256.225 74.6379 254.876 74.162ZM247.882 82.4889C246.946 83.0516 245.864 83.3232 244.774 83.2696H239.723V75.2028H247.623V74.0319H239.723V66.4856H245.163C247.623 66.4856 248.789 67.6565 248.789 69.8684H249.307V67.6565C249.307 66.0952 248.53 65.3146 246.846 65.3146H234.413V65.835H234.931C235.838 65.835 236.356 65.9651 236.615 66.4856C236.917 67.1816 237.05 67.9396 237.003 68.6974V84.3104H246.976C247.448 84.3493 247.921 84.23 248.319 83.9711C248.717 83.7123 249.019 83.3284 249.177 82.8792L250.213 80.147L249.695 80.0169C249.345 81.0012 248.714 81.8607 247.882 82.4889ZM199.186 80.5373L196.078 75.4631C199.186 74.8125 200.741 73.1211 200.741 70.5189C200.847 69.6815 200.692 68.8315 200.298 68.0859C199.904 67.3404 199.289 66.7358 198.539 66.3554C196.941 65.6739 195.224 65.32 193.488 65.3146H185.976V65.835H186.494C187.401 65.835 187.919 65.9651 188.178 66.4856C188.48 67.1816 188.613 67.9396 188.567 68.6974V84.3104H191.157V75.4631H193.229L196.078 80.5373C196.792 81.7337 197.663 82.8278 198.668 83.79C199.18 84.1781 199.769 84.449 200.395 84.5839C201.022 84.7187 201.67 84.7142 202.295 84.5707C202.683 84.4406 202.942 84.4406 203.072 84.3104V83.79C202.349 83.7867 201.655 83.5077 201.129 83.0094C200.334 82.314 199.675 81.4756 199.186 80.5373ZM195.301 74.0319C193.984 74.594 192.506 74.6404 191.157 74.162V66.3554C192.506 65.8757 193.985 65.9222 195.301 66.4856C196.01 66.8121 196.631 67.3025 197.114 67.9167C197.589 68.6047 197.843 69.4217 197.843 70.2587C197.843 71.0957 197.589 71.9127 197.114 72.6007C196.639 73.2227 196.015 73.7148 195.301 74.0319Z" fill="white" fill-opacity="0.6"/>
</g>
<defs>
<clipPath id="clip0_253_245">
<rect width="341" height="85" fill="white"/>
</clipPath>
</defs>
</svg>
