<svg width="367" height="94" viewBox="0 0 367 94" fill="none" xmlns="http://www.w3.org/2000/svg">
<path d="M125.997 88.3946C125.988 87.8223 126.107 87.2553 126.345 86.7351C126.588 86.2233 126.904 85.7497 127.282 85.3291C127.687 84.8818 128.136 84.4774 128.622 84.1222C129.127 83.7199 129.644 83.3337 130.173 82.9636C129.607 82.4726 129.097 81.9201 128.653 81.3162C128.233 80.7582 127.884 80.1501 127.613 79.5058C127.308 78.7656 127.155 77.9714 127.162 77.1705C127.136 76.5424 127.25 75.9163 127.495 75.338C127.74 74.7596 128.111 74.2435 128.58 73.8274C129.67 72.9669 131.036 72.5375 132.42 72.6205C133.714 72.5368 134.99 72.956 135.984 73.7912C136.389 74.1616 136.711 74.615 136.928 75.1209C137.145 75.6268 137.251 76.1734 137.24 76.7239C137.25 77.3589 137.132 77.9893 136.891 78.5765C136.655 79.1236 136.339 79.6321 135.954 80.0851C135.544 80.5629 135.089 80.9994 134.596 81.3886C134.079 81.7989 133.538 82.2032 132.973 82.5955L138.832 88.98C139.233 88.5294 139.599 88.0889 139.932 87.6584C140.25 87.23 140.532 86.8377 140.761 86.4877C140.989 86.1377 141.248 85.6851 141.464 85.2808L142.065 85.7213C141.873 86.1354 141.658 86.5383 141.422 86.9282C141.205 87.3024 140.935 87.7187 140.605 88.1894C140.255 88.6847 139.874 89.1564 139.463 89.6015L142.065 92.4438H138.832L137.666 91.1825C136.929 91.7322 136.121 92.1769 135.263 92.5041C134.262 92.8694 133.203 93.0473 132.138 93.0291C131.229 93.0457 130.324 92.9236 129.452 92.667C128.759 92.4545 128.111 92.1149 127.541 91.6653C127.043 91.2729 126.648 90.7657 126.387 90.1869C126.135 89.623 126.002 89.0127 125.997 88.3946ZM132.685 92.0575C133.504 92.0693 134.319 91.9302 135.088 91.6472C135.792 91.386 136.452 91.0198 137.047 90.561L131.038 83.9653C130.41 84.4887 129.857 85.0981 129.398 85.7756C128.961 86.4634 128.738 87.2655 128.755 88.0808C128.763 90.732 130.073 92.0575 132.685 92.0575ZM129.938 77.1282C129.934 77.6901 130.038 78.2476 130.245 78.7696C130.429 79.2414 130.659 79.694 130.93 80.1213C131.135 80.4569 131.366 80.7757 131.621 81.0748C131.751 81.2279 131.893 81.3693 132.048 81.4972C132.758 80.9054 133.395 80.2308 133.947 79.4877C134.478 78.752 134.754 77.8618 134.734 76.9532C134.748 76.4175 134.672 75.8832 134.511 75.3722C134.393 74.9904 134.201 74.6357 133.947 74.3282C133.741 74.0719 133.48 73.8656 133.183 73.7248C132.935 73.6142 132.668 73.5547 132.396 73.5498C132.095 73.5525 131.798 73.6118 131.519 73.7248C131.208 73.8593 130.935 74.0662 130.72 74.3282C130.45 74.6512 130.245 75.0244 130.119 75.4265C129.971 75.9809 129.91 76.555 129.938 77.1282Z" fill="white"/>
<path d="M162.502 92.4981H159.864V74.3162H151.114V92.4981H148.482V76.6696C148.51 75.9442 148.387 75.2209 148.122 74.5455C147.876 74.0084 147.317 73.7369 146.439 73.7369H145.838V73.1334H162.484L162.502 92.4981Z" fill="white"/>
<path d="M182.308 92.4981C181.916 92.6043 181.511 92.6531 181.106 92.6429C180.721 92.6387 180.336 92.6003 179.958 92.5282C179.483 92.4375 179.027 92.2639 178.612 92.0153C178.103 91.7061 177.648 91.3146 177.266 90.8567C176.774 90.2535 176.394 89.5668 176.142 88.8291L175.445 86.9282H167.267L164.929 92.4981H163.613L171.792 73.1394H172.669L179.093 88.8291C179.327 89.3782 179.549 89.8429 179.754 90.2231C179.927 90.5682 180.159 90.8806 180.439 91.1463C180.675 91.374 180.952 91.5542 181.256 91.6774C181.594 91.803 181.948 91.8822 182.308 91.9127V92.4981ZM167.706 85.7515H174.886L171.353 77.2731L167.706 85.7515Z" fill="white"/>
<path d="M185.402 92.4981H182.776V76.6696C182.802 75.9437 182.677 75.2204 182.41 74.5455C182.163 74.0084 181.605 73.7369 180.727 73.7369H180.126V73.1334H187.722C188.454 73.1428 189.185 73.2013 189.909 73.3084C190.749 73.4273 191.562 73.6906 192.313 74.0869C193.092 74.5086 193.755 75.1182 194.242 75.861C194.674 76.6652 194.935 77.5513 195.008 78.4626C195.08 79.3738 194.963 80.2902 194.662 81.1532C194.444 81.7141 194.122 82.2282 193.713 82.6679C193.336 83.0676 192.898 83.4037 192.415 83.6636C191.963 83.9192 191.483 84.1217 190.985 84.267C190.542 84.3846 190.093 84.4733 189.639 84.5325C189.296 84.5759 188.951 84.6 188.605 84.605H185.402V92.4981ZM187.596 83.555C188.065 83.5448 188.531 83.4655 188.978 83.3196C189.516 83.151 190.018 82.8806 190.456 82.5231C190.952 82.1291 191.361 81.6359 191.658 81.0748C192.164 80.1055 192.321 78.99 192.102 77.9176C191.883 76.8452 191.302 75.882 190.456 75.1912C190.016 74.8376 189.515 74.5695 188.978 74.4006C188.531 74.2548 188.065 74.1755 187.596 74.1653C187.209 74.1664 186.824 74.1966 186.442 74.2558C186.092 74.3051 185.745 74.3736 185.402 74.461V83.2593C185.745 83.3467 186.092 83.4152 186.442 83.4644C186.824 83.5236 187.209 83.5539 187.596 83.555Z" fill="white"/>
<path d="M210.64 73.1394V74.3162H204.066V92.4981H201.434V74.3162H198.809C197.841 74.2535 196.883 74.538 196.104 75.1187C195.766 75.4486 195.506 75.8499 195.342 76.2935C195.177 76.7371 195.114 77.2119 195.155 77.6834H194.554V75.4627C194.555 75.1721 194.589 74.8825 194.656 74.5998C194.722 74.324 194.852 74.0677 195.035 73.8515C195.245 73.6177 195.506 73.4359 195.798 73.3205C196.193 73.1723 196.614 73.1026 197.036 73.1153L210.64 73.1394Z" fill="white"/>
<path d="M226.264 88.98C226.235 89.7061 226.36 90.4302 226.631 91.1041C226.871 91.6412 227.43 91.9127 228.307 91.9127H228.908V92.5162H226.264C225.835 92.5256 225.407 92.481 224.99 92.3834C224.667 92.3057 224.379 92.1208 224.173 91.8584C223.948 91.5398 223.804 91.1712 223.752 90.7843C223.661 90.1853 223.621 89.5797 223.632 88.9739V83.1084H214.871V92.492H212.245V76.6696C212.27 75.9437 212.146 75.2204 211.878 74.5455C211.638 74.0084 211.073 73.7369 210.202 73.7369H209.601V73.1334H212.233C212.659 73.1239 213.085 73.1685 213.501 73.2662C213.824 73.3447 214.111 73.5295 214.318 73.7912C214.547 74.1127 214.693 74.4857 214.745 74.8774C214.83 75.4647 214.868 76.058 214.859 76.6515V81.9317H223.62V73.1394H226.252L226.264 88.98Z" fill="white"/>
<path d="M240.457 73.1394C240.881 73.1274 241.304 73.197 241.701 73.3446C241.991 73.4616 242.249 73.6432 242.458 73.8757C242.645 74.0893 242.775 74.3466 242.837 74.6239C242.904 74.9066 242.938 75.1962 242.939 75.4869V77.6834H242.338C242.38 77.2119 242.316 76.7371 242.152 76.2935C241.987 75.8499 241.727 75.4486 241.389 75.1188C240.612 74.5361 239.653 74.2514 238.685 74.3162H233.277V81.9377H241.166V83.1446H233.271V91.3575H238.384C239.478 91.4132 240.565 91.1581 241.521 90.6213C242.374 90.0077 243.006 89.1334 243.324 88.1291L243.925 88.2739L242.897 91.0619C242.758 91.4912 242.486 91.8652 242.122 92.13C241.707 92.413 241.211 92.5528 240.71 92.5282H230.645V76.6696C230.673 75.9435 230.548 75.2196 230.278 74.5455C230.038 74.0084 229.473 73.7369 228.602 73.7369H228.001V73.1334L240.457 73.1394Z" fill="white"/>
<path d="M248.666 92.4981H246.034V76.6696C246.061 75.9442 245.938 75.2209 245.673 74.5455C245.427 74.0084 244.868 73.7369 243.991 73.7369H243.39V73.1334H250.985C251.717 73.143 252.448 73.2015 253.173 73.3084C254.012 73.4291 254.825 73.6924 255.576 74.0869C256.355 74.5071 257.016 75.1172 257.499 75.861C258.071 76.8036 258.347 77.8968 258.292 78.9989C258.313 79.7343 258.188 80.4664 257.926 81.1532C257.708 81.7141 257.386 82.2282 256.976 82.6679C256.6 83.0676 256.161 83.4037 255.678 83.6636C255.226 83.9181 254.746 84.1206 254.248 84.267C253.806 84.3846 253.356 84.4733 252.902 84.5325C252.557 84.5759 252.21 84.6001 251.863 84.605H248.654L248.666 92.4981ZM250.853 83.555C251.325 83.5446 251.792 83.4654 252.241 83.3196C252.78 83.151 253.282 82.8806 253.719 82.5231C254.526 81.8056 255.079 80.845 255.295 79.7853C255.512 78.7256 255.381 77.6239 254.921 76.6455C254.621 76.085 254.213 75.5905 253.719 75.1912C253.28 74.8376 252.779 74.5695 252.241 74.4006C251.792 74.2549 251.325 74.1756 250.853 74.1653C250.467 74.1668 250.081 74.197 249.699 74.2558C249.351 74.305 249.006 74.3735 248.666 74.461V83.2593C249.006 83.3468 249.351 83.4153 249.699 83.4644C250.081 83.5232 250.467 83.5535 250.853 83.555Z" fill="white"/>
<path d="M262.949 81.3524H266.158C266.952 81.3576 267.743 81.4262 268.526 81.5575C269.369 81.6853 270.183 81.9632 270.929 82.3782C271.655 82.796 272.272 83.3789 272.732 84.08C273.209 84.9518 273.459 85.9304 273.459 86.9252C273.459 87.92 273.209 88.8987 272.732 89.7705C272.272 90.4716 271.655 91.0544 270.929 91.4722C270.183 91.8872 269.369 92.1651 268.526 92.2929C267.743 92.4243 266.952 92.4929 266.158 92.4981H260.317V76.6696C260.346 75.9435 260.221 75.2196 259.951 74.5455C259.711 74.0084 259.152 73.7369 258.274 73.7369H257.673V73.1334H260.299C260.726 73.1235 261.152 73.1682 261.567 73.2662C261.892 73.3448 262.182 73.5294 262.391 73.7912C262.617 74.1133 262.761 74.4862 262.811 74.8774C262.899 75.4645 262.939 76.0578 262.931 76.6515L262.949 81.3524ZM270.539 86.9282C270.553 86.2409 270.431 85.5577 270.178 84.9187C269.956 84.3721 269.61 83.8846 269.169 83.4946C268.724 83.1143 268.207 82.8289 267.648 82.6558C267.023 82.4665 266.373 82.3729 265.72 82.3782C264.781 82.3798 263.848 82.518 262.949 82.7886V91.0619C263.401 91.202 263.863 91.3049 264.331 91.3696C264.791 91.4355 265.255 91.4697 265.72 91.4722C266.373 91.4804 267.024 91.3868 267.648 91.1946C268.207 91.0216 268.724 90.7362 269.169 90.3558C269.61 89.9659 269.956 89.4784 270.178 88.9317C270.43 88.2947 270.553 87.6135 270.539 86.9282ZM275.797 73.1394H278.429V88.98C278.401 89.7055 278.524 90.4288 278.789 91.1041C279.036 91.6412 279.595 91.9127 280.472 91.9127H281.073V92.5162H278.447C278.018 92.526 277.59 92.4814 277.173 92.3834C276.849 92.307 276.561 92.1218 276.356 91.8584C276.128 91.5413 275.984 91.172 275.935 90.7843C275.844 90.1853 275.804 89.5797 275.815 88.9739L275.797 73.1394Z" fill="white"/>
<path d="M131.932 57.385C130.86 57.6831 129.752 57.8253 128.641 57.8073C127.536 57.792 126.435 57.6776 125.35 57.4654C124.005 57.2034 122.715 56.7045 121.539 55.9909C120.094 55.099 118.805 53.9662 117.728 52.6398C116.341 50.9112 115.264 48.9462 114.549 46.8356L112.476 41.3531H89.2555L82.6277 57.385H78.8958L102.097 1.68898H104.584L122.816 46.8356C123.479 48.4129 124.099 49.7533 124.679 50.857C125.188 51.855 125.855 52.7608 126.653 53.5379C127.33 54.1834 128.118 54.6968 128.977 55.0526C129.934 55.4196 130.938 55.6453 131.958 55.7229L131.932 57.385ZM90.4995 37.9484H110.804L100.859 13.4984L90.4995 37.9484Z" fill="#038DFF"/>
<path d="M139.31 57.385H131.853V11.8094C131.931 9.71804 131.577 7.63323 130.813 5.69025C130.124 4.13085 128.536 3.35115 126.048 3.35115H124.422V1.68898H145.971C148.051 1.71353 150.126 1.88147 152.184 2.19165C154.56 2.53271 156.86 3.29008 158.983 4.43021C161.197 5.63995 163.077 7.39592 164.452 9.53736C165.94 11.7715 166.686 14.7808 166.69 18.5653C166.735 20.6944 166.371 22.812 165.617 24.7985C164.997 26.4081 164.084 27.8838 162.925 29.1483C161.856 30.3 160.612 31.2686 159.24 32.0168C157.951 32.7198 156.589 33.2729 155.179 33.6656C153.927 34.008 152.654 34.2611 151.368 34.423C150.392 34.5481 149.409 34.6174 148.426 34.6307H139.31V57.385ZM145.523 31.6415C146.864 31.6145 148.195 31.3887 149.472 30.9713C150.996 30.4863 152.416 29.7132 153.658 28.6925C155.044 27.5468 156.186 26.1261 157.015 24.517C157.984 22.541 158.454 20.3505 158.384 18.1431C158.454 15.9357 157.984 13.7452 157.015 11.7692C156.186 10.1601 155.044 8.73944 153.658 7.5937C152.402 6.57114 150.969 5.79812 149.433 5.31492C148.155 4.89753 146.825 4.67175 145.484 4.64469C144.382 4.64823 143.282 4.73335 142.193 4.89937C141.202 5.04051 140.22 5.23742 139.251 5.48918V30.8305C140.22 31.0823 141.202 31.2792 142.193 31.4203C143.296 31.5772 144.409 31.6512 145.523 31.6415Z" fill="#038DFF"/>
<path d="M169.303 29.537C169.274 25.6099 169.876 21.7043 171.087 17.9755C172.193 14.5407 173.938 11.355 176.227 8.59234C178.453 5.91339 181.224 3.75914 184.349 2.27878C187.705 0.776048 191.332 6.92083e-05 194.998 6.92083e-05C198.665 6.92083e-05 202.291 0.776048 205.648 2.27878C208.767 3.75327 211.535 5.89799 213.763 8.56553C216.05 11.3294 217.795 14.5148 218.903 17.9487C220.114 21.6775 220.716 25.583 220.687 29.5102C220.723 33.4509 220.12 37.3707 218.903 41.1119C217.794 44.5451 216.049 47.7301 213.763 50.4951C211.532 53.1587 208.764 55.3028 205.648 56.7818C202.291 58.2845 198.665 59.0605 194.998 59.0605C191.332 59.0605 187.705 58.2845 184.349 56.7818C181.23 55.3047 178.46 53.1604 176.227 50.4951C173.939 47.7318 172.194 44.5463 171.087 41.1119C169.873 37.3792 169.27 33.4688 169.303 29.537ZM212.401 29.537C212.44 25.8855 212.035 22.243 211.196 18.6927C210.52 15.7574 209.358 12.9607 207.76 10.4221C206.38 8.25252 204.503 6.45634 202.291 5.18757C200.038 3.99831 197.536 3.37757 194.998 3.37757C192.46 3.37757 189.959 3.99831 187.706 5.18757C185.491 6.45263 183.613 8.24957 182.236 10.4221C180.634 12.9589 179.47 15.7561 178.794 18.6927C177.955 22.243 177.55 25.8855 177.59 29.537C177.551 33.1885 177.955 36.8309 178.794 40.3813C179.471 43.3175 180.635 46.1145 182.236 48.6519C183.612 50.8241 185.49 52.6192 187.706 53.8797C189.958 55.0733 192.459 55.6965 194.998 55.6965C197.537 55.6965 200.039 55.0733 202.291 53.8797C204.504 52.6154 206.381 50.8211 207.76 48.6519C209.357 46.1126 210.518 43.3161 211.196 40.3813C212.035 36.8309 212.439 33.1885 212.401 29.537Z" fill="#038DFF"/>
<path d="M265.851 47.2579C265.772 49.3487 266.124 51.4334 266.885 53.377C267.576 54.9253 269.168 55.696 271.65 55.696H273.308V57.385H265.851C264.638 57.4103 263.427 57.2819 262.244 57.003C261.323 56.7792 260.503 56.2426 259.921 55.4816C259.28 54.5719 258.868 53.5153 258.723 52.4052C258.473 50.7017 258.363 48.98 258.394 47.2579V30.3815H233.535V57.385H226.071V11.8094C226.151 9.71852 225.799 7.63377 225.038 5.69025C224.344 4.13085 222.756 3.35115 220.272 3.35115H218.614V1.68898H226.071C227.284 1.66565 228.495 1.79167 229.678 2.06431C230.597 2.28904 231.414 2.82557 231.995 3.58573C232.642 4.50789 233.055 5.57837 233.199 6.70229C233.449 8.39236 233.561 10.1005 233.535 11.8094V27.0035H258.394V1.68898H265.851V47.2579Z" fill="#038DFF"/>
<path d="M270.82 29.537C270.794 25.6101 271.397 21.7051 272.604 17.9755C273.712 14.5416 275.457 11.3562 277.745 8.59234C279.971 5.91339 282.742 3.75914 285.866 2.27878C289.222 0.776209 292.847 0.000304089 296.512 0.000304089C300.178 0.000304089 303.803 0.776209 307.158 2.27878C310.285 3.7497 313.061 5.89474 315.294 8.56553C317.581 11.3294 319.326 14.5148 320.434 17.9487C321.641 21.6783 322.244 25.5833 322.218 29.5102C322.25 33.4507 321.647 37.3699 320.434 41.1119C319.324 44.5451 317.579 47.7301 315.294 50.4951C313.061 53.1604 310.291 55.3047 307.172 56.7818C303.816 58.2844 300.191 59.0603 296.526 59.0603C292.86 59.0603 289.235 58.2844 285.88 56.7818C282.769 55.3061 280.005 53.1667 277.777 50.5085C275.491 47.7435 273.747 44.5585 272.637 41.1253C271.414 37.3895 270.8 33.4749 270.82 29.537ZM313.918 29.537C313.957 25.8855 313.553 22.243 312.713 18.6927C312.037 15.7574 310.875 12.9607 309.278 10.4221C307.897 8.25067 306.017 6.45416 303.802 5.18757C301.548 3.99831 299.047 3.37757 296.509 3.37757C293.971 3.37757 291.47 3.99831 289.217 5.18757C287.005 6.45482 285.13 8.25142 283.754 10.4221C282.151 12.9589 280.987 15.7561 280.311 18.6927C279.468 22.2425 279.059 25.8849 279.094 29.537C279.053 33.1882 279.455 36.8306 280.292 40.3813C280.969 43.3175 282.133 46.1145 283.734 48.6519C285.109 50.8224 286.984 52.6172 289.197 53.8797C291.449 55.0733 293.95 55.6965 296.489 55.6965C299.028 55.6965 301.53 55.0733 303.782 53.8797C305.999 52.6177 307.878 50.823 309.258 48.6519C310.854 46.1126 312.016 43.3161 312.694 40.3813C313.539 36.8317 313.95 33.1893 313.918 29.537Z" fill="#038DFF"/>
<path d="M341.68 1.68898C344.08 1.70382 346.478 1.85823 348.861 2.15144C351.38 2.42822 353.841 3.10673 356.153 4.16212C358.354 5.17702 360.286 6.71187 361.787 8.63925C363.305 10.5785 364.065 13.1789 364.065 16.4407C364.047 19.0227 363.138 21.5161 361.498 23.4848C359.786 25.6564 357.051 27.3878 353.29 28.6791C355.587 29.0117 357.83 29.6494 359.964 30.5759C361.535 31.2742 362.957 32.2782 364.15 33.5316C365.174 34.6441 365.925 35.9877 366.342 37.4524C366.778 38.9882 367 40.5788 367 42.1775C367 45.3321 366.296 47.9057 364.887 49.8986C363.498 51.8793 361.645 53.4757 359.497 54.5432C357.182 55.6876 354.702 56.4479 352.152 56.7952C349.516 57.1811 346.857 57.3782 344.194 57.385H327.588V11.8094C327.669 9.71852 327.316 7.63377 326.555 5.69025C325.864 4.14872 324.271 3.35115 321.79 3.35115H320.131V1.68898H341.68ZM342.937 27.4258C344.58 27.4272 346.214 27.1856 347.788 26.7086C349.312 26.2568 350.744 25.528 352.013 24.5572C353.253 23.6024 354.285 22.3949 355.041 21.0117C355.842 19.4813 356.241 17.7658 356.199 16.0319C356.251 14.1971 355.758 12.3891 354.784 10.8443C353.854 9.41965 352.638 8.2114 351.217 7.2988C349.738 6.35857 348.113 5.67883 346.412 5.28811C344.732 4.86437 343.009 4.63948 341.278 4.61788C340.177 4.62173 339.077 4.70685 337.988 4.87257C336.997 5.01371 336.015 5.21061 335.046 5.46237V27.4258H342.937ZM335.039 30.7769V53.2497C336.331 53.6492 337.651 53.945 338.988 54.1344C340.296 54.3301 341.615 54.4286 342.937 54.4293C347.966 54.4293 351.849 53.4173 354.587 51.3932C357.325 49.3691 358.692 46.4424 358.687 42.6132C358.687 38.7929 357.371 35.8684 354.738 33.8399C352.105 31.8113 348.172 30.8082 342.937 30.8305L335.039 30.7769Z" fill="#038DFF"/>
<path d="M74.4992 13.5319C73.3944 13.5469 72.2932 13.6612 71.2083 13.8737C69.8655 14.1358 68.5781 14.6348 67.404 15.3482C65.9572 16.2384 64.6687 17.3715 63.5932 18.6994C62.1998 20.4312 61.119 22.4009 60.401 24.517L58.3343 29.9995H42.3208L29.8352 0H27.3539L9.13551 45.1131C8.46856 46.6859 7.84767 48.0264 7.27287 49.1345C6.76609 50.134 6.0987 51.0401 5.29833 51.8154C4.62378 52.4607 3.83846 52.9741 2.98155 53.3301C2.02323 53.694 1.01967 53.9196 0 54.0004V55.629C1.07192 55.9271 2.17986 56.0692 3.29089 56.0513C4.39524 56.0355 5.49624 55.9234 6.58178 55.7161C7.93198 55.4687 9.23011 54.9857 10.419 54.2886C11.8645 53.3966 13.1527 52.2638 14.2298 50.9374C15.6195 49.2042 16.6979 47.2348 17.4154 45.1198L19.4821 39.6374H35.5153L48.0207 69.61H50.5086L68.7204 24.5036C69.3785 22.9285 70.0367 21.5948 70.5896 20.4822C71.0873 19.4857 71.7434 18.5799 72.5312 17.8013C73.2064 17.1536 73.9943 16.6399 74.8546 16.2866C75.8095 15.9188 76.8114 15.6931 77.8295 15.6163V13.9542C76.745 13.6519 75.6234 13.5097 74.4992 13.5319ZM31.0594 11.8027L38.7733 29.9793H35.1664L29.3811 15.9783L31.0594 11.8027ZM41.4257 36.2594H37.6412L36.4104 33.3506H40.1752L41.4257 36.2594ZM21.1407 36.2594L27.5447 20.4956L34.1265 36.2594H21.1407ZM46.757 57.8006L39.0694 39.6306H42.6697L48.4551 53.6183L46.757 57.8006ZM50.2848 49.0876L43.703 33.3305H56.6954L50.2848 49.0876Z" fill="#038DFF"/>
</svg>
