<svg width="65" height="54" viewBox="0 0 65 54" fill="none" xmlns="http://www.w3.org/2000/svg">
<path d="M62.2727 10.5596C61.4545 10.5596 60.5455 10.6455 59.5455 10.8172C58.5455 10.9889 57.4545 11.3323 56.3636 11.9332C55.2727 12.5342 54.1818 13.3927 53.1818 14.5087C52.1818 15.6248 51.2727 17.1701 50.5455 19.0588L48.8182 23.3514H35.2727L24.8182 0H22.7273L7.54545 35.027C7 36.2289 6.45455 37.345 6 38.1176C5.54545 38.9762 5 39.663 4.36364 40.1781C3.72727 40.6932 3.09091 41.1224 2.45455 41.38C1.72727 41.6375 0.909091 41.8092 0 41.8951V43.1828C0.818182 43.4404 1.72727 43.5262 2.72727 43.5262C3.54545 43.5262 4.45455 43.4404 5.45455 43.2687C6.45455 43.097 7.54545 42.7536 8.63636 42.1526C9.72727 41.5517 10.8182 40.6932 11.8182 39.5771C12.8182 38.461 13.7273 36.9157 14.4545 35.027L16.1818 30.7345H29.6364L40.0909 54H42.1818L57.4545 18.973C58 17.7711 58.5455 16.7409 59 15.8824C59.4545 15.0238 60 14.337 60.6364 13.8219C61.2727 13.3068 61.9091 12.8776 62.5455 12.62C63.2727 12.3625 64.0909 12.1908 65 12.1049V10.8172C64.2727 10.6455 63.2727 10.5596 62.2727 10.5596ZM25.9091 9.18601L32.3636 23.2655H29.3636L24.4545 12.4483L25.9091 9.18601ZM34.5455 28.159H31.3636L30.3636 25.9269H33.5455L34.5455 28.159ZM17.5455 28.159L22.9091 15.8824L28.3636 28.159H17.5455ZM39 44.8998L32.5455 30.8204H35.5455L40.4545 41.6375L39 44.8998ZM42 38.1176L36.5455 25.841H47.3636L42 38.1176Z" fill="#038DFF"/>
</svg>
