<svg width="292" height="186" viewBox="0 0 292 186" fill="none" xmlns="http://www.w3.org/2000/svg">
<path d="M141.619 179.337C141.619 178.185 140.563 178.377 140.275 177.512C139.987 176.648 139.603 177.128 139.411 176.648C139.411 176.552 139.315 176.455 139.315 176.455C138.74 176.648 138.931 177.128 138.836 177.128C138.74 177.128 137.492 177.32 137.492 176.936C137.492 176.455 137.108 176.071 136.628 175.975C136.34 175.879 135.956 175.879 135.668 175.879C135.956 176.744 136.148 177.608 136.148 178.473C136.148 179.53 137.684 181.067 137.876 181.739C138.068 182.412 138.548 182.604 139.507 183.276C140.467 183.949 142.387 185.101 142.771 184.909C143.155 184.717 142.195 183.084 141.619 182.508C141.043 181.931 141.619 180.49 141.619 179.337ZM167.343 177.416C166.863 177.512 165.807 177.416 165.807 177.032C165.807 176.648 164.848 175.687 164.272 175.687C163.696 175.687 162.928 176.84 162.928 177.416C162.928 177.993 161.968 177.896 162.064 178.569C162.064 178.857 161.968 178.953 161.68 179.049C161.872 179.626 161.872 180.106 161.68 180.01C161.296 179.914 161.2 180.394 160.624 180.394C160.432 180.394 160.048 179.914 159.664 179.241C159.28 179.241 158.321 180.682 158.129 181.643C157.937 182.604 157.073 182.316 155.633 182.412C154.193 182.508 154.865 183.949 154.577 184.525C154.289 185.101 152.849 184.045 152.082 183.853C152.177 184.429 152.369 184.909 152.561 184.909C152.945 184.909 153.521 185.87 154.001 185.582C154.481 185.294 155.633 185.582 156.209 185.39C156.785 185.198 156.881 184.717 157.937 184.717C158.992 184.717 158.513 185.486 159.568 185.005C160.624 184.525 161.2 184.909 161.104 184.045C161.008 183.18 161.68 183.18 161.584 182.412C161.488 181.643 162.64 182.219 162.544 180.875C162.448 179.53 164.368 179.818 165.136 179.818C165.424 179.818 165.711 179.914 165.903 180.106C166.479 179.818 167.343 179.434 166.959 179.049C166.575 178.665 168.303 178.953 168.495 178.377C168.687 177.8 167.823 177.32 167.343 177.416Z" fill="#3F7EB1"/>
<path d="M56.7657 147.059C58.1095 147.347 59.3573 147.443 60.7011 147.539L61.277 146.098L62.3328 144.754V143.505H63.0047L63.5806 143.12C63.2927 142.064 63.2927 141.007 63.1007 141.007C62.9088 141.007 61.5649 142.352 61.085 143.313C60.4131 144.369 59.1653 145.042 57.8215 144.85C57.1496 144.657 56.3817 144.85 55.8058 145.426C55.7098 145.522 55.6138 145.426 55.4219 145.33C55.6138 145.906 56.0938 146.579 56.7657 147.059Z" fill="#B7B7B7" stroke="white" stroke-width="0.1" stroke-miterlimit="10"/>
<path d="M103.031 109.593C102.359 108.825 102.167 109.305 101.399 109.113C99.9596 108.825 98.5198 108.728 97.08 108.825C96.5041 109.113 95.2563 108.344 94.7764 108.152C94.2965 107.96 93.0486 108.152 93.0486 108.825C93.0486 109.497 92.4727 109.497 91.5129 109.113C90.553 108.728 89.2092 108.632 89.2092 109.209C89.2092 109.785 88.5373 110.169 88.1534 110.362C87.8654 110.65 87.7694 110.938 87.6734 111.322C87.9614 111.418 88.1534 111.61 88.3453 111.899C88.7293 112.283 89.5932 112.187 89.6891 111.803C89.7851 111.418 91.2249 112.187 91.9928 112.859C92.7607 113.532 91.6089 113.051 91.2249 113.724C90.841 114.396 89.8811 113.724 89.5931 114.012C88.8253 114.3 87.9614 114.396 87.0975 114.3C86.6176 114.204 85.8497 114.973 85.9457 115.261C86.0417 115.549 87.7694 115.069 88.3453 115.453C88.9213 115.837 89.5932 115.069 89.8811 115.549C90.1691 116.03 90.937 115.645 91.3209 115.837C92.0888 115.837 92.7607 115.837 93.5286 115.741C93.7205 115.549 93.8165 115.165 93.8165 114.877C93.8165 114.396 94.2005 114.492 94.5844 114.396C94.9684 114.3 95.2563 113.82 95.5443 113.82C95.8322 113.82 96.3122 113.34 96.6001 113.532C96.8881 113.724 97.272 114.204 97.656 113.82C98.0399 113.436 98.1359 113.82 98.7118 113.148C99.2877 112.475 99.5757 112.571 100.248 112.667C100.823 112.763 101.399 112.475 101.591 111.899C101.783 111.418 102.455 111.418 102.935 111.13C103.415 110.842 103.895 110.554 104.471 110.362C104.567 110.266 104.663 110.169 104.663 109.977C103.799 109.689 103.607 110.266 103.031 109.593Z" fill="#1E90FF" stroke="white" stroke-width="0.1" stroke-miterlimit="10"/>
<path d="M143.251 182.988C142.771 184.621 143.827 185.39 144.019 185.294C144.403 185.005 146.034 181.547 145.65 181.067C145.363 180.586 143.635 181.451 143.251 182.988Z" fill="#08ABEA" stroke="white" stroke-width="0.1" stroke-miterlimit="10"/>
<path d="M91.9944 112.955C91.2265 112.283 89.7867 111.514 89.6907 111.899C89.5947 112.283 88.7309 112.379 88.3469 111.995C88.059 111.418 87.3871 111.226 86.8111 111.514C86.8111 111.514 86.7151 111.514 86.7151 111.61C85.7553 111.995 85.0834 112.571 84.9874 112.955C84.8914 113.34 84.2195 113.724 84.2195 113.244C84.2195 112.763 83.3557 112.475 82.7798 112.379C82.2038 112.283 81.34 112.475 81.34 111.995C81.34 111.514 80.4761 110.842 80.3801 110.266C80.2841 109.689 80.4761 108.825 79.9962 108.632C79.5162 108.44 79.1323 107.672 78.6524 107.672C77.5005 107.672 76.3487 107.672 75.1969 107.576C74.8129 107.48 73.0852 108.152 72.9892 107.672C72.4133 106.903 71.7414 106.135 70.9735 105.462L67.2301 103.253L62.9107 104.309L62.7188 111.803C63.1027 111.995 63.4866 112.091 63.8706 112.091C64.5425 112.187 64.4465 111.61 64.4465 111.322C64.6385 110.842 65.1184 110.458 65.6943 110.458C66.1742 110.554 66.1742 109.785 66.2702 109.785C66.5582 109.785 66.8462 109.689 66.9421 109.401C67.0381 109.113 67.902 109.401 68.0939 109.689C68.4779 109.977 68.9578 110.073 69.4377 110.169C69.9177 110.266 70.0137 111.707 70.0137 111.995C70.0137 112.283 72.1253 112.283 72.5093 112.283C72.8932 112.283 72.8932 112.955 73.1812 113.436C73.4692 113.916 73.7571 114.396 73.9491 114.877C74.141 115.261 75.3888 115.645 75.6768 116.126C76.2527 116.702 76.8286 117.086 77.5965 117.278C78.2684 117.567 78.9403 118.431 79.3243 118.431C79.8042 118.527 80.3801 118.719 80.8601 118.912L80.956 120.064H81.148C81.7239 119.872 82.1079 120.545 82.5878 120.545C82.8757 120.641 83.0677 120.737 83.2597 120.833C83.1637 120.16 83.4516 119.488 83.9316 119.104C84.4115 118.719 83.6436 118.143 83.7396 117.567C83.8356 116.99 82.5878 116.702 82.6838 116.222C82.7798 115.741 83.8356 115.837 84.3155 115.645C84.7954 115.453 84.4115 114.685 84.8914 114.685C85.3714 114.685 85.5633 114.204 85.6593 113.82C85.7553 113.436 86.5232 113.82 87.0031 113.532C87.4831 113.244 87.963 113.051 88.1549 113.244C88.3469 113.436 87.771 114.3 87.579 114.589C88.2509 114.589 88.9228 114.492 89.4988 114.204C89.7867 113.916 90.7465 114.589 91.1305 113.916C91.5144 113.244 92.7622 113.628 91.9944 112.955Z" fill="#007FFF" stroke="white" stroke-width="0.1" stroke-miterlimit="10"/>
<path d="M194.987 98.1611C194.987 97.2005 194.027 97.5847 193.643 97.7769C193.259 97.969 192.299 97.7769 192.011 98.3533C191.723 98.9297 191.243 98.6415 190.476 98.7375C189.708 98.8336 188.748 98.5454 188.844 98.0651C188.94 97.5847 188.46 97.2005 188.46 96.6241C188.46 96.0477 187.788 96.3359 187.212 95.8555C186.732 95.3752 186.156 95.1831 185.484 95.087C185.292 95.1831 184.716 94.5106 183.853 94.5106C182.989 94.5106 183.085 93.9342 183.181 93.5499C183.277 93.1657 182.509 92.1089 182.317 91.5325C182.125 90.9561 181.549 90.8601 181.357 89.5151C181.165 88.1702 180.397 88.5545 180.589 87.9781C180.781 87.4017 179.725 87.0174 179.437 86.7292C179.149 86.441 178.093 86.5371 177.422 86.1528C176.75 85.7685 176.174 86.0567 175.502 85.8646C174.638 85.7685 173.774 85.8646 173.006 86.0567C172.238 85.8646 171.374 86.1528 170.895 86.7292C170.223 87.6899 170.703 87.5938 170.991 87.5938C171.278 87.5938 171.47 88.4584 171.47 88.8427C171.47 89.2269 170.99 89.6112 170.703 89.7073C170.223 90.1876 169.839 90.6679 169.647 91.3404C169.551 91.7247 168.783 92.7814 168.879 93.0696C168.975 93.3578 168.495 93.7421 168.111 93.8381C167.535 94.1263 167.055 94.4145 166.479 94.7027C166.191 94.7988 164.943 94.6067 164.847 94.2224C164.751 94.1263 164.655 94.0303 164.463 93.9342L163.12 96.6241L163.024 97.4887C163.024 97.4887 162.16 97.6808 162.832 98.3533C163.504 99.0257 163.6 98.4493 164.559 98.4493C165.519 98.4493 165.999 99.2179 166.191 98.6415C166.383 98.1611 166.959 97.969 167.439 98.1611C167.631 98.2572 167.727 98.3533 167.823 98.4493C168.399 99.1218 170.127 100.179 170.031 100.755C169.935 101.331 168.975 101.139 168.303 100.947C167.631 100.755 166.767 101.331 166.095 101.331C165.327 101.331 164.559 101.62 163.984 102.196C163.312 102.868 163.408 103.541 162.448 103.637C161.584 103.637 160.624 103.829 159.952 104.405C159.184 104.982 158.128 105.078 157.169 104.598C156.593 104.309 155.921 104.405 155.537 104.982C155.057 105.75 156.113 106.039 156.017 106.999C155.921 107.96 154.865 107.672 153.905 108.632C153.137 109.497 151.985 109.977 150.834 109.977C149.586 109.593 148.242 109.689 146.994 110.073C145.554 110.746 144.594 111.707 144.019 111.61C143.443 111.514 143.443 110.842 142.675 110.938C142.099 111.034 141.427 110.842 140.947 110.458C140.371 110.169 139.987 110.65 139.123 110.073C138.259 109.497 136.724 109.497 136.052 109.401C135.38 109.305 132.884 109.401 132.02 109.305C131.156 109.209 129.909 109.497 129.813 109.113C129.717 108.728 129.045 108.344 128.853 107.384C128.757 106.711 128.277 106.135 127.509 105.943C126.933 105.846 126.933 105.27 126.453 105.174C126.261 105.174 125.973 104.405 125.205 104.405C124.437 104.405 121.75 104.117 121.366 103.445C120.982 102.772 121.75 102.676 121.75 102.1C121.75 101.523 122.134 100.659 121.846 100.371C121.462 100.082 121.078 99.6021 120.982 99.1218C120.694 98.5454 120.214 98.0651 119.542 97.969C118.966 97.8729 118.39 97.5847 118.006 97.1044C117.527 96.6241 117.047 96.7201 116.759 95.5673C116.759 95.4713 116.759 95.4713 116.663 95.3752C116.471 95.3752 116.183 95.2791 115.991 95.2791C115.799 95.2791 115.703 95.1831 115.511 94.9909C115.415 95.4713 114.935 95.6634 114.935 96.0477C114.935 96.4319 114.743 97.0083 114.167 97.0083C113.591 97.0083 113.111 97.3926 113.015 98.2572C112.919 99.1218 113.495 99.2179 113.303 99.6021C112.919 100.082 112.343 100.275 111.671 100.179C111.191 100.082 110.616 99.9864 110.136 100.082C109.56 99.9864 109.176 99.3139 108.984 100.082C108.792 100.851 107.64 103.061 107.928 103.349C108.216 103.637 108.408 104.117 107.928 104.117C107.544 104.117 107.064 104.021 106.68 103.829C106.488 103.637 105.624 104.213 105.048 104.117C104.76 104.117 103.705 104.598 104.089 104.79C104.472 104.982 104.472 105.846 104.472 106.231C104.472 106.615 105.336 107.768 105.144 108.152C104.952 108.536 104.281 108.921 104.281 109.401C104.281 109.881 104.472 110.362 104.185 110.458C103.705 110.65 103.129 110.938 102.649 111.226C102.265 111.514 101.593 111.514 101.305 111.995C101.113 112.571 100.537 112.859 99.9612 112.763C99.2893 112.667 98.9053 112.571 98.4254 113.244C97.9455 113.916 97.7535 113.628 97.3696 113.916C96.9856 114.204 96.6017 113.724 96.3137 113.628C96.0258 113.532 95.5458 113.916 95.2579 113.916C94.9699 113.916 94.682 114.396 94.298 114.492C93.9141 114.589 93.5301 114.492 93.5301 114.973C93.5301 115.261 93.4342 115.549 93.2422 115.837L93.5301 117.278C93.5301 117.278 95.1619 117.855 95.1619 118.335C95.1619 118.815 95.5458 120.641 95.5458 120.641C96.2177 121.121 97.0816 121.697 97.0816 121.89C97.0816 122.466 97.4655 122.946 97.9455 123.138C98.4254 123.331 98.8093 123.619 99.2893 123.811C99.2893 123.715 99.3853 123.619 99.3853 123.619L100.057 123.523C100.153 123.619 100.345 123.715 100.441 123.907C100.825 123.235 101.593 122.85 102.361 122.754C103.033 122.754 104.473 124.003 104.281 124.387C104.089 124.772 103.033 126.309 102.553 126.405C102.361 126.501 102.073 126.501 101.785 126.501C101.689 126.693 101.689 126.885 101.689 127.077C101.689 127.461 102.265 127.942 102.649 128.518C103.033 129.095 102.073 129.479 101.689 129.095C101.305 128.71 101.017 129.479 101.305 129.863C101.593 130.247 101.401 131.112 101.881 131.208C102.361 131.304 102.745 132.169 103.321 132.169C103.897 132.169 104.281 133.033 104.281 133.033C104.281 133.033 105.048 133.514 105.048 133.802V133.898C105.624 133.802 106.008 133.802 106.104 133.61C106.2 133.418 106.968 133.322 107.448 133.898C107.928 134.474 110.136 135.819 110.904 136.396C111.863 137.068 113.015 137.548 114.167 137.741C114.839 137.741 115.415 138.221 116.375 138.125H116.759C116.855 138.029 117.143 137.933 117.335 137.741C117.527 137.548 118.006 138.125 117.91 138.605C117.814 138.893 117.91 139.086 118.006 139.374C118.198 139.182 118.294 138.893 118.39 138.605C118.774 137.741 119.254 137.837 119.638 137.548C120.022 137.26 120.31 137.452 121.078 137.741C121.846 138.029 122.038 137.356 122.998 138.317C123.19 138.221 123.382 138.125 123.574 138.125C123.766 138.125 124.054 137.741 124.342 137.356C124.629 136.972 124.629 136.588 125.013 136.684C125.397 136.78 125.589 136.204 126.453 135.723C127.317 135.243 128.085 136.011 128.469 135.627C128.853 135.243 129.333 135.147 129.333 135.531C129.333 135.915 129.909 136.3 130.005 136.684C130.101 137.068 130.869 137.164 130.965 137.26C131.06 137.164 131.156 137.164 131.252 137.068C131.636 136.876 132.02 136.972 132.308 137.356C132.308 137.452 132.404 137.548 132.404 137.548C132.404 138.029 132.404 138.509 132.788 138.509C133.172 138.509 133.46 138.509 133.46 139.374C133.46 140.238 133.748 141.103 133.076 141.871C132.404 142.64 131.54 143.889 131.636 144.273C131.732 144.657 131.444 145.33 131.924 145.138C132.404 144.946 133.652 145.138 133.46 145.426C133.268 145.714 133.46 146.771 133.94 146.771C134.42 146.771 134.708 147.059 134.612 147.539C134.516 148.02 134.228 148.692 134.612 148.692C134.996 148.692 135.668 148.692 135.572 149.173C135.476 149.653 135.86 150.037 136.628 149.749C137.108 149.557 137.3 149.365 137.396 149.557C137.684 149.557 137.684 150.229 138.259 150.325C138.835 150.421 138.547 149.173 138.355 148.98C138.163 148.788 138.451 147.924 138.643 148.116C138.835 148.308 139.411 148.116 139.795 147.732C140.179 147.347 140.755 148.116 141.043 147.635C141.331 147.155 141.907 148.02 142.483 147.635C143.059 147.251 143.347 147.924 143.635 147.443C143.923 146.963 144.786 146.387 144.978 146.579C145.266 147.059 145.842 147.347 146.418 147.347C147.474 147.443 146.898 148.02 146.898 148.404C146.898 148.788 148.146 149.653 148.626 149.653C148.722 149.749 148.914 149.845 149.01 149.941C149.298 149.749 149.97 150.037 150.066 149.653C150.162 149.269 150.738 149.269 151.025 149.749C151.313 150.229 151.505 150.229 151.985 149.749C152.465 149.269 152.753 150.229 152.465 150.421C152.177 150.614 152.369 151.478 152.849 151.862C153.329 152.247 153.425 151.574 153.329 151.094C153.233 150.614 154.097 150.133 155.729 149.653C156.977 149.269 158.128 148.596 159.088 147.732C159.088 147.443 160.24 148.212 160.72 147.828C161.2 147.443 163.12 147.347 163.696 147.347C164.272 147.347 164.176 146.867 164.655 146.483C165.135 146.098 165.039 145.906 165.615 145.714C166.095 145.618 166.479 145.138 166.575 144.657C166.575 144.369 167.727 144.273 167.727 143.889C167.727 143.505 168.591 143.505 168.591 143.024C168.591 142.544 169.071 142.736 169.359 142.448C169.647 142.16 169.167 141.295 169.551 141.103C169.935 140.911 169.359 140.527 169.359 140.238C169.359 139.95 170.127 139.95 170.511 139.662C170.895 139.374 171.182 138.989 171.278 138.509C171.374 138.029 172.046 137.645 172.334 137.452C172.622 137.356 172.814 136.684 172.718 136.107C172.622 135.531 173.294 135.723 173.006 135.435C172.718 135.147 173.102 134.57 173.774 134.378C174.446 134.186 173.39 133.898 173.102 134.186C172.814 134.474 172.43 133.418 172.142 133.802C171.854 134.186 170.991 133.61 171.566 133.418C172.142 133.129 172.814 132.841 173.39 132.553C173.774 132.457 172.814 131.592 172.334 131.592C171.854 131.592 171.374 130.536 170.799 130.536C170.223 130.536 171.182 130.151 171.758 130.536C172.334 130.92 173.006 131.112 173.294 130.824C173.582 130.536 172.334 129.575 171.854 129.191C171.374 128.806 171.854 128.326 171.566 128.134C171.087 127.558 170.703 126.789 170.511 126.117C170.319 125.54 169.263 125.444 168.975 125.06C168.687 124.676 168.975 123.811 169.743 123.523C170.511 123.235 170.223 122.562 170.511 122.658C170.799 122.754 171.182 122.562 171.47 121.986C171.758 121.409 172.238 121.794 172.526 121.409C172.814 121.121 174.062 121.121 174.446 120.833C174.83 120.545 174.062 119.584 173.486 119.776C172.814 119.968 172.142 119.68 171.854 119.104C171.47 118.527 170.415 120.16 169.551 120.545C168.687 120.929 168.207 119.872 168.495 119.2C168.783 118.527 167.919 118.527 166.767 118.623C165.615 118.719 166.095 116.606 166.767 116.51C167.439 116.414 168.495 117.086 168.879 115.837C169.263 114.589 169.935 115.549 170.895 114.492C171.854 113.436 172.91 112.667 173.774 113.34C174.638 114.012 172.91 115.069 172.622 115.645C172.334 116.222 172.91 116.51 172.334 116.99C171.758 117.471 172.526 117.567 173.486 116.99C174.446 116.318 175.502 115.741 176.654 115.261C176.942 115.165 177.23 115.165 177.422 115.165C177.518 114.877 177.709 114.589 177.901 114.396C179.053 113.916 180.109 113.34 181.069 112.667C181.357 112.187 181.741 111.514 182.125 111.514C182.509 111.514 182.605 111.899 183.181 111.899C183.757 111.899 184.62 112.091 184.237 111.61C183.853 111.13 184.141 111.034 184.908 110.938C185.676 110.842 185.58 110.073 186.06 110.073C186.54 110.073 186.54 108.728 187.02 108.728C187.5 108.728 187.788 109.497 188.46 109.305C188.652 109.305 188.748 109.305 188.94 109.401C189.036 109.305 189.228 109.209 189.324 109.113C189.324 108.536 189.324 108.056 189.228 107.48C188.94 106.903 189.228 106.423 189.132 106.039C189.036 105.654 188.94 104.79 189.42 104.79C189.9 104.79 190.284 103.829 190.86 104.117C191.435 104.405 192.395 104.598 192.395 104.117C192.395 103.637 193.067 103.637 193.163 102.964C193.259 102.292 194.027 102.196 194.123 101.62C194.219 101.043 194.507 99.7943 194.987 99.5061C195.467 99.2179 194.891 99.0257 194.987 98.1611ZM170.415 145.714C169.839 147.732 171.182 148.788 171.278 148.596C171.758 148.212 173.87 143.889 173.39 143.312C172.91 142.736 170.895 143.697 170.415 145.714ZM152.465 152.535C151.793 152.535 150.162 153.496 150.834 154.84C151.505 156.185 153.617 155.321 153.713 154.648C153.809 153.976 154.769 153.111 154.577 152.631C154.385 152.151 153.137 152.535 152.465 152.535Z" fill="#0071CE" stroke="white" stroke-width="0.1" stroke-miterlimit="10"/>
<path d="M115.224 94.3185C115.224 93.9342 114.84 94.1263 114.648 94.3185C114.168 94.5106 113.784 94.6067 113.304 94.6067C113.016 94.6067 112.44 94.2224 112.44 93.9342C112.44 93.646 112.344 93.2617 112.056 93.2617C111.768 93.2617 111.289 93.0696 111.001 92.3971C110.713 91.7247 110.233 91.6286 109.945 91.5325C109.657 91.4365 108.697 91.8207 108.217 92.0129C107.737 92.205 107.065 91.8207 106.585 91.7247C106.105 91.6286 105.721 90.6679 105.241 90.764C104.762 90.8601 104.666 91.8207 104.282 91.8207C103.898 91.8207 103.226 89.8994 102.554 88.7466C101.882 87.5938 100.538 85.4803 99.3863 85.0961C98.2345 84.7118 98.6184 84.1354 98.9064 83.8472C99.1943 83.559 98.2345 83.4629 97.7545 83.7511C97.2746 84.1354 96.7947 84.4236 96.2188 84.6157C95.7389 84.7118 94.971 85.5764 94.395 85.3843C93.8191 85.1921 93.5312 86.1528 93.1472 85.6725C92.7633 85.1921 93.7232 84.9039 93.7232 84.6157C93.7232 84.3275 92.9553 84.7118 92.8593 84.5197C92.7633 84.3275 92.0914 84.0393 92.0914 84.4236C92.0914 84.8079 91.6115 84.6157 91.6115 84.3275C91.6115 84.0393 91.2275 83.559 90.9396 83.9433C90.6516 84.3275 89.5958 84.5197 89.4038 84.2315C89.2118 83.9433 89.4998 83.8472 89.5958 83.4629C89.6917 83.0787 89.2118 82.6944 89.3078 82.3101C89.4038 81.9259 88.5399 81.4455 88.252 81.6377C87.772 81.7337 87.2921 81.6377 86.9082 81.4455C86.5242 81.2534 84.8925 81.5416 84.7965 81.9259C84.7005 82.3101 82.6848 82.5983 82.3009 82.7905C81.533 82.9826 80.6691 83.1747 79.9012 83.2708C79.4213 83.3669 78.8454 83.8472 78.1735 83.8472C77.3096 83.7511 76.4458 83.9433 75.5819 84.4236C75.006 84.9039 74.0461 84.5197 73.5662 84.6157C73.0863 84.7118 72.4144 84.5197 72.1264 84.7118C71.8384 84.9039 71.9344 85.7685 72.2224 86.1528C72.5104 86.5371 73.6622 86.7292 73.7581 86.9213C73.8541 87.1135 72.5103 87.1135 71.9344 87.2095C71.3585 87.3056 71.4545 88.0741 71.6465 88.4584C71.8384 88.8427 71.0706 89.2269 70.5906 89.323C70.1107 89.4191 70.5906 90.1876 71.0706 90.1876C71.5505 90.1876 71.9344 90.5719 72.3184 90.5719C72.7023 90.5719 72.7983 91.3404 72.7983 91.8207C72.7983 92.3011 72.3184 92.3971 71.7425 92.3971C71.1666 92.3971 70.8786 91.9168 70.4946 91.8207C70.1107 91.7247 70.2067 92.4932 69.9187 92.6853C69.6308 92.8775 69.5348 92.1089 69.0549 92.1089C68.5749 92.1089 68.095 92.0129 67.903 91.5325C67.7111 91.0522 66.6552 90.9561 66.2713 91.4365C65.8873 91.9168 65.6954 91.6286 65.3114 91.3404C64.9275 91.0522 63.7756 91.5325 63.6797 91.9168C63.5837 92.3011 62.7198 92.4932 62.1439 92.1089C61.568 91.7247 61.1841 91.5325 61.1841 92.1089C61.1841 92.6853 60.7041 92.205 60.7041 91.9168C60.7041 91.6286 59.7443 91.0522 59.2643 90.764C58.7844 90.4758 57.3446 90.4758 57.3446 90.1876C57.3446 89.8994 56.3848 89.6112 56.0968 90.1876C55.8088 90.764 55.5209 90.3797 55.2329 90.1876C54.945 89.9955 54.2731 90.3797 53.9851 90.5719C53.4092 90.9561 52.8333 91.2443 52.1614 91.4365C51.6815 91.4365 51.9694 92.1089 51.2975 92.3011C50.6256 92.4932 50.8176 92.8775 50.8176 93.1657C50.8176 93.4539 51.2975 94.0303 50.6256 94.2224C49.9537 94.4145 49.7617 93.4539 49.2818 93.0696C48.8019 92.6853 48.322 93.1657 48.322 93.646C48.322 94.1263 47.7461 94.2224 47.4581 94.7027C47.1701 95.1831 47.938 95.2791 47.938 95.5673C47.938 95.8555 47.4581 96.0477 47.3621 96.1437C47.2661 96.2398 46.8822 97.0083 46.9782 97.2005C47.0742 97.3926 48.034 97.3926 47.938 97.8729C47.842 98.3533 47.7461 98.9297 48.226 98.7375C48.6099 98.6415 48.9939 98.6415 49.4738 98.6415C49.7618 98.6415 49.9537 99.2179 50.5296 99.7943C51.1056 100.371 51.2975 100.755 50.7216 100.851C50.1457 100.947 50.4337 101.331 51.1056 101.62C51.2975 101.716 51.4895 101.812 51.6815 101.908C51.7774 101.812 51.8734 101.716 51.9694 101.716C52.9293 100.851 54.2731 100.371 55.5209 100.563C56.6727 100.851 57.6326 100.371 58.1125 101.043C58.5924 101.716 58.1125 103.061 58.3045 103.541C58.4965 104.021 57.4406 104.117 56.6727 104.021C55.9048 103.925 54.3691 104.309 54.561 104.79C54.753 105.27 55.3289 106.327 54.2731 105.75C53.2172 105.174 52.8333 106.327 53.4092 106.327C53.9851 106.327 54.753 106.999 54.753 107.48C54.753 107.96 54.849 108.921 55.3289 108.825C55.8089 108.728 55.8088 109.593 56.5767 109.497C57.3446 109.401 57.9205 109.689 57.3446 110.362C56.7687 111.034 57.7285 112.859 57.9205 112.475C58.0165 112.187 57.9205 111.707 58.1125 111.322C57.7286 110.362 59.3603 110.362 59.8402 110.362C60.3202 110.362 61.28 111.13 61.9519 111.995C62.6238 112.859 63.1997 112.283 63.1997 112.283L63.3917 104.79L67.7111 103.637C69.7268 104.982 71.6465 106.423 73.3742 107.96C73.4702 108.344 75.2939 107.672 75.5819 107.864C76.7337 107.96 77.8855 108.056 79.0373 107.96C79.5173 107.96 79.8053 108.825 80.3812 108.921C80.9571 109.017 80.7651 109.881 80.7651 110.554C80.7651 111.226 81.629 111.707 81.725 112.283C81.8209 112.859 82.6848 112.571 83.1647 112.667C83.6447 112.763 84.5085 112.955 84.6045 113.532C84.7005 114.108 85.3724 113.628 85.3724 113.244C85.3724 112.859 86.1403 112.283 87.1002 111.899C87.3881 111.707 87.7721 111.707 88.06 111.803C88.156 111.418 88.348 111.13 88.5399 110.842C88.9239 110.65 89.4998 110.169 89.5958 109.689C89.6917 109.209 91.0356 109.209 91.8994 109.593C92.7633 109.977 93.3392 110.073 93.4352 109.305C93.5312 108.536 94.779 108.44 95.1629 108.632C95.5469 108.825 96.7947 109.497 97.4666 109.305C98.9064 109.209 100.442 109.209 101.786 109.593C102.554 109.785 102.746 109.305 103.418 110.073C104.09 110.842 104.282 110.169 104.857 110.65C104.857 110.458 104.857 110.266 104.857 109.977C104.857 109.497 105.625 109.113 105.721 108.728C105.817 108.344 105.049 107.191 105.049 106.807C105.049 106.423 105.049 105.558 104.666 105.366C104.282 105.174 105.433 104.694 105.625 104.694C106.201 104.694 106.969 104.117 107.257 104.405C107.641 104.694 108.025 104.79 108.505 104.694C108.985 104.694 108.793 104.117 108.505 103.925C108.217 103.733 109.369 101.427 109.561 100.659C109.753 99.8903 110.137 100.563 110.713 100.659C111.193 100.659 111.768 100.659 112.248 100.755C112.824 100.851 113.4 100.563 113.88 100.179C114.072 99.7943 113.592 99.6982 113.592 98.8336C113.592 97.969 114.168 97.5847 114.744 97.5847C115.32 97.5847 115.512 97.1044 115.512 96.6241C115.512 96.1437 115.992 95.9516 116.088 95.5673C115.512 94.7027 115.32 94.5106 115.224 94.3185Z" fill="#43AAFF" stroke="white" stroke-width="0.1" stroke-miterlimit="10"/>
<path d="M5.41534 81.4455C5.0314 81.5416 4.64745 81.3495 4.3595 81.0613C4.26351 80.8691 3.78358 80.9652 3.30365 80.9652C3.39963 81.0613 3.49564 81.1573 3.59162 81.2534C3.78359 81.6377 2.72775 81.7337 3.0157 82.2141C3.30366 82.6944 2.2478 82.6944 2.2478 82.2141C2.2478 81.7337 1.09599 81.9259 1.09599 82.3101C1.09599 82.4062 1.09599 82.5983 1 82.6944L1.86386 82.9826C3.30365 83.1747 4.83942 83.2708 6.27921 83.1747C6.27921 82.7905 6.27921 82.4062 6.3752 82.0219C6.27921 81.6377 5.60731 81.3495 5.41534 81.4455ZM78.0764 4.01581C79.9961 3.82367 79.9002 2.76694 78.9403 2.5748C77.9804 2.38267 77.7885 3.1512 77.3085 3.1512C76.8286 3.1512 74.9089 3.4394 75.2928 3.91974C75.6768 4.40007 77.1166 4.11187 78.0764 4.01581ZM87.771 31.9712C88.4429 32.0673 90.1706 31.683 90.3626 31.3948C90.5546 31.1066 89.6907 30.6263 88.5389 30.6263C87.387 30.6263 87.195 31.8751 87.771 31.9712ZM124.821 6.3214C125.781 6.70567 125.397 6.99387 124.437 6.99387C123.478 6.99387 122.614 7.37814 123.286 7.57027C123.766 7.7624 123.766 8.3388 124.821 8.53094C125.877 8.72307 126.933 7.95454 126.837 7.37814C126.741 6.80174 130.485 6.22534 131.54 5.93714C132.596 5.64894 130.868 4.5922 132.02 4.49614C133.172 4.40007 132.692 3.91974 131.348 3.7276C130.005 3.53547 130.581 2.38267 130.101 1.9984C129.621 1.61414 129.429 2.47874 127.605 2.863C125.781 3.24727 125.013 3.63154 125.685 4.01581C126.357 4.40007 125.685 5.26467 124.917 5.1686C124.15 5.07254 123.862 5.84107 124.821 6.3214ZM127.509 7.7624C127.509 8.3388 125.877 8.81914 126.357 9.29947C126.837 9.7798 127.125 9.58767 127.605 9.68374C128.085 9.7798 128.373 11.0287 129.237 10.8365C130.101 10.6444 132.596 11.7972 134.036 11.7972C135.476 11.7972 135.668 10.5483 135.188 10.5483C134.708 10.5483 135.188 9.7798 135.956 8.627C136.724 7.4742 133.46 6.6096 133.46 7.57027C133.46 8.53094 132.5 7.37814 132.212 6.80174C131.924 6.22534 127.509 7.186 127.509 7.7624ZM102.361 32.7397C103.129 33.124 103.801 33.0279 103.705 32.1633C103.609 31.2987 101.785 32.3555 102.361 32.7397ZM123.478 2.76694C123.67 1.9984 120.31 2.38267 121.174 3.05514C121.558 3.24727 123.286 3.4394 123.478 2.76694ZM271.295 39.1762C272.255 39.6565 272.927 38.5998 273.695 39.1762C274.463 39.7526 276.479 38.888 277.246 38.7919C278.014 38.6959 277.63 37.6391 275.423 37.3509C273.215 37.0627 270.24 38.5998 271.295 39.1762ZM135.284 14.7753C135.956 15.1595 138.259 14.2949 139.795 14.2949C141.331 14.2949 145.554 13.1421 145.65 12.3736C145.746 11.6051 144.114 11.6051 143.443 10.9326C142.771 10.2601 141.331 10.8365 140.947 11.4129C140.563 11.9893 140.179 11.509 141.139 10.5483C142.099 9.58767 140.179 8.81914 140.179 9.4916C140.179 10.1641 138.355 9.58767 138.355 10.1641C138.355 10.7405 137.683 10.9326 137.779 11.509C137.875 12.0854 136.532 11.2208 136.532 12.4697C136.532 13.7185 134.516 14.391 135.284 14.7753ZM200.074 25.1505C200.554 25.4387 201.034 25.8229 201.418 26.3033C201.802 26.6875 203.338 26.1111 203.914 25.919C204.489 25.7269 204.585 26.7836 205.545 26.2072C206.505 25.6308 207.465 25.919 208.521 25.919C209.577 25.919 208.329 24.5741 208.329 23.9977C208.329 23.4213 209.673 23.8055 209.193 24.2859C208.713 24.7662 209.769 25.919 211.4 25.8229C213.032 25.7269 211.784 24.6701 212.648 24.3819C213.512 24.0937 213.32 23.6134 212.168 22.9409C211.016 22.2685 209.481 22.6527 208.521 22.2685C207.561 21.8842 206.121 21.7881 206.121 22.8449C206.121 23.9016 204.009 21.6921 202.858 21.3078C201.706 20.9235 198.346 24.2859 200.074 25.1505ZM210.537 31.5869C211.4 31.3948 209.865 29.7617 208.329 29.4735C206.793 29.1853 205.353 30.5302 205.545 30.8184C205.929 31.3948 209.577 31.7791 210.537 31.5869ZM206.505 28.2246C206.505 27.4561 203.818 28.5128 204.873 28.8971C205.545 29.0892 206.505 28.9931 206.505 28.2246ZM215.24 25.0544C216.392 25.1505 217.064 26.3033 219.367 26.4954C221.671 26.6875 223.399 26.2072 223.399 25.7269C223.399 25.2465 221.287 24.478 220.615 24.8623C219.943 25.2465 219.463 24.1898 218.695 24.478C217.927 24.7662 216.776 24.6701 216.392 23.9977C216.008 23.3252 214.664 25.0544 215.24 25.0544ZM47.553 4.68827C48.7048 3.63154 50.2406 4.5922 50.4326 4.11187C50.6245 3.63154 48.3209 3.4394 47.457 3.91974C46.5931 4.40007 44.5775 4.0158 44.8654 4.5922C45.5373 5.36074 46.6891 5.4568 47.553 4.68827ZM210.153 89.6112C209.577 88.1702 210.92 86.7292 209.961 85.9607C209.001 85.1921 209.385 83.6551 208.809 83.9433C208.233 84.2315 208.809 85.5764 208.041 85.6725C207.273 85.7685 207.945 86.5371 207.657 87.4977C207.465 88.6505 207.657 89.8033 208.233 90.8601C208.617 91.7247 207.657 96.6241 208.041 97.3926C208.425 98.1611 207.369 101.716 207.753 102.196C208.329 102.868 207.945 101.235 208.905 101.043C209.865 100.851 209.865 102.004 210.345 102.292C210.824 102.58 210.537 100.659 210.057 100.755C209.577 100.851 209.193 99.6021 208.905 98.7375C208.617 97.8729 209.385 97.0083 209.385 95.9516C209.385 94.8949 210.633 94.9909 211.4 95.7595C212.168 96.528 212.264 96.0477 211.976 95.4713C211.688 94.8949 210.729 91.0522 210.153 89.6112ZM52.2563 4.20794C52.9282 4.68827 50.3366 4.5922 49.9526 5.07254C49.5687 5.55287 48.0329 5.36074 48.3209 5.93714C48.6088 6.51354 51.1045 6.6096 51.1045 6.12927C51.1045 5.64894 52.4483 6.03321 52.4483 5.64894C52.4483 5.26467 53.0242 4.68827 54.464 4.5922C55.9038 4.49614 55.9037 4.0158 54.5599 3.34334C53.2161 2.67087 51.4884 3.7276 52.2563 4.20794ZM50.0486 44.8441C51.3924 46.093 52.5443 44.2677 53.2161 44.1717C53.8881 44.0756 52.8322 43.4031 51.6804 43.0189C50.5285 42.6346 48.9928 43.8835 50.0486 44.8441ZM290.589 53.3941C289.629 52.9137 288.765 52.3373 288.093 51.5688C287.709 50.9924 285.789 50.7042 285.789 50.9924C285.789 51.2806 285.117 50.8963 285.021 50.6081C284.925 50.3199 282.814 50.2239 282.814 50.6081C282.814 50.9924 283.294 50.9924 283.582 51.3767C283.87 51.7609 283.198 52.0491 283.294 52.4334C283.39 52.8177 282.526 52.2413 282.238 51.9531C281.95 51.6649 282.046 50.7042 282.142 50.2239C282.238 49.7435 281.566 49.8396 281.47 49.3593C281.374 48.8789 279.166 47.8222 278.206 47.4379C277.246 47.0537 275.999 46.6694 275.711 46.1891C275.423 45.7087 273.695 45.6127 273.023 44.9402C271.583 43.9795 269.952 43.3071 268.32 43.0189C267.072 42.9228 267.36 42.2503 266.784 42.3464C265.44 42.4425 264.096 42.3464 262.753 42.1543C261.985 42.0582 261.793 42.6346 261.217 42.4425C260.641 42.2503 257.665 41.0975 257.281 41.5779C256.898 42.0582 257.09 42.5385 256.706 42.6346C256.322 42.7307 256.706 43.211 257.569 43.9795C258.433 44.7481 257.857 45.3245 257.186 45.6127C256.322 45.8048 255.362 45.4205 254.882 44.7481C254.498 44.1717 253.442 44.4599 253.25 43.6913C253.058 42.9228 253.538 42.8267 254.018 43.211C254.306 43.4992 254.786 43.4031 255.074 43.1149C255.17 43.0189 255.266 42.8267 255.266 42.7307C255.362 42.1543 253.922 41.77 253.154 41.8661C252.386 41.9621 252.002 43.0189 251.138 43.4992C250.275 43.9795 247.203 43.3071 246.915 43.0189C246.627 42.7307 242.212 43.0189 241.828 43.3071C241.444 43.5953 241.732 44.7481 241.444 44.9402C241.156 45.1323 240.964 43.5953 240.964 43.3071C240.964 43.0189 240.292 42.8267 239.524 42.8267C238.756 42.8267 238.276 42.8267 238.66 42.4425C239.044 42.0582 238.372 41.77 238.948 41.3857C239.524 41.0015 237.796 39.6565 236.165 38.9841C234.533 38.3116 230.789 38.6959 229.734 38.9841C228.39 39.1762 227.142 39.2723 225.798 39.1762C224.838 39.1762 225.606 38.7919 225.318 38.3116C225.03 37.8313 223.399 37.3509 223.207 37.6391C223.015 37.9273 222.535 37.6391 222.535 37.3509C222.535 37.0627 220.999 36.4863 220.423 36.6785C219.847 36.8706 219.559 36.1021 220.231 36.1021C220.903 36.1021 222.151 36.2942 221.575 35.4296C220.999 34.565 216.584 34.3729 216.104 34.4689C215.624 34.565 216.104 35.2375 215.144 36.1021C214.184 36.9667 213.224 36.3903 213.32 35.9099C213.416 35.4296 214.664 35.5257 214.664 35.0453C214.664 34.565 213.032 34.8532 212.744 34.4689C212.456 34.0847 213.128 33.7965 213.704 33.9886C214.28 34.1807 215.336 34.2768 215.432 33.9886C215.528 33.7004 214.76 33.7004 213.8 33.5083C212.264 33.124 210.632 32.9319 209.097 32.8358C207.849 32.9319 207.273 32.3555 206.505 32.3555C205.737 32.3555 205.833 32.7397 206.121 33.124C206.409 33.5083 205.449 33.7965 204.585 33.6043C203.722 33.4122 202.57 34.0847 203.05 34.6611C203.53 35.2375 204.01 34.4689 204.393 34.6611C204.777 34.8532 203.338 35.3335 203.914 35.5257C204.489 35.7178 204.393 36.3903 204.393 36.6785C204.393 36.9667 203.434 37.1588 203.05 36.6785C202.666 36.1981 202.186 36.6785 201.418 36.5824C200.65 36.4863 200.17 36.8706 200.938 36.9667C201.706 37.0627 201.898 37.5431 200.938 37.6391C199.978 37.7352 200.17 36.6785 199.594 36.8706C199.018 37.0627 197.674 36.3903 197.003 36.3903C196.331 36.3903 195.947 36.9667 195.083 37.0627C194.123 37.0627 193.163 36.7745 192.491 36.1021C192.107 35.6217 192.011 35.4296 191.531 36.006C191.051 36.5824 191.051 37.7352 190.572 37.7352C190.092 37.7352 189.9 38.7919 189.516 39.0801C189.132 39.3683 189.036 38.6959 188.46 38.7919C187.884 38.888 186.06 37.0627 185.964 36.4863C185.868 35.9099 184.716 34.9493 184.428 34.7571C184.14 34.565 184.716 34.4689 185.1 34.7571C185.484 35.0453 185.964 35.1414 186.348 34.8532C186.636 34.6611 186.636 34.1807 186.444 33.8925C186.348 33.7965 186.156 33.7004 186.06 33.7004C185.388 33.7004 185.676 33.124 185.964 33.0279C186.252 32.9319 185.196 31.9712 185.58 31.8751C185.964 31.7791 185.772 31.3948 185.292 31.2987C184.812 31.2027 184.14 30.8184 184.14 30.5302C184.14 30.242 181.741 30.1459 181.933 30.5302C182.125 30.9145 181.165 30.8184 181.261 30.5302C181.357 30.242 180.397 30.3381 179.341 30.0499C178.285 29.7617 178.189 28.9931 177.805 28.8971C177.422 28.801 177.518 29.9538 177.038 29.7617C176.75 29.5695 176.366 29.6656 176.174 30.0499C176.078 30.242 176.078 30.5302 176.174 30.7223C176.462 31.3948 176.174 31.4909 176.174 31.9712C176.174 32.4515 175.79 32.2594 175.214 32.0673C174.638 31.8751 174.542 32.6437 173.198 32.2594C171.854 31.8751 171.182 32.2594 170.894 31.7791C170.607 31.2987 170.223 31.2987 170.127 31.683C170.031 32.0673 167.919 31.8751 167.727 31.3948C167.535 30.9145 168.111 30.7223 168.399 30.6263C168.687 30.5302 168.015 30.242 166.863 30.3381C165.711 30.4341 164.943 29.7617 163.696 29.8577C162.256 29.9538 160.816 30.1459 159.472 30.4341C159.088 30.6263 159.856 31.2987 159.28 31.2987C158.704 31.2987 159.088 30.1459 158.992 29.6656C158.896 29.1853 158.032 28.9931 158.128 29.4735C158.224 29.9538 156.785 30.0499 156.401 29.7617C155.825 29.2813 155.153 28.9931 154.481 28.801C153.521 28.5128 152.273 29.5695 152.561 29.9538C152.849 30.3381 153.521 30.0499 153.617 30.242C153.617 30.6263 151.505 30.5302 151.505 30.8184C151.505 31.1066 149.49 31.683 148.914 31.683C147.282 31.8751 146.898 31.8751 146.13 32.5476C145.362 33.2201 145.938 31.9712 146.514 31.3948C147.09 30.8184 147.762 31.0105 148.05 30.5302C148.338 30.0499 148.914 30.1459 149.874 29.9538C150.833 29.7617 150.738 29.2813 151.217 29.0892C151.697 28.8971 152.753 28.4167 152.945 28.0325C153.137 27.6482 155.441 26.7836 155.825 26.8797C156.209 26.9757 156.401 26.0151 156.593 26.0151C157.265 25.8229 158.032 25.5347 158.608 25.2465C158.992 25.0544 159.28 24.6701 159.376 24.1898C159.376 23.9016 158.704 23.9016 158.608 23.6134C158.512 23.3252 158.896 23.5173 159.472 23.3252C160.048 23.1331 159.472 22.4606 159.088 22.5567C158.704 22.6527 159.28 22.1724 158.896 21.6921C158.512 21.2117 157.744 21.9803 157.744 21.4999C157.84 21.0196 157.648 20.5393 157.361 20.155C157.073 19.8668 156.497 20.6353 155.921 20.155C155.345 19.6747 153.425 19.3865 153.425 19.5786C153.425 19.7707 152.561 19.2904 152.369 19.4825C151.697 19.6747 150.929 19.6747 150.258 19.4825C149.778 19.3865 149.202 19.6747 149.202 20.0589C149.202 20.4432 147.378 20.3471 147.09 20.2511C146.802 20.155 148.338 18.9061 148.338 18.714C148.338 18.5219 145.65 18.8101 145.554 18.5219C145.458 18.2337 144.115 18.1376 143.539 18.2337C142.963 18.3297 143.539 18.0415 144.019 18.0415C144.498 18.0415 144.978 17.5612 145.554 17.4651C146.13 17.3691 146.034 17.1769 145.746 16.7927C145.458 16.4084 144.882 16.6005 144.306 16.4084C143.731 16.2163 143.155 16.0241 142.483 15.9281C141.715 16.0241 140.947 16.2163 140.275 16.4084C139.123 16.6005 139.027 17.5612 138.355 17.8494C137.683 18.1376 136.724 19.1943 137.204 19.2904C137.683 19.3865 137.492 19.6747 137.492 20.0589C137.492 20.4432 137.108 20.4432 136.532 20.3471C135.956 20.2511 133.94 20.2511 133.94 20.7314C133.94 21.2117 135.092 21.3078 134.996 21.596C134.9 21.8842 134.132 21.596 133.748 21.3078C133.364 21.0196 132.404 21.2117 132.308 21.596C132.212 21.9803 131.444 21.8842 131.156 21.7881C130.868 21.6921 130.389 21.9803 130.101 21.8842C129.813 21.7881 130.868 21.2117 130.581 20.9235C130.293 20.6353 129.141 20.9235 128.949 21.3078C128.757 21.6921 128.085 21.0196 127.797 21.1157C127.413 21.3078 127.029 21.4999 126.741 21.6921C126.261 21.8842 125.301 21.4039 125.109 21.8842C124.917 22.3645 126.069 22.3645 126.165 22.5567C126.261 22.7488 123.382 22.7488 123.382 23.037C123.382 23.3252 122.422 23.3252 121.27 23.3252C120.118 23.3252 120.598 23.9016 119.734 24.0937C118.87 24.2859 118.39 24.2859 118.102 24.7662C117.814 25.1505 117.335 25.2465 116.855 25.0544C116.855 25.0544 116.759 25.0544 116.759 24.9583C116.471 24.5741 115.607 25.1505 116.087 25.1505C116.567 25.1505 116.087 25.6308 115.799 25.5347C115.511 25.4387 114.743 26.0151 115.223 26.0151C115.703 26.0151 115.895 26.3033 115.703 26.5915C115.511 26.8797 114.455 26.3033 114.263 26.4954C114.071 26.6875 114.743 27.0718 115.223 26.9757C115.607 26.8797 115.895 27.1679 115.991 27.5521C115.991 27.8403 114.935 27.36 114.743 27.6482C114.551 27.9364 114.935 28.0325 115.415 28.1285C115.895 28.2246 115.511 28.3207 115.991 28.7049L116.087 28.801C116.375 29.0892 115.895 29.1853 115.895 29.5695C115.895 29.9538 115.415 30.0499 115.415 29.7617C115.415 29.4735 114.071 29.3774 113.783 29.6656C113.495 29.9538 113.303 30.242 113.015 29.9538C112.727 29.6656 111.767 30.0499 110.52 30.0499C109.08 30.0499 107.544 30.1459 106.104 30.4341C105.528 30.6263 104.952 31.5869 105.528 32.1633C106.104 32.7397 105.528 33.0279 105.528 33.4122C105.528 33.7965 107.064 34.565 107.832 34.6611C108.6 34.7571 109.272 35.7178 108.792 36.2942C108.312 36.8706 106.872 36.1021 105.912 35.3335C104.76 34.6611 103.417 34.3729 102.073 34.3729C101.305 34.4689 101.785 33.7004 100.825 33.7004C99.8652 33.7004 99.0973 34.565 99.7692 34.565C100.441 34.565 100.825 34.565 100.441 34.8532C100.057 35.1414 100.633 35.0453 101.401 35.4296C102.169 35.8139 100.825 36.1981 99.9611 35.7178C99.3852 35.3335 98.5214 35.4296 98.1374 36.1021C97.9454 36.4863 99.0013 37.6391 100.441 37.8313C101.881 38.0234 101.305 38.5037 101.977 38.6959C102.649 38.888 102.169 39.1762 101.689 39.1762C101.209 39.1762 100.441 38.5037 99.7692 38.2155C99.0973 37.9273 97.2735 38.4077 96.8896 37.9273C96.5056 37.447 97.1775 37.1588 96.7936 36.7745C96.4097 36.3903 96.7936 35.8139 97.1776 35.0453C97.5615 34.2768 97.2735 33.3161 96.4097 32.9319C95.7378 32.7397 95.8337 33.4122 95.9297 33.6043C96.0257 34.2768 95.9297 34.8532 95.5458 35.4296C95.0659 36.1021 93.5301 36.1021 93.5301 36.4863C93.5301 36.8706 92.4743 37.2549 92.8582 37.5431C93.6261 38.2155 94.202 39.0801 94.7779 39.8487C94.9699 40.329 93.5301 41.8661 93.8181 42.7307C94.106 43.5953 93.6261 43.9795 93.914 44.4599C94.202 44.9402 94.7779 44.4599 95.2579 44.652C95.7378 44.8441 96.3137 44.3638 97.2735 44.2677C98.2334 44.1717 99.8652 45.0363 100.537 45.4205C101.209 45.8048 100.825 46.1891 101.113 46.7655C101.401 47.3419 100.345 47.2458 100.345 48.0143C100.345 48.7829 102.265 49.0711 102.265 49.3593C102.265 49.6475 100.921 49.3593 100.345 49.1671C99.7692 48.975 99.7692 48.2065 99.5772 48.1104C99.3852 48.0143 99.9611 47.3419 99.9611 46.8615C99.9611 46.3812 99.3852 46.093 99.0973 45.8048C98.8093 45.5166 98.4254 45.0363 98.0414 45.1323C97.6575 45.2284 95.9297 45.4205 95.4498 45.8048C94.9699 46.1891 95.5458 47.534 95.8337 48.2065C96.1217 48.8789 94.394 49.7435 94.394 50.2239C94.394 50.7042 93.914 50.9924 93.1462 51.3767C92.3783 51.7609 91.6104 52.0491 91.6104 52.7216C91.6104 53.3941 90.6505 53.0098 90.0746 52.7216C89.4987 52.4334 88.9228 52.9137 88.1549 52.9137C87.387 52.9137 87.387 52.2413 86.8111 52.4334C86.5231 52.6255 86.1392 52.5295 86.0432 52.2413C85.9472 52.0491 85.9472 51.9531 86.0432 51.7609C86.2352 51.2806 86.9071 51.6649 86.9071 51.9531C86.9071 52.2413 87.387 52.1452 87.867 51.857C88.3469 51.5688 88.1549 52.2413 88.8268 52.2413C89.4987 52.2413 89.1148 51.857 89.6907 51.9531C90.2666 52.0491 90.2666 51.857 90.0746 51.5688C89.8826 51.2806 90.4586 51.0885 90.8425 50.8963C91.2264 50.7042 91.0345 50.1278 91.3224 50.0317C91.6104 49.9357 91.4184 49.5514 91.8024 49.4553C92.1863 49.3593 92.2823 48.8789 92.6662 48.8789C93.0502 48.8789 93.1461 48.3986 92.9542 48.1104C92.7622 47.8222 93.0502 47.0537 93.4341 46.9576C93.818 46.8615 93.818 46.5733 93.5301 46.2851C93.2421 45.9969 92.0903 45.3245 92.1863 44.8441C92.2823 44.3638 91.9943 43.4992 92.1863 43.1149C92.2823 42.5385 92.2823 42.0582 92.1863 41.4818C92.2823 40.9054 92.3783 40.329 92.6662 39.7526C92.7622 38.888 91.8024 38.0234 91.3224 37.8313C90.8425 37.6391 91.1305 37.1588 91.8984 36.5824C92.6662 36.006 92.6662 34.0847 92.6662 33.7004C92.6662 33.3161 91.1304 32.9319 90.5545 33.0279C89.4987 33.0279 88.3469 33.0279 87.291 32.8358C86.8111 32.7397 86.6191 33.3161 86.3312 33.7965C85.8512 34.565 85.4673 35.3335 85.1794 36.1981C84.8914 37.3509 83.5476 37.6391 82.8757 37.9273C82.2038 38.2155 81.9158 38.9841 82.2038 39.3683C82.4918 39.7526 82.8757 39.4644 83.1637 39.5605C83.4516 39.6565 83.1637 40.8093 82.9717 40.9054C82.7797 41.0015 83.2596 41.3857 82.8757 41.6739C82.4917 41.9621 82.0118 42.5385 82.2998 42.8267C82.5878 43.1149 83.7396 43.3071 84.3155 43.5953C84.8914 43.8835 84.6034 44.4599 85.0834 44.9402C85.5633 45.4205 85.9473 45.1323 86.1392 45.4205C86.3312 45.7087 85.3713 47.0537 85.0834 47.1497C84.7954 47.2458 83.4516 45.8048 83.0677 45.5166C82.6837 45.2284 81.148 44.7481 80.2841 44.3638C79.5162 44.0756 78.7483 43.7874 77.9804 43.4031C77.0206 42.7307 75.9647 42.4425 74.8129 42.5385C73.2771 42.5385 72.2213 42.1543 71.7414 42.2503C71.2615 42.3464 71.4534 41.77 70.4936 41.2897C69.5337 40.8093 68.9578 40.329 68.4779 40.6172C67.9979 40.9054 68.1899 41.8661 68.9578 42.0582C69.7257 42.2503 69.3417 42.6346 70.2056 42.5385C71.0695 42.4425 71.2615 42.8267 71.2615 43.3071C71.3574 43.8835 71.6454 44.3638 72.0293 44.7481C72.4133 45.1323 72.2213 45.7087 71.5494 45.7087C70.8775 45.7087 70.1096 45.8048 70.3976 46.2851C70.6855 46.7655 70.2056 46.8615 69.5337 46.6694C68.8618 46.4773 69.2457 45.9009 69.5337 45.7087C69.8217 45.5166 68.9578 45.0363 68.4779 44.9402C67.9979 44.8441 66.3662 45.9969 65.8863 46.1891C65.4063 46.3812 64.2545 45.9009 63.0067 46.1891C61.7589 46.4773 61.8549 47.4379 61.4709 47.3419C61.087 47.2458 59.6472 47.4379 59.1673 47.1497C58.6873 46.8615 59.0713 46.6694 59.6472 46.6694C60.2231 46.6694 60.3191 46.4773 60.0311 46.1891C59.7432 45.9009 60.4151 45.3245 60.4151 45.0363C60.4151 44.7481 58.3994 45.4205 58.1114 45.7087C57.8235 45.9969 58.1114 46.4773 57.8235 46.6694C57.5355 46.8615 57.4395 46.3812 57.0556 46.1891C56.6716 45.9969 53.6961 46.6694 53.1202 47.3419C52.5442 48.0143 51.4884 48.0143 51.4884 48.3025C51.4884 48.5907 50.1446 48.5907 49.6647 48.8789C49.1848 49.1671 49.4727 50.1278 49.2807 50.7042C49.0888 51.2806 46.9771 51.0885 46.4012 51.0885C45.8253 51.0885 45.5373 49.8396 45.0574 49.8396C44.5774 49.8396 44.8654 49.0711 45.0574 48.7829C45.2493 48.4947 45.6333 48.7829 46.2092 48.3025C46.7851 47.8222 47.457 48.4947 47.745 48.2065C48.0329 47.9183 46.7851 47.2458 46.6891 46.5733C46.5932 45.9009 45.2493 45.8048 44.5774 45.9969C43.9055 46.1891 43.1377 46.093 42.4658 45.8048C41.9859 45.5166 41.9858 46.2851 42.7537 46.4773C43.5216 46.6694 43.1377 47.2458 43.2337 47.6301C43.2337 48.3025 43.0417 48.975 42.5617 49.5514C42.0818 50.2239 42.4658 50.2239 43.1377 50.1278C43.8096 50.0317 43.8096 50.9924 43.8096 51.6649C43.8096 52.3373 43.3296 52.5295 43.3296 53.0098C43.3296 53.4901 42.7537 52.8177 42.5617 53.0098C42.3698 53.2019 42.1778 52.9137 42.0818 52.5295C41.9858 52.1452 40.93 52.3373 40.3541 52.2413C39.7782 52.1452 39.5862 52.3373 39.2982 52.7216C38.9143 53.1059 38.3384 53.298 37.7625 53.3941C37.2825 53.3941 36.6107 54.2587 36.1307 54.5469C35.6508 54.8351 35.6508 55.4115 36.2267 55.9879C36.8026 56.5643 36.9946 56.9485 36.8986 57.3328C36.8026 57.7171 35.1709 57.5249 34.8829 57.2367C34.403 56.8525 33.7311 56.7564 33.1552 56.8525C32.7712 56.9485 31.7154 55.6997 31.2355 55.6997C30.7555 55.6997 30.3716 56.3721 30.1796 56.6603C29.9876 56.9485 30.4676 57.0446 30.6595 57.621C30.8515 58.1974 31.8114 58.1974 32.2913 58.1974C32.7712 58.1974 32.5793 58.9659 32.3873 59.2541C32.1953 59.5423 31.3314 59.8305 31.1395 59.4463C30.9475 59.062 29.7957 59.4463 29.7957 59.062C29.7957 58.6777 29.0278 58.1013 28.2599 58.1974C27.492 58.2935 27.3 57.8131 27.396 57.2367C27.492 56.6603 26.9161 56.2761 27.0121 55.9879C27.1081 55.6997 26.6282 55.1233 27.0121 54.8351C27.396 54.5469 27.1081 54.1626 27.1081 53.7783C27.1081 53.3941 26.4362 52.8177 25.7643 52.8177C25.0924 52.8177 25.2844 52.1452 24.7085 52.0491C24.0366 51.7609 23.4606 51.2806 23.0767 50.7042C22.9807 50.3199 22.2128 50.3199 22.5008 50.1278C22.9807 50.0317 23.5566 50.2239 23.8446 50.6081C24.5165 51.1845 25.2843 51.5688 26.2442 51.5688C27.396 51.7609 27.876 52.2413 29.2198 52.5295C30.5636 52.8177 31.3314 52.9137 33.1552 53.2019C34.9789 53.4901 37.5705 51.5688 38.0504 51.0885C38.5304 50.6081 37.8585 49.4553 37.8585 49.0711C37.8585 48.6868 36.9946 48.5907 36.8986 48.3025C36.6106 47.8222 36.1307 47.4379 35.4588 47.4379C34.6909 47.4379 34.5949 46.5733 34.019 46.6694C33.4431 46.7655 33.0592 46.3812 31.5234 45.4205C29.9876 44.4599 27.972 43.6913 27.588 43.8835C27.2041 44.0756 27.0121 44.1717 26.7241 43.7874C26.4362 43.4031 25.8603 43.4031 25.4763 43.7874C25.0924 44.0756 24.7084 43.4992 23.9405 43.6913C23.1727 43.8835 22.7887 43.4031 22.9807 43.1149C23.1727 42.8267 24.3245 43.1149 24.2285 42.7307C24.1325 42.3464 23.7486 42.7307 23.0767 42.2503C22.4048 41.77 22.0208 42.0582 21.9248 42.4425C21.8289 42.8267 21.253 42.7307 20.869 42.4425L20.773 42.3464C20.677 43.0189 20.2931 43.0189 19.9092 42.9228C19.5252 42.8267 19.0453 43.5953 18.4694 43.5953C17.8935 43.6913 17.5095 44.0756 17.3175 44.5559C17.2216 45.0363 16.6456 44.7481 16.6456 45.0363C16.6456 45.3245 16.5497 45.7087 16.3577 45.9009C16.0697 46.1891 16.3577 46.3812 16.6456 46.8615C16.9336 47.3419 17.4135 47.3419 17.7015 47.4379C17.9894 47.534 18.9493 48.3986 18.9493 48.6868C18.9493 48.975 18.1814 49.7435 17.8935 49.9357C17.6055 50.1278 17.2216 50.6081 17.4135 50.8963C17.6055 51.1845 18.4694 52.4334 19.0453 53.4901C19.6212 54.4508 18.8533 54.0665 18.4694 54.5469C18.0854 55.0272 18.5654 55.5075 18.7573 55.8918C18.9493 56.2761 18.2774 56.18 18.3734 56.3721C18.4694 56.5643 19.1413 56.7564 19.2373 56.9485C19.3332 57.1407 18.7573 57.4289 18.9493 57.8131C19.1413 58.1974 19.8132 58.1974 19.8132 58.6777C19.8132 59.1581 18.7573 59.2541 18.7573 59.6384C18.7573 60.0227 20.2931 60.503 20.869 61.2715C21.4449 62.0401 21.4449 62.2322 21.349 62.6165C21.061 63.385 19.2373 64.1535 18.8533 65.0181C18.4694 65.8827 16.9336 66.4591 16.2617 67.1316C15.9737 67.4198 15.6858 67.8041 15.4938 68.1883C15.7818 68.0923 15.9737 68.0923 16.1657 67.9001C16.5497 67.708 16.8376 68.6687 17.2216 69.0529C17.6055 69.4372 18.4694 69.0529 18.6613 69.3411C18.8533 69.6293 18.4694 69.6293 17.8935 69.5333C17.3176 69.4372 17.1256 69.8215 16.2617 70.1097C15.5898 70.3018 15.6858 70.59 15.3978 70.7821C15.7818 71.3585 15.3019 71.4546 15.0139 71.9349C14.7259 72.4153 14.534 72.5113 14.438 72.7995C14.438 73.0877 14.534 73.472 14.534 73.7602C14.534 74.1445 14.63 74.4327 14.9179 74.7209C15.2059 75.1051 14.7259 75.1051 14.438 75.2973C14.15 75.4894 14.342 75.8737 14.63 76.2579C14.9179 76.5461 14.9179 76.9304 14.8219 77.2186C14.7259 77.5068 15.1099 77.8911 15.3018 78.1793C15.4938 78.4675 15.4938 79.1399 15.7818 79.3321C15.9737 79.6203 16.3577 79.7163 16.7416 79.6203C17.1256 79.5242 17.5095 79.7163 17.6055 80.0045C17.7975 80.2927 18.0854 80.1967 18.4694 80.0045C18.8533 79.8124 19.8132 80.2927 20.0051 80.4849C20.1971 80.677 20.1011 81.2534 20.1011 81.6377C20.1011 82.0219 19.9092 82.5983 20.2931 82.7905C20.677 82.9826 20.5811 83.6551 21.061 83.8472C21.5409 84.0393 21.7329 84.7118 22.0208 84.8079C22.4048 84.9039 22.7887 85.2882 22.9807 85.6725C23.0767 86.0567 22.5008 86.3449 22.1168 86.441C21.7329 86.5371 21.157 85.9607 20.965 86.2489C20.773 86.5371 21.061 87.0174 21.253 87.882C21.4449 88.7466 21.6369 88.7466 22.0208 88.7466C22.4048 88.7466 22.5008 88.4584 22.7887 88.3623C23.0767 88.2663 23.6526 88.4584 23.9405 88.3623C24.2285 88.2663 25.0924 88.1702 25.3803 88.5545C25.5723 88.9387 25.6683 89.4191 25.5723 89.8033C25.4763 90.0915 25.7643 90.3797 25.9563 90.764C26.1482 91.1483 26.9161 90.9561 27.2041 91.0522C27.492 91.1483 28.0679 92.0129 27.972 92.3971C27.876 92.7814 28.3559 92.8775 28.6438 92.6853C28.9318 92.4932 29.1238 92.8775 29.5077 93.0696C29.7957 93.2617 30.1796 93.1657 30.3716 92.9735C30.6595 92.7814 31.1395 92.6853 31.3314 92.8775C31.5234 93.0696 32.0993 93.646 32.0993 93.7421C32.0993 93.8381 33.0592 93.7421 33.5391 93.9342C34.019 94.1263 34.499 94.0303 34.9789 94.3185C35.4588 94.6067 35.9387 94.6067 35.9387 94.8949C35.9387 95.1831 35.4588 95.4713 35.4588 95.6634C35.4588 95.8555 35.8428 95.9516 35.8428 96.1437C35.8428 96.3359 35.3629 96.3359 35.2669 96.528C35.1709 96.7201 35.5548 97.0083 35.6508 97.2005C35.7468 97.3926 35.3628 98.0651 35.3628 98.2572C35.3628 98.4493 34.211 98.2572 33.923 98.2572C33.6351 98.2572 32.8672 99.1218 32.5793 99.1218C32.2913 99.1218 32.4833 99.6021 32.5793 99.8903C33.4431 99.6982 34.211 99.6982 34.307 99.8903C34.403 100.082 32.5793 101.043 32.1953 101.139C31.8114 101.235 32.8672 101.812 32.8672 102.1C32.8672 102.388 31.8114 102.484 31.9074 103.061C32.0034 103.637 31.5234 103.829 30.9475 103.829C30.3716 103.829 30.1796 104.213 30.4676 104.213C30.7555 104.213 30.7555 104.982 31.8114 105.27C33.0592 105.75 34.115 106.519 34.9789 107.576C35.0749 107.672 35.2668 107.864 35.4588 107.96C35.6508 107.864 35.8428 107.768 36.1307 107.672C36.8986 107.672 37.5705 107.864 38.1464 108.248C38.6264 108.632 40.5461 108.152 40.834 108.44C41.122 108.825 41.5059 109.017 41.8899 109.113C42.2738 109.113 42.6578 109.881 42.9457 109.689C43.5216 109.497 44.0975 109.401 44.6734 109.497C44.9614 109.497 44.9614 109.689 45.2494 109.689C45.5373 109.689 45.5373 110.842 45.7293 110.746C45.9213 110.65 46.7851 111.418 47.2651 111.514C47.745 111.61 48.3209 112.475 48.5129 112.379C48.7048 112.283 49.0888 112.763 49.2807 112.379C49.4727 111.995 50.1446 112.187 50.3366 111.61C49.3767 110.458 48.3209 109.113 48.4169 108.632C48.5129 107.768 48.8008 107.191 47.745 106.327C46.6891 105.462 47.841 104.79 48.6089 103.829C49.3767 102.868 50.7205 102.58 51.5844 102.004C51.3924 101.908 51.2005 101.812 51.0085 101.716C50.3366 101.427 50.0486 101.139 50.6246 100.947C51.2005 100.755 50.9125 100.467 50.4326 99.8903C49.9526 99.3139 49.6647 98.7375 49.3767 98.7375C48.9928 98.7375 48.6089 98.7375 48.1289 98.8336C47.649 99.0257 47.745 98.4493 47.841 97.969C47.9369 97.4887 46.9771 97.4887 46.8811 97.2965C46.7851 97.1044 47.0731 96.3359 47.2651 96.2398C47.457 96.1437 47.841 95.9516 47.841 95.6634C47.841 95.3752 46.9771 95.3752 47.361 94.7988C47.745 94.2224 48.2249 94.2224 48.2249 93.7421C48.2249 93.2617 48.7048 92.7814 49.1848 93.1657C49.6647 93.5499 49.9527 94.5106 50.5286 94.3185C51.1045 94.1263 50.7205 93.5499 50.7205 93.2617C50.7205 92.9735 50.5285 92.4932 51.2004 92.3971C51.8723 92.3011 51.5844 91.5325 52.0643 91.5325C52.7362 91.3404 53.3121 91.0522 53.8881 90.6679C54.176 90.4758 54.8479 90.0915 55.1359 90.2837C55.4238 90.4758 55.8078 90.8601 55.9997 90.2837C56.1917 89.7073 57.1516 89.9955 57.2476 90.2837C57.3435 90.5719 58.7833 90.5719 59.1673 90.8601C59.5512 91.1483 60.6071 91.7247 60.6071 92.0129C60.6071 92.3011 61.087 92.7814 61.087 92.205C61.087 91.6286 61.4709 91.8207 62.0468 92.205C62.6227 92.5893 63.4866 92.3971 63.5826 92.0129C63.6786 91.6286 64.8304 91.1483 65.2143 91.4365C65.5983 91.7247 65.6943 92.0129 66.1742 91.5325C66.6541 91.0522 67.71 91.1483 67.806 91.6286C67.902 92.1089 68.4779 92.205 68.9578 92.205C69.4377 92.205 69.4377 92.8775 69.8217 92.7814C70.2056 92.6853 70.0136 91.9168 70.3976 91.9168C70.7815 91.9168 71.0695 92.4932 71.6454 92.4932C72.2213 92.4932 72.7012 92.3011 72.7012 91.9168C72.7012 91.5325 72.6053 90.6679 72.2213 90.6679C71.8374 90.6679 71.4534 90.2837 70.9735 90.2837C70.4936 90.2837 70.1096 89.5151 70.4936 89.4191C70.8775 89.323 71.7414 88.8427 71.5494 88.5545C71.3574 88.2663 71.2614 87.4017 71.8373 87.3056C72.4133 87.2095 73.7571 87.2095 73.6611 87.0174C73.5651 86.8253 72.4133 86.6331 72.1253 86.2489C71.8374 85.8646 71.8374 85 72.0293 84.8079C72.2213 84.6157 72.9892 84.9039 73.4691 84.7118C73.949 84.5197 74.9089 84.9039 75.4848 84.5197C76.2527 84.1354 77.1166 83.9433 78.0764 83.9433C78.7483 83.9433 79.2283 83.4629 79.8042 83.3669C80.5721 83.2708 81.4359 83.0787 82.2038 82.8865C82.5877 82.6944 84.6035 82.4062 84.6994 82.0219C84.7954 81.6377 86.4272 81.3495 86.8111 81.5416C87.195 81.7337 87.675 81.8298 88.1549 81.7337C88.5388 81.5416 89.3067 82.0219 89.2107 82.4062C89.1148 82.7905 89.5947 83.2708 89.4987 83.559C89.4027 83.8472 89.1148 84.0393 89.3067 84.3275C89.4987 84.6157 90.5546 84.4236 90.8425 84.0393C91.1305 83.6551 91.5144 84.2315 91.5144 84.4236C91.5144 84.6157 91.9943 84.9039 91.9943 84.5197C91.9943 84.1354 92.5703 84.4236 92.7622 84.6157C92.9542 84.8079 93.6261 84.3275 93.6261 84.7118C93.6261 85.0961 92.5702 85.3843 93.0502 85.7685C93.5301 86.1528 93.8181 85.2882 94.298 85.4803C94.7779 85.6725 95.6418 84.8079 96.1217 84.7118C96.6976 84.5197 97.1776 84.2315 97.6575 83.8472C98.1374 83.559 99.0973 83.6551 98.8093 83.9433C98.5213 84.2315 98.1374 84.8079 99.2892 85.1921C100.441 85.5764 101.689 87.7859 102.457 88.8427C103.225 89.8994 103.897 91.9168 104.185 91.9168C104.472 91.9168 104.664 90.9561 105.144 90.8601C105.624 90.764 105.912 91.7247 106.488 91.8207C107.064 91.9168 107.736 92.205 108.12 92.1089C108.504 92.0129 109.464 91.4365 109.848 91.6286C110.232 91.8207 110.616 91.8207 110.903 92.4932C111.191 93.1657 111.671 93.3578 111.959 93.3578C112.247 93.3578 112.343 93.646 112.343 94.0303C112.343 94.4145 112.919 94.7027 113.207 94.7027C113.687 94.7027 114.167 94.6067 114.551 94.4145C114.839 94.2224 115.127 94.1263 115.127 94.4145C115.127 94.7027 115.607 95.2791 115.895 95.2791C116.183 95.2791 116.759 95.5673 116.855 95.2791C116.951 94.9909 117.718 94.8949 118.006 94.7988C118.294 94.7027 119.35 94.5106 119.542 94.1263C119.734 93.7421 120.598 93.646 120.886 93.3578C121.174 93.0696 121.846 92.8775 121.942 92.5893C122.038 92.3011 122.998 92.3011 123.094 92.1089C123.19 91.9168 123.958 91.8207 124.341 91.9168C125.109 92.1089 125.877 92.205 126.741 92.3011C127.029 92.205 127.029 93.1657 127.317 93.2617C127.605 93.3578 128.469 94.0303 128.757 93.8381C129.141 93.5499 129.717 93.5499 130.101 93.7421C130.581 94.0303 131.06 94.4145 131.252 94.1263C131.444 93.8381 132.5 93.646 132.692 93.4539C132.884 93.2617 132.98 92.6853 132.692 92.4932C132.404 92.1089 132.212 91.6286 132.116 91.0522C132.02 90.6679 132.692 90.5719 132.788 90.1876C132.884 89.8033 133.46 89.8033 133.748 89.6112C134.036 89.4191 134.036 88.9387 134.324 89.0348C134.804 89.1309 135.188 89.323 135.572 89.5151C135.86 89.7073 136.244 89.8033 136.628 89.8033C137.108 89.8994 137.492 90.0915 137.875 90.2837C138.259 90.4758 139.315 90.4758 139.507 90.764C139.699 91.0522 139.507 91.9168 139.699 92.205C139.891 92.4932 140.563 93.1657 140.755 92.9735C140.947 92.7814 141.907 93.4539 142.291 93.4539C142.675 93.4539 143.155 92.8775 143.443 92.8775C143.731 92.8775 144.69 92.5893 144.978 92.6853C145.458 92.8775 146.034 92.9735 146.514 93.0696C146.706 92.9735 147.666 93.0696 147.858 93.4539C148.05 93.8381 149.298 93.7421 149.298 94.1263C149.298 94.5106 149.97 94.7027 150.162 95.087C150.354 95.4713 151.985 95.2791 152.273 95.4713C153.041 95.6634 153.809 95.6634 154.577 95.4713C154.577 95.2791 156.401 95.1831 156.785 94.8949C157.169 94.6067 158.128 94.7027 158.128 94.4145C158.128 94.1263 159.088 93.8381 159.472 93.5499C159.856 93.2617 161.488 93.2617 161.584 93.646C161.68 94.0303 162.64 94.1263 163.024 93.9342C163.408 93.7421 164.463 94.0303 164.655 94.3185C164.847 94.6067 165.999 94.8949 166.287 94.7988C166.767 94.5106 167.343 94.2224 167.919 93.9342C168.303 93.9342 168.783 93.5499 168.687 93.1657C168.591 92.7814 169.359 91.8207 169.455 91.4365C169.647 90.8601 170.031 90.2837 170.511 89.8033C170.798 89.7073 171.278 89.2269 171.278 88.9387C171.278 88.6505 171.086 87.6899 170.798 87.6899C170.511 87.6899 169.935 87.6899 170.702 86.8253C171.278 86.2489 172.046 85.9607 172.814 86.1528C173.678 85.9607 174.446 85.8646 175.31 85.9607C175.982 86.1528 176.462 85.8646 177.23 86.2489C177.997 86.6331 179.053 86.5371 179.245 86.8253C179.437 87.1135 180.493 87.4977 180.397 88.0741C180.301 88.6505 180.973 88.3623 181.165 89.6112C181.357 90.8601 182.029 91.0522 182.125 91.6286C182.221 92.205 183.085 93.3578 182.989 93.646C182.893 93.9342 182.797 94.5106 183.661 94.6067C184.524 94.7027 185.1 95.2791 185.292 95.1831C185.964 95.1831 186.54 95.4713 187.02 95.9516C187.5 96.4319 188.268 96.2398 188.268 96.7201C188.268 97.2005 188.652 97.6808 188.652 98.1611C188.652 98.6415 189.612 98.9297 190.284 98.8336C190.955 98.7375 191.435 99.1218 191.819 98.4493C192.203 97.7769 193.163 98.0651 193.451 97.8729C193.739 97.6808 194.891 97.2965 194.795 98.2572C194.699 99.2179 195.371 99.41 194.795 99.6982C194.219 99.9864 194.027 101.331 193.931 101.812C193.835 102.292 192.971 102.484 192.971 103.157C192.971 103.829 192.203 103.829 192.203 104.309C192.203 104.79 191.243 104.694 190.667 104.309C190.092 103.925 189.708 104.982 189.228 104.982C188.748 104.982 188.844 105.846 188.94 106.231C189.036 106.615 188.748 106.999 189.036 107.672C189.132 108.248 189.132 108.728 189.132 109.305C189.516 108.921 189.996 108.728 190.572 108.536C191.243 108.536 191.819 109.593 192.491 109.689C193.163 109.785 196.331 107.576 196.427 107.191C196.523 106.807 198.346 105.078 199.21 104.117C200.17 103.157 201.034 102.004 201.706 100.755C202.282 99.8903 202.858 99.1218 203.53 98.3533C203.914 97.7769 204.297 97.2005 204.585 96.6241C205.161 95.4713 205.161 92.3971 205.353 92.1089C205.545 91.8207 205.449 91.3404 205.641 91.0522C205.833 90.764 205.737 90.2837 206.313 89.8033C206.697 89.5151 206.793 89.0348 206.601 88.6505C206.505 88.3623 206.601 87.5938 206.505 87.4017C206.409 87.2095 206.409 87.1135 206.697 86.9213C206.985 86.7292 206.505 86.2489 206.025 86.0567C205.545 85.8646 205.065 85.6725 204.969 85.1921C204.777 84.6157 204.297 84.2315 203.626 84.1354C203.05 84.2315 201.994 83.8472 202.186 84.2315C202.378 84.6157 202.186 84.9039 201.898 84.8079C201.61 84.7118 201.514 85 201.13 85.4803C200.746 85.9607 199.69 86.0567 200.17 85.5764C200.65 85.0961 199.978 85.0961 200.074 84.6157C200.17 84.1354 200.554 83.6551 200.074 83.9433C199.594 84.2315 199.498 85.0961 199.018 85.1921C198.538 85.2882 198.73 83.8472 198.826 83.4629C198.922 83.0787 197.962 83.4629 196.907 83.4629C195.851 83.4629 196.139 82.6944 197.003 82.2141C197.866 81.7337 197.674 81.3495 198.154 81.1573C198.634 80.9652 199.69 80.2927 200.362 79.9085C200.842 79.6203 201.226 79.236 201.322 78.6596C201.514 78.2753 202.666 77.6989 203.722 76.8343C204.489 76.354 205.065 75.6815 205.545 74.913C205.833 74.3366 207.369 73.7602 207.465 73.2799C207.561 72.7995 209.385 71.8389 210.633 71.6467C211.88 71.4546 213.128 71.5507 214.28 72.1271C214.472 72.4153 214.76 72.4153 214.952 72.3192C215.048 72.3192 215.048 72.2231 215.144 72.1271C215.336 71.8389 215.912 72.031 216.776 72.1271C217.639 72.2231 217.831 71.7428 218.407 71.9349C218.983 72.1271 219.463 72.2231 219.847 71.5507C220.231 70.8782 221.863 70.9743 222.247 71.2625C222.631 71.5507 222.919 71.9349 223.495 71.5507C224.07 71.1664 224.07 72.1271 224.646 72.1271C225.222 72.1271 224.838 72.7035 224.358 72.7035C223.879 72.7035 223.207 72.9917 223.783 73.2799C224.358 73.5681 225.03 72.9917 225.51 72.9917C226.086 73.0877 226.758 72.9917 227.334 72.7035C228.006 72.3192 228.102 72.9917 228.486 72.7035C228.966 72.4153 229.638 72.2231 230.214 72.3192C230.693 72.3192 230.31 71.7428 229.542 71.7428C228.774 71.7428 228.774 71.3585 229.446 70.3018C230.118 69.2451 231.173 68.6687 231.941 68.0923C232.709 67.5159 233.189 67.8041 233.189 67.3237C233.189 66.8434 233.573 65.7867 234.149 65.7867C234.725 65.7867 236.069 65.9788 236.933 65.4985C237.796 65.0181 237.7 65.8827 238.084 65.9788C238.468 66.0749 238.948 65.2103 239.332 65.4985C239.716 65.7867 238.756 66.3631 238.468 67.0355C238.18 67.708 238.948 67.5159 239.428 67.708C239.908 67.9001 238.852 68.1883 238.948 68.3805C239.044 68.5726 239.908 68.5726 240.964 67.4198C241.636 66.5552 242.692 66.0749 243.748 66.0749C244.419 66.1709 244.035 65.4024 244.131 64.4417C244.227 63.4811 246.339 63.0968 247.011 63.385C247.683 63.6732 247.683 63.9614 247.011 63.7693C246.339 63.5771 245.667 64.1535 245.763 65.0181C245.859 65.8827 245.091 65.6906 245.379 65.9788C245.667 66.267 244.899 66.3631 244.899 66.7473C244.899 67.1316 244.899 67.4198 244.419 67.5159C243.939 67.6119 242.212 67.8041 242.212 68.4765C242.212 69.149 241.252 69.2451 240.868 70.0136C240.484 70.7821 238.756 71.2625 237.7 72.8956C236.645 74.5287 234.917 74.5287 234.917 74.8169C234.917 75.1051 233.765 75.1051 233.285 75.1051C232.805 75.1051 233.669 76.1619 232.709 77.1225C231.749 78.1793 231.173 79.5242 231.173 80.9652C231.173 82.4062 231.653 86.5371 232.133 87.2095C232.613 87.882 232.325 89.7073 232.613 90.0915C232.901 90.4758 232.805 91.0522 233.093 91.3404C233.381 91.6286 234.245 90.3797 234.917 89.8033C235.589 89.2269 235.397 89.1309 235.781 88.8427C236.165 88.5545 236.069 87.4017 236.165 87.1135C236.261 86.8253 237.125 86.6331 237.317 86.3449C237.508 86.0567 238.18 86.2489 238.564 86.0567C238.948 85.8646 238.564 85.0961 238.372 84.6157C238.18 84.1354 239.428 83.4629 240.004 83.0787C240.58 82.6944 241.348 83.3669 242.02 82.6944C242.692 82.0219 242.02 81.3495 241.732 80.9652C241.444 80.5809 242.404 79.0439 242.98 78.8517C243.556 78.6596 243.748 79.236 244.323 78.7557C244.899 78.2753 243.844 77.6029 243.556 77.6029C243.268 77.6029 243.076 76.354 243.939 75.6815C244.803 75.0091 244.419 74.913 243.844 74.8169C243.268 74.7209 243.172 74.8169 242.788 74.913C242.404 75.0091 241.924 74.0484 242.596 73.1838C243.268 72.3192 243.844 72.4153 244.035 71.6467C244.323 70.8782 244.803 70.2057 245.283 69.5333C245.475 69.149 246.435 69.5333 246.723 69.4372C247.011 69.3411 246.915 70.1097 247.395 69.7254C247.875 69.3411 248.547 68.0923 249.123 68.0923C249.699 68.0923 249.315 69.0529 249.507 69.5333C249.699 70.0136 249.987 69.3411 251.138 68.6687C252.482 67.9962 254.018 67.9001 255.362 68.3805C256.13 68.7647 256.226 69.5333 256.61 69.4372C257.185 69.2451 256.706 68.5726 257.281 68.4765C258.145 68.0923 259.009 67.708 259.777 67.1316C260.545 66.5552 260.353 66.9395 260.737 66.4591C261.121 65.9788 261.601 66.1709 261.697 65.7867C261.793 65.4024 262.945 64.826 264.576 64.5378C266.208 64.2496 268.224 63.0968 268.128 62.8086C268.032 62.5204 268.704 62.3283 268.8 62.6165C268.896 62.9047 269.472 62.8086 270.336 63.0007C271.199 63.1929 271.583 63.4811 272.159 62.8086C272.735 62.1361 272.063 61.944 272.159 61.4637C272.255 60.9833 271.007 60.4069 271.199 59.9266C271.391 59.4463 270.336 58.0053 270.048 58.2935C269.76 58.5817 269.088 58.1013 269.088 57.621C269.088 57.1407 268.992 56.7564 268.608 57.0446C268.224 57.3328 267.36 57.2367 267.168 56.7564C266.976 56.2761 268.128 55.9879 268.896 56.2761C269.664 56.5643 269.376 56.8525 269.76 57.1407C270.432 57.3328 271.103 57.2367 271.679 57.0446C272.159 56.7564 273.695 56.2761 273.983 55.8918C274.271 55.5075 273.983 55.2193 274.463 55.0272C274.943 54.8351 274.559 54.2587 274.175 53.9705C273.983 53.8744 273.791 53.6823 273.887 53.3941C273.983 53.2019 274.079 53.1059 274.271 53.1059C274.751 53.1059 274.559 52.6255 274.943 52.5295C275.327 52.4334 275.327 52.7216 275.807 52.5295C276.287 52.3373 275.807 52.9137 275.615 53.3941C275.423 53.8744 276.095 54.2587 276.191 54.5469C276.287 54.8351 277.342 54.9311 277.918 54.5469C278.494 54.1626 280.414 54.9311 280.606 55.4115C280.798 56.0839 281.182 56.5643 281.854 56.8525C282.622 57.2367 283.39 57.0446 283.582 57.4289C283.678 57.8131 284.061 58.0053 284.445 57.9092C284.925 57.8131 285.117 58.2935 285.501 58.0053C285.885 57.7171 285.981 58.1974 286.461 57.8131C286.941 57.4289 285.501 57.1407 285.693 56.8525C285.885 56.5643 286.173 57.0446 286.557 57.0446C286.941 57.0446 286.461 56.2761 286.749 56.18C287.037 56.0839 286.845 54.5469 286.461 54.4508C286.077 54.3547 286.461 53.7783 286.941 54.2587C287.517 54.5469 288.189 54.739 288.861 54.6429C289.341 54.6429 288.861 54.2587 288.477 54.1626C288.093 54.0665 288.573 53.7783 288.861 53.9705C289.149 54.1626 289.725 54.3547 289.821 54.0665C289.917 53.7783 290.205 53.1059 290.684 53.1059C291.164 53.1059 291.068 53.5862 290.589 53.3941ZM156.977 27.36C156.785 27.7443 155.633 27.7443 156.017 28.1285C156.497 28.801 158.992 28.4167 159.088 27.6482C159.184 26.8797 157.169 26.9757 156.977 27.36ZM65.5023 2.47874C66.6542 2.47874 66.3662 1.7102 67.1341 1.80627C67.9019 1.90234 68.9578 1.90234 68.5738 1.32594C68.1899 0.749538 65.2143 1.03774 65.5983 1.422C65.9822 1.80627 63.1987 1.7102 63.2946 1.80627C63.3906 2.19054 64.3505 2.47874 65.5023 2.47874ZM59.2633 5.84107C59.2633 5.07254 56.6716 5.93714 57.1516 6.12927C57.6315 6.3214 59.2633 6.70567 59.2633 5.84107ZM65.7903 5.1686C65.8863 5.55287 65.5023 5.64894 64.5425 5.64894C63.5826 5.64894 63.0067 6.22534 63.5826 6.70567C64.1585 7.186 66.8461 6.99387 67.326 6.41747C67.806 5.84107 68.9578 6.3214 69.1498 5.745C69.3417 5.1686 65.5983 4.78434 65.7903 5.1686ZM74.333 4.20794C74.7169 3.7276 73.6611 3.7276 73.5651 3.34334C73.4691 2.95907 70.6855 2.76694 70.7815 3.24727C70.8775 3.7276 68.8618 4.304 69.4377 4.78434C70.7815 5.84107 74.045 4.68827 74.333 4.20794ZM66.3662 3.4394C66.4622 2.38267 64.7344 3.24727 63.4866 2.67087C62.2388 2.09447 61.3749 2.19054 62.3348 2.95907C62.7187 3.34334 60.1271 3.53547 60.5111 4.01581C61.3749 4.97647 66.2702 4.49614 66.3662 3.4394ZM58.8793 31.2987C58.8793 31.7791 58.5914 32.1633 57.7275 32.1633C56.8636 32.1633 58.2074 32.7397 58.3034 33.3161C58.3994 33.8925 57.3435 33.5083 57.3435 34.2768C57.3435 35.0453 55.5198 34.2768 55.2319 35.4296C54.9439 36.5824 56.0957 36.3903 56.9596 36.3903C57.8235 36.3903 56.6716 37.1588 57.2476 37.6391C57.8235 38.1195 58.3034 37.9273 57.9194 37.0627C57.5355 36.1981 60.0311 37.3509 59.2633 38.0234C58.4954 38.6959 60.5111 39.1762 61.3749 39.2723C62.2388 39.3683 65.6943 40.0408 65.7903 39.2723C65.8863 38.7919 64.5425 38.3116 63.4866 37.1588C62.4308 36.006 61.6629 34.2768 62.9107 33.5083C64.1585 32.7397 63.1027 32.3555 64.2545 31.5869C65.4063 30.8184 64.7344 29.9538 65.7903 29.8577C66.8461 29.7617 65.6943 28.8971 66.7501 28.7049C67.518 28.6089 67.9979 27.8403 67.806 27.1679V27.0718C67.71 26.6875 68.8618 27.1679 69.4377 26.4954C70.0136 25.8229 71.2615 26.3033 71.7414 25.4387C72.2213 24.5741 77.8845 22.6527 81.148 21.8842C84.4115 21.1157 86.7151 19.7707 85.4673 18.9061C84.2195 18.0415 81.052 19.2904 80.2841 19.8668C79.5162 20.4432 78.3644 20.0589 77.5005 20.5393C76.6367 21.0196 75.0049 21.4039 74.141 20.8275C73.2772 20.2511 72.3173 21.4999 71.6454 21.4039C70.9735 21.3078 70.2056 22.0763 69.5337 21.9803C68.8618 21.8842 67.422 22.5567 67.326 22.9409C67.2301 23.3252 65.9822 23.2291 65.9822 23.7095C65.7903 24.1898 65.3103 24.478 64.7344 24.3819C64.6384 24.3819 64.5425 24.2859 64.4465 24.2859C63.9665 23.8055 63.3906 24.7662 64.0625 25.4387C64.7344 26.1111 62.7187 26.1111 63.1027 26.5915C63.4866 27.0718 62.3348 27.2639 62.6228 27.7443C62.9107 28.2246 61.9509 28.3207 61.183 28.5128C60.4151 28.7049 60.0311 29.6656 60.991 29.6656C61.9508 29.6656 60.4151 29.8577 60.5111 30.6263C60.607 31.3948 58.8793 30.8184 58.8793 31.2987Z" fill="#038DFF" stroke="white" stroke-width="0.1" stroke-miterlimit="10"/>
</svg>
