<svg width="1440" height="325" viewBox="0 0 1440 325" fill="none" xmlns="http://www.w3.org/2000/svg">
<path d="M1259.89 71.5517H1266.22C1267.66 71.5517 1269.1 70.4023 1269.1 68.6782V67.5287C1269.1 66.092 1267.95 64.6552 1266.22 64.6552H1259.89C1258.45 64.6552 1257.02 65.8046 1257.02 67.5287V68.6782C1257.3 70.1149 1258.45 71.5517 1259.89 71.5517Z" fill="#383B3E" fill-opacity="0.3"/>
<path d="M1231.12 73.5632C1231.41 75 1233.13 75.8621 1234.57 75.5747L1240.62 73.8506C1242.05 73.5632 1242.92 71.8391 1242.63 70.4023L1242.34 69.2529C1242.05 67.8161 1240.33 66.954 1238.89 67.2414L1232.85 68.9655C1231.41 69.2529 1230.55 70.977 1230.83 72.4138L1231.12 73.5632Z" fill="#383B3E" fill-opacity="0.3"/>
<path d="M1207.24 85.0575C1208.1 86.4943 1209.83 86.7816 1211.27 86.2069L1216.74 83.046C1218.17 82.1839 1218.46 80.4598 1217.89 79.023L1217.31 78.1609C1216.45 76.7241 1214.72 76.4368 1213.28 77.0115L1207.82 80.1724C1206.38 81.0345 1206.09 82.7586 1206.67 84.1954L1207.24 85.0575Z" fill="#383B3E" fill-opacity="0.3"/>
<path d="M1216.16 256.322L1210.69 253.161C1209.25 252.299 1207.53 252.874 1206.67 254.31L1206.09 255.172C1205.23 256.609 1205.8 258.333 1207.24 259.195L1212.71 262.356C1214.15 263.218 1215.87 262.644 1216.74 261.207L1217.31 260.345C1218.17 258.908 1217.6 257.184 1216.16 256.322Z" fill="#383B3E" fill-opacity="0.3"/>
<path d="M1240.33 265.517L1234.29 263.793C1232.85 263.506 1231.12 264.368 1230.83 265.805L1230.55 266.954C1230.26 268.391 1231.12 270.115 1232.56 270.402L1238.6 272.126C1240.04 272.414 1241.77 271.552 1242.05 270.115L1242.34 268.966C1242.63 267.529 1241.77 266.092 1240.33 265.517Z" fill="#383B3E" fill-opacity="0.3"/>
<path d="M1291.25 264.08L1285.21 265.805C1283.77 266.092 1282.91 267.816 1283.2 269.253L1283.48 270.402C1283.77 271.839 1285.5 272.701 1286.94 272.414L1292.98 270.69C1294.42 270.402 1295.28 268.678 1294.99 267.241L1294.71 266.092C1294.42 264.655 1292.69 263.793 1291.25 264.08Z" fill="#383B3E" fill-opacity="0.3"/>
<path d="M1314.85 253.448L1309.38 256.609C1307.94 257.471 1307.65 259.195 1308.23 260.632L1308.8 261.494C1309.67 262.931 1311.39 263.218 1312.83 262.644L1318.3 259.483C1319.74 258.621 1320.02 256.897 1319.45 255.46L1318.87 254.598C1317.72 253.161 1316 252.874 1314.85 253.448Z" fill="#383B3E" fill-opacity="0.3"/>
<path d="M1334.7 237.356L1330.09 241.954C1328.94 243.103 1328.94 244.828 1330.09 245.977L1330.96 246.839C1332.11 247.989 1333.83 247.989 1334.98 246.839L1339.59 242.241C1340.74 241.092 1340.74 239.368 1339.59 238.218L1338.73 237.356C1337.57 236.207 1335.85 236.207 1334.7 237.356Z" fill="#383B3E" fill-opacity="0.3"/>
<path d="M1353.69 215.517C1352.25 214.655 1350.52 215.23 1349.66 216.667L1346.49 222.126C1345.63 223.563 1346.21 225.287 1347.64 226.149L1348.51 226.724C1349.95 227.586 1351.67 227.011 1352.54 225.575L1355.7 220.115C1356.56 218.678 1355.99 216.954 1354.55 216.092L1353.69 215.517Z" fill="#383B3E" fill-opacity="0.3"/>
<path d="M1363.47 190.805L1362.32 190.517C1360.88 190.23 1359.15 191.092 1358.86 192.529L1357.14 198.563C1356.85 200 1357.71 201.724 1359.15 202.012L1360.3 202.299C1361.74 202.586 1363.47 201.724 1363.76 200.287L1365.48 194.253C1365.77 192.816 1364.91 191.092 1363.47 190.805Z" fill="#383B3E" fill-opacity="0.3"/>
<path d="M1364.33 164.08C1362.89 164.08 1361.45 165.23 1361.45 166.954V173.276C1361.45 174.713 1362.61 176.149 1364.33 176.149H1365.48C1366.92 176.149 1368.36 175 1368.36 173.276V166.954C1368.36 165.517 1367.21 164.08 1365.48 164.08H1364.33Z" fill="#383B3E" fill-opacity="0.3"/>
<path d="M1358.86 147.701C1359.15 149.138 1360.88 150 1362.32 149.713L1363.47 149.425C1364.91 149.138 1365.77 147.414 1365.48 145.977L1363.76 139.943C1363.47 138.506 1361.74 137.644 1360.3 137.931L1359.15 138.218C1357.71 138.506 1356.85 140.23 1357.14 141.667L1358.86 147.701Z" fill="#383B3E" fill-opacity="0.3"/>
<path d="M1349.95 123.563C1350.81 125 1352.54 125.287 1353.97 124.713L1354.84 124.138C1356.28 123.276 1356.56 121.552 1355.99 120.115L1352.82 114.655C1351.96 113.218 1350.23 112.931 1348.8 113.506L1347.93 114.08C1346.49 114.943 1346.21 116.667 1346.78 118.103L1349.95 123.563Z" fill="#383B3E" fill-opacity="0.3"/>
<path d="M1334.99 102.586C1336.14 103.736 1337.86 103.736 1339.01 102.586L1339.88 101.724C1341.03 100.575 1341.03 98.8506 1339.88 97.7011L1335.27 93.1035C1334.12 91.954 1332.4 91.954 1331.24 93.1035L1330.38 93.9655C1329.23 95.1149 1329.23 96.8391 1330.38 97.9885L1334.99 102.586Z" fill="#383B3E" fill-opacity="0.3"/>
<path d="M1309.67 83.046L1315.13 86.2069C1316.57 87.069 1318.3 86.4943 1319.16 85.0575L1319.74 84.1954C1320.6 82.7586 1320.02 81.0345 1318.59 80.1724L1313.12 77.0115C1311.68 76.1494 1309.95 76.7241 1309.09 78.1609L1308.52 79.023C1307.94 80.7471 1308.23 82.4713 1309.67 83.046Z" fill="#383B3E" fill-opacity="0.3"/>
<path d="M1285.5 74.1379L1291.54 75.8621C1292.98 76.1494 1294.71 75.2874 1294.99 73.8506L1295.28 72.7011C1295.57 71.2644 1294.71 69.5402 1293.27 69.2529L1287.22 67.5287C1285.79 67.2414 1284.06 68.1034 1283.77 69.5402L1283.48 70.6897C1283.2 72.1264 1284.06 73.5632 1285.5 74.1379Z" fill="#383B3E" fill-opacity="0.3"/>
<path d="M1266.22 278.736V275C1267.66 275 1268.81 273.563 1268.81 272.126V270.977C1268.81 269.54 1267.66 268.391 1266.22 268.103V267.816C1318.87 266.092 1360.88 222.701 1360.88 169.828C1360.88 115.805 1316.86 71.8391 1262.77 71.8391C1261.33 71.8391 1259.89 71.8391 1258.45 71.8391C1233.13 72.9885 1209.54 83.6207 1191.7 102.011C1190.55 103.161 1189.4 104.598 1188.25 106.034V103.161C1189.11 103.448 1190.27 103.448 1191.13 102.586L1195.73 97.9885C1196.88 96.8391 1196.88 95.1149 1195.73 93.9655L1194.87 93.1035C1193.72 91.954 1191.99 91.954 1190.84 93.1035L1188.25 95.6897V35.9195C1188.83 35.9195 1189.4 35.6322 1189.98 35.6322C1202.93 33.046 1202.93 14.6552 1189.98 12.069C1189.69 12.069 1189.69 12.069 1189.4 12.069C1183.94 11.2069 1173 12.3563 1154.01 14.9425V0H1122.65V18.1034C1093.59 23.5632 1069.14 24.1379 1006.13 25.5747C975.345 26.4368 930.462 25 883.277 23.5632V7.75862H851.916V22.9885C810.773 24.4253 775.385 20.4023 767.041 26.4368C767.041 26.4368 756.971 32.1839 775.672 37.931C780.276 39.3678 802.142 41.092 833.79 42.8161V278.448H821.706V190.517H800.991V267.241H773.658V185.632H748.627L733.091 192.241V199.425C733.091 199.425 711.8 200 711.513 199.425C711.225 198.851 711.513 125 711.513 125H696.264V116.092H679.001V111.782H656.847L641.598 117.241V65.5172L619.157 17.5287L600.456 13.7931L588.372 18.6782L563.341 69.5402L554.997 250.287L538.022 249.713L542.05 185.632L522.486 183.908L522.773 176.149L519.321 175.862V170.69L505.798 169.54L505.51 167.241H477.315V205.172C477.315 205.172 446.529 209.483 446.529 208.621C446.529 207.759 446.529 248.276 446.529 248.276V278.736H408.264C406.25 255.747 404.236 222.414 408.551 213.218C415.169 198.563 451.421 189.08 451.421 189.08C451.421 182.471 413.155 181.034 401.071 181.034C401.071 181.034 400.496 181.034 399.345 181.034C398.194 181.034 397.618 181.034 397.618 181.034C385.534 181.322 347.269 182.471 347.269 189.08C347.269 189.08 383.521 198.563 390.138 213.218C394.454 222.414 392.44 255.747 390.426 278.736H336.048C334.609 260.632 333.459 237.931 336.623 231.035C342.09 219.253 371.149 211.494 371.149 211.494C371.149 206.034 340.364 205.172 330.581 204.885C330.581 204.885 330.006 204.885 329.143 204.885C328.28 204.885 327.704 204.885 327.704 204.885C317.922 205.172 287.137 206.034 287.137 211.494C287.137 211.494 316.196 219.253 321.662 231.035C324.827 237.931 323.676 260.632 322.238 278.736H267.285C265.271 255.747 263.257 222.414 267.572 213.218C274.19 198.563 310.442 189.08 310.442 189.08C310.442 182.471 272.176 181.034 260.092 181.034C260.092 181.034 259.516 181.034 258.366 181.034C257.215 181.034 256.639 181.034 256.639 181.034C244.555 181.322 206.29 182.471 206.29 189.08C206.29 189.08 242.541 198.563 249.159 213.218C253.475 222.414 251.461 255.747 249.447 278.736H192.48V272.989C208.016 266.954 225.279 254.023 231.896 227.586L211.469 224.138C211.469 224.138 207.441 230.46 198.809 234.195H188.164L184.711 216.954L159.968 215.517C159.968 215.517 156.228 220.977 155.365 233.908H148.747C144.432 228.448 138.39 218.678 131.197 201.724C131.197 201.437 104.44 197.414 104.44 197.414C104.44 197.414 100.987 207.759 106.166 223.563H105.015C101.275 216.379 96.3836 203.448 96.3836 185.632L77.97 185.057C77.97 185.057 57.8302 246.839 124.579 270.402V278.736H0V325H1440V278.736H1266.22ZM1261.33 166.092L1219.32 84.7701C1224.22 82.4713 1229.11 80.4598 1234.29 78.7356L1261.33 166.092ZM1235.15 78.4483C1237.45 77.5862 1240.04 77.0115 1242.34 76.7241L1260.76 162.069L1235.15 78.4483ZM1358 169.828C1358 171.264 1358 172.701 1358 174.138L1270.83 169.828L1358 166.667C1358 167.816 1358 168.678 1358 169.828ZM1259.03 169.253L1188.25 165.805V153.161L1259.03 169.253ZM1188.25 152.299V145.977L1255 167.241L1188.25 152.299ZM1188.25 185.345V172.701L1259.03 170.115L1188.25 185.345ZM1255 171.839L1188.25 192.241V186.207L1255 171.839ZM1188.25 208.333L1255.86 173.563L1188.25 216.092V208.333ZM1188.25 207.471V192.816L1259.03 170.977L1188.25 207.471ZM1254.71 169.54L1188.25 172.126V166.379L1254.71 169.54ZM1188.25 216.954L1259.6 172.126L1191.7 233.621C1190.55 232.184 1189.4 231.035 1188.25 229.598V216.954ZM1257.02 175.287L1197.46 239.368C1195.73 237.644 1193.72 235.92 1192.28 233.908L1257.02 175.287ZM1259.89 173.276L1210.69 250C1206.09 247.126 1202.06 243.678 1198.03 240.23L1259.89 173.276ZM1258.74 176.724L1217.89 254.023C1215.58 252.874 1213.57 251.437 1211.27 250.287L1258.74 176.724ZM1259.89 175.862V177.299L1233.13 260.632C1227.96 258.908 1223.06 256.897 1218.17 254.31L1259.89 175.862ZM1259.89 179.598V180.46L1241.19 262.931C1238.6 262.356 1236.3 261.782 1234 260.92L1259.89 179.598ZM1259.89 183.621V219.828L1257.59 265.23C1252.12 264.943 1246.95 264.08 1241.77 262.931L1259.89 183.621ZM1259.89 233.908V264.943C1259.32 264.943 1258.74 264.943 1258.45 264.943L1259.89 233.908ZM1266.22 250.575V187.069L1282.62 263.218C1277.44 264.368 1272.26 264.943 1266.8 265.23L1266.22 250.575ZM1266.22 183.621V181.897L1290.68 260.92C1288.38 261.782 1285.79 262.356 1283.48 262.931L1266.22 183.621ZM1266.22 179.598V177.011L1306.21 254.598C1301.61 256.897 1296.43 259.195 1291.25 260.632L1266.22 179.598ZM1266.8 176.724L1313.41 250.575C1311.39 252.011 1309.09 253.161 1306.79 254.31L1266.8 176.724ZM1266.22 174.425V173.851L1326.64 240.517C1322.61 243.966 1318.3 247.414 1313.98 250.287L1266.22 174.425ZM1266.22 172.414L1342.75 221.839C1339.88 226.437 1336.42 230.46 1332.97 234.483L1266.22 172.414ZM1269.67 173.851L1346.78 214.655C1345.63 216.954 1344.19 218.966 1343.04 221.264L1269.67 173.851ZM1266.51 171.264L1353.69 199.138C1351.96 204.31 1349.95 209.195 1347.36 213.793L1266.51 171.264ZM1270.54 171.839L1355.7 191.092C1355.12 193.678 1354.55 195.977 1353.69 198.276L1270.54 171.839ZM1266.8 170.402L1358 174.713C1357.71 180.172 1356.85 185.345 1355.7 190.517L1266.8 170.402ZM1266.8 169.253L1355.99 150C1357.14 155.172 1357.71 160.345 1358 165.805L1266.8 169.253ZM1270.54 167.816L1353.97 142.241C1354.84 144.54 1355.41 147.126 1355.99 149.425L1270.54 167.816ZM1266.51 168.391L1347.64 126.724C1349.95 131.322 1352.25 136.494 1353.69 141.379L1266.51 168.391ZM1269.96 165.805L1343.62 119.54C1345.05 121.552 1346.21 123.851 1347.36 126.149L1269.96 165.805ZM1265.93 167.529L1333.55 106.322C1337 110.345 1340.45 114.655 1343.33 118.966L1265.93 167.529ZM1267.08 162.931L1307.94 85.9195C1310.24 87.069 1312.26 88.5058 1314.27 89.6552L1267.08 162.931ZM1314.85 89.9425C1319.45 92.8161 1323.48 96.2644 1327.5 99.7126L1265.36 166.667L1314.85 89.9425ZM1264.5 166.092L1292.4 79.3103C1297.58 81.0345 1302.47 83.046 1307.08 85.6322L1264.5 166.092ZM1265.07 162.069L1284.35 77.0115C1286.94 77.5862 1289.24 78.1609 1291.54 79.023L1265.07 162.069ZM1263.34 165.805L1267.66 74.7126C1273.13 75 1278.31 75.8621 1283.48 77.0115L1263.34 165.805ZM1259.03 162.644L1212.42 88.7931C1214.43 87.3563 1216.74 86.2069 1219.04 85.0575L1259.03 162.644ZM1260.47 166.667L1198.9 98.8506C1202.93 95.1149 1207.24 91.954 1211.56 89.0805L1260.47 166.667ZM1188.25 145.402V130.747L1259.32 168.103L1188.25 145.402ZM1188.25 129.885V122.126L1255.86 165.517L1188.25 129.885ZM1188.25 243.966L1190.55 246.264C1191.7 247.414 1193.43 247.414 1194.58 246.264L1195.44 245.402C1196.6 244.253 1196.6 242.529 1195.44 241.379L1190.84 236.782C1190.27 236.207 1189.11 235.92 1188.25 236.207V233.908C1205.8 254.023 1231.41 267.241 1259.89 267.816V268.103H1259.6C1258.17 268.103 1256.73 269.253 1256.73 270.977V272.126C1256.73 273.563 1257.88 275 1259.6 275H1259.89V278.736H1188.25V243.966ZM1327.22 240.23L1268.52 175.575L1332.4 234.77C1330.67 236.782 1328.94 238.506 1327.22 240.23ZM1333.26 105.747L1268.81 164.08L1328.08 100.287C1329.81 102.011 1331.53 103.736 1333.26 105.747ZM1267.08 74.7126L1263.06 161.782L1259.6 74.7126C1260.47 74.7126 1261.62 74.7126 1262.48 74.7126C1264.21 74.4253 1265.65 74.7126 1267.08 74.7126ZM1258.45 74.7126H1258.74L1262.19 166.092L1242.92 76.7241C1248.1 75.5747 1253.27 74.7126 1258.45 74.7126ZM1198.61 99.4253L1257.3 164.08L1193.14 104.598C1193.43 104.31 1193.72 104.023 1193.72 103.736C1195.44 102.299 1196.88 100.862 1198.61 99.4253ZM1192.57 105.172L1259.6 167.241L1187.96 121.264V110.057C1189.69 108.333 1191.13 106.609 1192.57 105.172ZM1103.09 44.5402V278.736H1053.6V46.2644C1070.87 45.977 1087.26 45.4023 1103.09 44.5402ZM919.241 45.977C935.353 46.2644 951.752 46.5517 968.727 46.8391V278.736H919.241V45.977Z" fill="#383B3E" fill-opacity="0.3"/>
</svg>
