<svg width="44" height="36" viewBox="0 0 44 36" fill="none" xmlns="http://www.w3.org/2000/svg">
<g clip-path="url(#clip0_628_217)">
<path d="M43.1395 25.3238C43.1395 23.9051 43.133 22.4863 43.142 21.067C43.1531 20.2911 43.0649 19.5169 42.8794 18.7633C42.3071 16.5061 40.935 15.0463 38.612 14.5685C37.3177 14.3021 36.0189 14.3737 34.7432 14.6872C32.9534 15.1274 31.6411 16.1746 30.8529 17.8533C30.285 19.0633 30.1028 20.3443 30.1088 21.6679C30.1189 23.7959 30.1053 25.9248 30.1043 28.0517C30.1043 29.0078 30.0541 29.9658 30.2755 30.9108C30.5436 32.0582 30.9869 33.1184 31.8068 33.9873C32.7802 35.019 33.9927 35.5899 35.3934 35.7727C36.1879 35.8761 36.9924 35.8771 37.7872 35.7757C38.5859 35.6755 39.3666 35.5103 40.0865 35.1351C42.1218 34.0749 43.0255 32.3071 43.1214 30.106C43.1907 28.5145 43.135 26.9179 43.135 25.3238H43.1395ZM39.0127 29.7154C39.0136 29.9823 38.9877 30.2485 38.9353 30.5102C38.7175 31.5378 37.989 32.1694 36.9186 32.252C36.5792 32.278 36.2263 32.2931 35.8954 32.2295C35.0595 32.0692 34.5901 31.4843 34.3652 30.712C34.2375 30.2816 34.1676 29.8362 34.1573 29.3874C34.1292 27.3341 34.1337 25.2808 34.1252 23.2305C34.1222 22.5634 34.0946 21.8958 34.1167 21.2302C34.1433 20.429 34.2974 19.6502 34.8296 19.0082C35.2704 18.4763 35.8422 18.276 36.5441 18.2765C38.2079 18.2765 38.9911 19.7288 39.0111 20.9808C39.0352 22.4657 39.0167 23.9511 39.0167 25.438C39.0162 26.8618 39.0197 28.2886 39.0127 29.7154Z" fill="white"/>
<path d="M28.1242 25.0284C28.1242 23.7518 28.1298 22.4742 28.1242 21.1982C28.1207 20.5647 28.1288 19.9281 28.0705 19.2986C27.9591 18.1242 27.5122 17.0876 26.6462 16.2612C25.3534 15.0242 23.7519 14.541 22.0178 14.4393C20.8556 14.3732 19.7305 14.6236 18.6586 15.0633C17.3859 15.5831 16.3773 16.418 15.7804 17.68C15.3506 18.5885 15.1809 19.5575 15.1824 20.5612C15.1824 23.4318 15.1769 26.3029 15.1824 29.175C15.1824 30.1907 15.3331 31.1863 15.6845 32.1443C16.3768 34.0359 17.6641 35.2909 19.6572 35.7371C21.133 36.0689 22.67 36.0107 24.1164 35.5683C25.3851 35.1892 26.4158 34.4706 27.1377 33.3478C27.7639 32.3829 28.1042 31.2613 28.1197 30.1121C28.1493 28.4188 28.1272 26.7241 28.1272 25.0299L28.1242 25.0284ZM24.2052 27.5945C24.1942 28.4514 24.2027 29.3103 24.1455 30.1641C24.0807 31.1307 23.6068 31.9024 22.6871 32.233C21.0554 32.8194 19.3856 32.0412 19.1873 30.2548C19.1155 29.6102 19.128 28.9527 19.122 28.3051C19.1125 27.2534 19.1195 26.2018 19.1195 25.1501H19.1361C19.1361 23.6316 19.1305 22.1127 19.1361 20.5927C19.1406 19.6196 19.5683 18.8524 20.3716 18.3206C20.6091 18.1628 20.9289 18.0922 21.2201 18.0566C22.921 17.8493 24.0315 18.8003 24.146 20.3473C24.2188 21.3429 24.2359 22.344 24.2404 23.3431C24.2489 24.7609 24.2233 26.1777 24.2052 27.5945Z" fill="white"/>
<path d="M11.3232 25.0023C11.2477 24.9594 11.1744 24.9126 11.1038 24.8621C11.2363 24.7619 11.3322 24.6708 11.4412 24.6032C12.2269 24.1184 12.74 23.4208 13.0653 22.5689C13.5116 21.401 13.5106 20.1996 13.3058 18.9951C12.98 17.0771 11.9292 15.6863 10.1133 14.9506C8.42085 14.2655 6.6672 14.1553 4.90601 14.6857C2.63475 15.3698 1.03322 16.7495 0.448831 19.1228C0.33085 19.6011 0.286167 20.0969 0.200819 20.6198H4.34121C4.37033 20.3989 4.39142 20.1846 4.42756 19.9722C4.58872 19.0142 5.22532 18.292 6.12499 18.1693C6.62898 18.1043 7.13989 18.1151 7.64067 18.2014C8.43089 18.3336 8.91838 18.8559 9.12623 19.6217C9.29191 20.2341 9.29241 20.8627 9.19702 21.4832C9.15336 21.771 9.05831 22.0486 8.91638 22.303C8.57649 22.8974 7.98658 23.0797 7.34898 23.1453C6.9358 23.1879 6.52161 23.2184 6.07077 23.2575V26.6665C6.57281 26.7281 7.08942 26.7607 7.59348 26.8593C8.7522 27.0857 9.99477 28.0312 9.80651 29.6343C9.62476 31.1818 8.38671 32.7343 6.40162 32.3171C5.26548 32.0782 4.51492 31.4412 4.29854 30.4085C4.23829 30.1191 4.23277 29.8181 4.19813 29.4886H0.0150614C0.00603257 29.6173 0.00603257 29.7465 0.0150614 29.8752C0.0712908 30.2788 0.106936 30.6895 0.209856 31.0821C0.757591 33.1765 1.97556 34.715 4.04199 35.4822C5.76853 36.1227 7.53775 36.1528 9.31349 35.6725C10.54 35.341 11.6114 34.7365 12.3905 33.7194C13.6256 32.1113 14.0182 30.2813 13.6848 28.2941C13.4393 26.8162 12.7224 25.6639 11.3232 25.0023Z" fill="white"/>
<path d="M33.0448 10.9231C34.079 10.6953 34.7874 10.0993 34.9897 9.02007C35.0987 8.43739 35.0911 7.83895 34.9672 7.25924C34.8431 6.67429 34.5655 6.18851 34.0574 5.85097C33.8872 5.73778 33.712 5.63111 33.5554 5.53045C33.7487 5.33764 33.9455 5.19191 34.0765 5.0016C34.6182 4.21433 34.7508 3.32139 34.6373 2.3974C34.563 1.79093 34.311 1.24555 33.8004 0.858423C33.2669 0.445007 32.6118 0.218478 31.9363 0.213885C30.3142 0.197859 28.6915 0.208376 27.0694 0.209377C26.9976 0.209377 26.9253 0.217891 26.8686 0.221397V11.118C26.9263 11.123 26.959 11.1285 26.9911 11.1285C28.5133 11.1285 30.0355 11.1435 31.5567 11.118C32.058 11.1025 32.5565 11.0372 33.0448 10.9231ZM29.1921 2.34682C30.0139 2.34682 30.8217 2.32278 31.627 2.35684C32.0407 2.37386 32.4147 2.77451 32.4735 3.19619C32.5387 3.66695 32.5036 4.13771 32.0492 4.41565C31.8645 4.52884 31.6089 4.56239 31.3835 4.5659C30.6601 4.58443 29.9356 4.57291 29.1921 4.57291V2.34682ZM29.2508 9.24243V6.76093C29.8598 6.76093 30.4507 6.76093 31.0416 6.76093C31.2927 6.76093 31.5437 6.76444 31.7947 6.77946C32.3972 6.81652 32.8616 7.29429 32.9173 7.92331C32.9755 8.58437 32.6612 9.08768 32.0929 9.24093C32.037 9.2578 31.9791 9.26739 31.9207 9.26947C31.0686 9.26947 30.2166 9.26697 29.3648 9.26196C29.3264 9.25838 29.2883 9.25185 29.2508 9.24243Z" fill="white"/>
<path d="M2.3285 2.33931H5.7836V11.1215H8.01319V0.295516H0V11.1891H2.3285V2.33931Z" fill="white"/>
<path d="M43.7284 2.76449C43.3965 1.62716 42.7695 0.735725 41.6268 0.280993C40.943 0.0090546 40.2251 -0.0194914 39.5032 0.00905459C38.3936 0.054628 37.4719 0.489328 36.8308 1.41131C36.0777 2.49005 35.8618 3.73606 35.8086 5.01712C35.794 5.56601 35.8076 6.11527 35.8493 6.66277C35.906 7.60179 36.1003 8.51225 36.5576 9.34409C37.0451 10.2315 37.7425 10.8826 38.7601 11.1149C39.538 11.2909 40.3451 11.295 41.1248 11.127C41.6898 11.0103 42.2146 10.7484 42.647 10.3672C43.2213 9.86644 43.4949 9.20236 43.6862 8.49473C43.9649 7.46256 43.9874 6.40386 43.9955 5.13932C44.0141 4.47074 43.9744 3.60585 43.7284 2.76449ZM41.6238 7.80862C41.4978 8.73361 40.7201 9.30804 39.7406 9.27298C38.8937 9.24293 38.1602 8.55833 38.0643 7.69444C37.915 6.37623 37.9169 5.04534 38.0698 3.72755C38.1873 2.72243 38.9625 2.04033 39.9123 2.09141C40.9089 2.1455 41.6534 2.90923 41.674 3.91585C41.6861 4.51682 41.674 5.11478 41.674 5.71425L41.7619 5.71675C41.7202 6.41437 41.7202 7.11751 41.6238 7.80862Z" fill="white"/>
<path d="M16.4506 11.1345C17.2368 11.1345 17.9864 11.1375 18.7354 11.1275C18.7856 11.1275 18.8599 11.0338 18.886 10.9692C19.0748 10.4684 19.2641 9.9711 19.4298 9.46679C19.4895 9.2845 19.5663 9.2214 19.7606 9.2234C20.8397 9.23375 21.9184 9.23375 22.9968 9.2234C23.1806 9.2234 23.2639 9.2845 23.3201 9.44626C23.4908 9.94005 23.6655 10.4328 23.8528 10.9201C23.8849 11.0038 23.9859 11.1205 24.0566 11.1205C24.7911 11.135 25.5261 11.1295 26.2928 11.1295C26.2702 11.0463 26.2606 10.9983 26.2426 10.9522C25.8053 9.75476 25.371 8.55582 24.9217 7.3619C24.4866 6.20938 24.0417 5.06053 23.5872 3.91535C23.1354 2.7705 22.668 1.63217 22.2121 0.488828C22.1539 0.34159 22.068 0.29151 21.9109 0.297519C21.5685 0.309539 21.2246 0.313545 20.8827 0.297519C20.6909 0.288505 20.6015 0.358618 20.5343 0.531897C20.0689 1.72832 19.5859 2.91824 19.1245 4.11617C18.4217 5.93861 17.7313 7.76605 17.036 9.59099C16.8452 10.0928 16.6559 10.5941 16.4506 11.1345ZM21.4073 4.11166L21.4982 4.10315L22.7222 7.30331H20.1176C20.5549 6.21806 20.8912 5.1293 21.4073 4.11166Z" fill="white"/>
<path d="M16.7303 5.6832C17.2202 5.00811 17.3935 4.23336 17.3709 3.41604C17.3558 2.84763 17.2614 2.29223 16.9371 1.79694C16.2443 0.740233 15.2542 0.227406 14.0071 0.213384C12.5939 0.197859 11.1806 0.208877 9.76735 0.208877C9.68752 0.208877 9.60719 0.217891 9.53891 0.221897V11.1235H11.8759V7.14856L12.1586 7.13504C12.9167 7.09798 13.6823 7.1125 14.4319 7.01134C15.3627 6.88613 16.1659 6.46746 16.7303 5.6832ZM13.8766 5.12379C13.3103 5.10376 12.7415 5.14232 12.1742 5.14934C12.0336 5.14934 11.893 5.13131 11.7364 5.11979V2.21511C12.4638 2.21511 13.1798 2.19908 13.8952 2.21962C14.587 2.23965 15.1001 2.67034 15.2397 3.34593C15.4239 4.23036 14.7969 5.15835 13.8766 5.12379Z" fill="white"/>
</g>
<defs>
<clipPath id="clip0_628_217">
<rect width="44" height="36" fill="white"/>
</clipPath>
</defs>
</svg>
