<svg width="24" height="24" viewBox="0 0 24 24" fill="none" xmlns="http://www.w3.org/2000/svg">
<path fill-rule="evenodd" clip-rule="evenodd" d="M9.48011 17.6001C13.9647 17.6001 17.6001 13.9647 17.6001 9.48011C17.6001 4.99556 13.9647 1.36011 9.48011 1.36011C4.99556 1.36011 1.36011 4.99556 1.36011 9.48011C1.36011 13.9647 4.99556 17.6001 9.48011 17.6001ZM9.48011 18.6001C14.5169 18.6001 18.6001 14.5169 18.6001 9.48011C18.6001 4.44327 14.5169 0.360107 9.48011 0.360107C4.44327 0.360107 0.360107 4.44327 0.360107 9.48011C0.360107 14.5169 4.44327 18.6001 9.48011 18.6001Z" fill="white" fill-opacity="0.5"/>
<path fill-rule="evenodd" clip-rule="evenodd" d="M22.7302 23.4373L15.2066 15.9137L15.9137 15.2066L23.4373 22.7302L22.7302 23.4373Z" fill="white" fill-opacity="0.5"/>
</svg>
